<?xml version="1.0" encoding="UTF-8"?>
<svg version="1.1" xmlns="http://www.w3.org/2000/svg" width="175" height="175">
<path d="M0 0 C2.62397692 0.7188548 3.79089012 1.4632362 5.77577209 3.29577637 C6.46671967 3.93265381 7.15766724 4.56953125 7.86955261 5.22570801 C13.74662853 10.87591607 19.57200757 16.57534308 25.36341858 22.31335449 C26.0719504 23.01531448 26.78048222 23.71727448 27.5104847 24.44050598 C31.24981675 28.14743692 34.9851984 31.85830496 38.71815491 35.57165527 C41.8012628 38.63686852 44.89268727 41.69331364 47.99159241 44.74255371 C51.74883766 48.43968298 55.49121624 52.15125673 59.22337532 55.873703 C60.64363991 57.28541182 62.06903128 58.69198248 63.49963188 60.09321594 C65.49581756 62.05056005 67.47230989 64.02593492 69.44520569 66.00671387 C70.33265724 66.86416451 70.33265724 66.86416451 71.23803711 67.73893738 C74.93646496 71.50415704 76.31463362 74.16735478 76.39857483 79.65710449 C74.92569144 82.89744795 73.12771167 85.3848544 70.39857483 87.65710449 C65.76512175 89.28965156 60.70300832 90.72938742 56.08998108 88.58288574 C51.62732939 84.89957447 51.62732939 84.89957447 51.04774475 81.75158691 C50.20898046 79.04539705 48.9947424 78.14234443 46.80482483 76.37194824 C42.60331111 72.85729231 38.7446163 69.11602011 34.89857483 65.21960449 C34.21859436 64.5358374 33.53861389 63.85207031 32.83802795 63.14758301 C29.96632339 60.25972676 27.10069045 57.36587374 24.23451233 54.47253418 C22.12464696 52.34444725 20.01167838 50.21947532 17.89857483 48.09460449 C17.26500061 47.45273193 16.63142639 46.81085937 15.97865295 46.14953613 C12.16542923 42.31580583 8.23248459 38.68683243 4.12904358 35.16491699 C2.12389105 33.41776377 0.2401417 31.57540332 -1.60142517 29.65710449 C-6.48314289 31.06204329 -9.09590188 34.03736153 -12.28892517 37.78210449 C-14.02045578 39.79187575 -15.77292952 41.73144241 -17.60142517 43.65710449 C-18.26142517 43.65710449 -18.92142517 43.65710449 -19.60142517 43.65710449 C-19.60142517 44.31710449 -19.60142517 44.97710449 -19.60142517 45.65710449 C-21.05726624 47.09170532 -21.05726624 47.09170532 -23.07847595 48.76306152 C-27.60743868 52.61662753 -31.78991544 56.73480035 -35.96861267 60.96179199 C-36.72941132 61.72637726 -37.49020996 62.49096252 -38.27406311 63.27871704 C-40.6773153 65.69407832 -43.07726558 68.11267847 -45.47642517 70.53210449 C-48.65847296 73.74067988 -51.84377632 76.94597113 -55.03111267 80.14929199 C-55.76127594 80.8877536 -56.49143921 81.62621521 -57.24372864 82.38705444 C-57.91848236 83.06511139 -58.59323608 83.74316833 -59.28843689 84.44177246 C-59.88163727 85.04020966 -60.47483765 85.63864685 -61.08601379 86.25521851 C-64.01873009 88.96823356 -66.64973937 88.9326724 -70.57017517 88.87585449 C-74.46522838 88.45638722 -76.75314184 86.56597949 -79.35142517 83.78210449 C-80.8571713 81.22233607 -81.46259657 79.64191933 -81.60142517 76.65710449 C-80.33750307 72.10698492 -78.89239748 69.68358498 -75.25572205 66.70983887 C-69.82272711 62.0762808 -64.84068318 57.00842507 -59.81433105 51.94517517 C-58.03287269 50.15078114 -56.24815879 48.3596804 -54.46263123 46.56933594 C-50.67272252 42.76808174 -46.8867742 38.96289861 -43.10142517 35.15710449 C-38.70980296 30.74176264 -34.31650791 26.32811201 -29.91894531 21.91868591 C-28.17327807 20.16660653 -26.43068565 18.41150972 -24.68821716 16.65625 C-20.23588202 12.1809366 -15.77348443 7.71107677 -11.13072205 3.43249512 C-10.55930481 2.90546997 -9.98788757 2.37844482 -9.39915466 1.83544922 C-6.34053361 -0.16936296 -3.58460864 -0.30024701 0 0 Z " fill="#CBCBCB" transform="translate(89.60142517089844,9.3428955078125)"/>
<path d="M0 0 C0.00586624 0.58802399 0.01173248 1.17604797 0.01777649 1.78189087 C0.08182009 7.91431517 0.16626806 14.04622 0.26245117 20.17822266 C0.29566006 22.46526226 0.32370451 24.75238303 0.34643555 27.03955078 C0.3800551 30.33140578 0.43237624 33.62251972 0.48828125 36.9140625 C0.49467117 37.93303619 0.5010611 38.95200989 0.50764465 40.00186157 C0.61879419 45.39556863 0.9291464 49.3648712 4 54 C8.99305134 58.61857249 12.90650357 59.1508809 19.48144531 59.16113281 C20.62103447 59.16858017 20.62103447 59.16858017 21.78364563 59.17617798 C24.2984813 59.19078889 26.81325384 59.19760057 29.328125 59.203125 C31.07826743 59.20887829 32.82840984 59.214636 34.57855225 59.22039795 C38.25045058 59.23090555 41.92232703 59.23674948 45.59423828 59.24023438 C50.2894709 59.24571199 54.98441249 59.2697253 59.67955399 59.29820633 C63.29647656 59.31687252 66.91332966 59.32204047 70.53029633 59.32357025 C72.26058286 59.32658942 73.99086838 59.33459303 75.72110748 59.34775543 C78.14795243 59.36489596 80.57409489 59.36291619 83.00097656 59.35644531 C83.70980484 59.3656601 84.41863312 59.37487488 85.14894104 59.3843689 C90.20691379 59.34232651 93.57505441 58.26952499 98 56 C101.68774717 52.18932792 102.11064218 48.27942432 102.20532227 43.13964844 C102.22526749 42.17895447 102.24521271 41.2182605 102.26576233 40.22845459 C102.28247482 39.19915833 102.29918732 38.16986206 102.31640625 37.109375 C102.3475779 35.51974945 102.3475779 35.51974945 102.37937927 33.89801025 C102.44472186 30.51540562 102.50368881 27.13272388 102.5625 23.75 C102.60569975 21.45572122 102.64931451 19.16145021 102.69335938 16.8671875 C102.8003876 11.24487298 102.90218239 5.6224819 103 0 C104.13199353 0.9080162 105.25532363 1.82683826 106.375 2.75 C107.00148438 3.26046875 107.62796875 3.7709375 108.2734375 4.296875 C111.96842834 7.94170759 112.24039861 11.21033555 112.30354309 16.32096863 C112.30263168 17.14704117 112.30172028 17.97311371 112.30078125 18.82421875 C112.30506638 19.68505569 112.3093515 20.54589264 112.31376648 21.43281555 C112.31950428 23.25427371 112.32001409 25.07575478 112.31567383 26.8972168 C112.31253082 29.66040102 112.3359202 32.42249627 112.36132812 35.18554688 C112.36360312 36.96093616 112.36430368 38.7363283 112.36328125 40.51171875 C112.372491 41.32767014 112.38170074 42.14362152 112.39118958 42.98429871 C112.33909637 49.56821393 111.33152395 56.07827856 107.1328125 61.33984375 C106.47023438 61.86707031 105.80765625 62.39429688 105.125 62.9375 C104.46757812 63.48277344 103.81015625 64.02804688 103.1328125 64.58984375 C98.05975822 67.94400601 93.44611645 68.29735089 87.48120117 68.29052734 C86.21191017 68.30060318 86.21191017 68.30060318 84.91697693 68.31088257 C82.12558076 68.32984629 79.33442529 68.33378606 76.54296875 68.3359375 C74.59629722 68.34236697 72.64962666 68.34909545 70.70295715 68.35610962 C66.62348186 68.36807862 62.54409122 68.37179087 58.46459961 68.37060547 C53.24928009 68.3704024 48.03450622 68.3976939 42.81931591 68.43214989 C38.79829946 68.45444036 34.77741383 68.45844233 30.75634193 68.45738602 C28.83429396 68.45973914 26.91224223 68.46854637 24.99025536 68.48405075 C22.29544794 68.50375254 19.60181062 68.49785631 16.90698242 68.48583984 C16.12073486 68.49707886 15.3344873 68.50831787 14.52441406 68.51989746 C8.06010195 68.44703033 2.89622649 66.49925336 -2.0234375 62.25390625 C-2.46945313 61.69574219 -2.91546875 61.13757813 -3.375 60.5625 C-3.83648437 60.00691406 -4.29796875 59.45132813 -4.7734375 58.87890625 C-8.3040874 53.47049033 -8.44949967 48.19596851 -8.6953125 41.9140625 C-8.73365204 40.93891693 -8.77199158 39.96377136 -8.81149292 38.95907593 C-8.88594361 36.90000067 -8.95450731 34.84070524 -9.01757812 32.78125 C-9.08909432 30.67997414 -9.17857088 28.57923151 -9.28613281 26.47949219 C-9.4417459 23.43692226 -9.54313957 20.396707 -9.6328125 17.3515625 C-9.68970245 16.4190567 -9.74659241 15.4865509 -9.8052063 14.52578735 C-9.87002025 10.48101909 -9.8240531 8.01185257 -7.2098999 4.80194092 C-1.82145779 0 -1.82145779 0 0 0 Z " fill="#F9C229" transform="translate(36,95)"/>
<path d="M0 0 C1.13199353 0.9080162 2.25532363 1.82683826 3.375 2.75 C4.00148438 3.26046875 4.62796875 3.7709375 5.2734375 4.296875 C8.96842834 7.94170759 9.24039861 11.21033555 9.30354309 16.32096863 C9.30263168 17.14704117 9.30172028 17.97311371 9.30078125 18.82421875 C9.30506638 19.68505569 9.3093515 20.54589264 9.31376648 21.43281555 C9.31950428 23.25427371 9.32001409 25.07575478 9.31567383 26.8972168 C9.31253082 29.66040102 9.3359202 32.42249627 9.36132812 35.18554688 C9.36360312 36.96093616 9.36430368 38.7363283 9.36328125 40.51171875 C9.372491 41.32767014 9.38170074 42.14362152 9.39118958 42.98429871 C9.33909637 49.56821393 8.33152395 56.07827856 4.1328125 61.33984375 C3.47023438 61.86707031 2.80765625 62.39429688 2.125 62.9375 C1.46757812 63.48277344 0.81015625 64.02804688 0.1328125 64.58984375 C-4.94024178 67.94400601 -9.55388355 68.29735089 -15.51879883 68.29052734 C-16.78808983 68.30060318 -16.78808983 68.30060318 -18.08302307 68.31088257 C-20.87441924 68.32984629 -23.66557471 68.33378606 -26.45703125 68.3359375 C-28.40370278 68.34236697 -30.35037334 68.34909545 -32.29704285 68.35610962 C-36.37651814 68.36807862 -40.45590878 68.37179087 -44.53540039 68.37060547 C-49.75071991 68.3704024 -54.96549378 68.3976939 -60.18068409 68.43214989 C-64.20170054 68.45444036 -68.22258617 68.45844233 -72.24365807 68.45738602 C-74.16570604 68.45973914 -76.08775777 68.46854637 -78.00974464 68.48405075 C-80.70455206 68.50375254 -83.39818938 68.49785631 -86.09301758 68.48583984 C-86.87926514 68.49707886 -87.6655127 68.50831787 -88.47558594 68.51989746 C-94.93989805 68.44703033 -100.10377351 66.49925336 -105.0234375 62.25390625 C-105.46945313 61.69574219 -105.91546875 61.13757813 -106.375 60.5625 C-106.83648437 60.00691406 -107.29796875 59.45132813 -107.7734375 58.87890625 C-111.32824229 53.43348872 -111.42130737 48.16659614 -111.625 41.84375 C-111.67539429 40.37391663 -111.67539429 40.37391663 -111.72680664 38.87438965 C-111.79249916 36.80688623 -111.8526804 34.73920129 -111.90771484 32.67138672 C-111.99971819 29.50968451 -112.13427373 26.35151382 -112.26953125 23.19140625 C-112.32816247 21.17976276 -112.38423815 19.16804282 -112.4375 17.15625 C-112.48406738 16.21342163 -112.53063477 15.27059326 -112.57861328 14.29919434 C-112.68057972 7.86622553 -112.68057972 7.86622553 -110.63330078 5.26049805 C-108.97265625 3.86523438 -108.97265625 3.86523438 -106 2 C-106 2.99 -106 3.98 -106 5 C-106.66 5 -107.32 5 -108 5 C-109.32015397 8.9604619 -109.2023751 12.77864784 -109.23828125 16.91015625 C-109.246353 17.79223251 -109.25442474 18.67430878 -109.26274109 19.58311462 C-109.27657457 21.45342042 -109.28730002 23.32375138 -109.29516602 25.1940918 C-109.30664673 27.09390738 -109.32703607 28.99369171 -109.35668945 30.89331055 C-110.07349153 45.58532111 -110.07349153 45.58532111 -105 59 C-99.42864438 64.40373603 -94.0673916 65.15363 -86.61645508 65.19287109 C-85.76079956 65.20104858 -84.90514404 65.20922607 -84.02355957 65.21765137 C-81.18889054 65.24248364 -78.35427159 65.25901736 -75.51953125 65.2734375 C-74.06578881 65.28142302 -74.06578881 65.28142302 -72.58267784 65.28956985 C-67.45120408 65.31629418 -62.31975457 65.33566992 -57.18823242 65.35009766 C-52.94647621 65.36342884 -48.70520197 65.39126749 -44.46362305 65.43212891 C-39.33781268 65.48150707 -34.21243903 65.50622533 -29.08640099 65.51332474 C-27.13641278 65.52002788 -25.18643395 65.53522548 -23.2365818 65.55921555 C-20.50071469 65.5909513 -17.76652159 65.59089122 -15.03051758 65.58349609 C-14.23177719 65.59990143 -13.4330368 65.61630676 -12.61009216 65.63320923 C-6.64372643 65.56751805 -2.59042992 63.82479094 2 60 C6.35135639 54.4263452 6.5825241 47.62696426 6.49609375 40.8203125 C6.4982766 39.41844193 6.4982766 39.41844193 6.50050354 37.98825073 C6.49885504 36.03022108 6.48741263 34.07217704 6.46655273 32.11425781 C6.4373744 29.11207641 6.44600981 26.11163993 6.45898438 23.109375 C6.45275267 21.20051224 6.44436619 19.29165503 6.43359375 17.3828125 C6.43652939 16.48595734 6.43946503 15.58910217 6.44248962 14.66506958 C6.42980545 13.83345306 6.41712128 13.00183655 6.40405273 12.14501953 C6.39594826 11.04989548 6.39594826 11.04989548 6.38768005 9.93264771 C5.89746671 7.48885496 4.87601357 6.57858519 3 5 C2.98541748 6.26593994 2.97083496 7.53187988 2.95581055 8.83618164 C2.89763878 13.55342204 2.82040707 18.27019451 2.73754883 22.98706055 C2.70438816 25.02474345 2.67632888 27.06251624 2.65356445 29.1003418 C2.61985538 32.03733463 2.56753126 34.97351023 2.51171875 37.91015625 C2.50532883 38.81459976 2.4989389 39.71904327 2.49235535 40.65089417 C2.33355316 47.5533155 1.17711892 52.35215266 -3.3125 57.8125 C-8.3361642 61.901529 -13.52047112 62.30046672 -19.80615234 62.30639648 C-20.94398918 62.31888176 -20.94398918 62.31888176 -22.10481262 62.33161926 C-24.59857397 62.35560486 -27.09207324 62.36447676 -29.5859375 62.37109375 C-31.32939732 62.38006802 -33.07285639 62.38919001 -34.8163147 62.39845276 C-38.46610379 62.41491367 -42.11580146 62.42263771 -45.765625 62.42553711 C-50.42840658 62.43092127 -55.09032203 62.46861473 -59.75285912 62.51428127 C-63.35268245 62.54411014 -66.9522985 62.55126191 -70.55223465 62.55226326 C-72.27055457 62.55645315 -73.98887581 62.5688378 -75.70707321 62.58978081 C-92.24259222 62.77531288 -92.24259222 62.77531288 -99 57 C-98.67 56.34 -98.34 55.68 -98 55 C-97.401875 55.474375 -96.80375 55.94875 -96.1875 56.4375 C-92.13981986 59.3287001 -88.29101647 59.1536914 -83.51855469 59.16113281 C-82.37896553 59.16858017 -82.37896553 59.16858017 -81.21635437 59.17617798 C-78.7015187 59.19078889 -76.18674616 59.19760057 -73.671875 59.203125 C-71.92173257 59.20887829 -70.17159016 59.214636 -68.42144775 59.22039795 C-64.74954942 59.23090555 -61.07767297 59.23674948 -57.40576172 59.24023438 C-52.7105291 59.24571199 -48.01558751 59.2697253 -43.32044601 59.29820633 C-39.70352344 59.31687252 -36.08667034 59.32204047 -32.46970367 59.32357025 C-30.73941714 59.32658942 -29.00913162 59.33459303 -27.27889252 59.34775543 C-24.85204757 59.36489596 -22.42590511 59.36291619 -19.99902344 59.35644531 C-19.29019516 59.3656601 -18.58136688 59.37487488 -17.85105896 59.3843689 C-12.79308621 59.34232651 -9.42494559 58.26952499 -5 56 C-1.31225283 52.18932792 -0.88935782 48.27942432 -0.79467773 43.13964844 C-0.77473251 42.17895447 -0.75478729 41.2182605 -0.73423767 40.22845459 C-0.71752518 39.19915833 -0.70081268 38.16986206 -0.68359375 37.109375 C-0.6524221 35.51974945 -0.6524221 35.51974945 -0.62062073 33.89801025 C-0.55527814 30.51540562 -0.49631119 27.13272388 -0.4375 23.75 C-0.39430025 21.45572122 -0.35068549 19.16145021 -0.30664062 16.8671875 C-0.1996124 11.24487298 -0.09781761 5.6224819 0 0 Z " fill="#F3C442" transform="translate(139,95)"/>
<path d="M0 0 C2.45849609 1.40966797 2.45849609 1.40966797 5 4 C5.77114585 7.13749271 5.70071817 10.22723634 5.6640625 13.4453125 C5.66884613 14.37036591 5.67362976 15.29541931 5.67855835 16.24850464 C5.6819591 18.20702818 5.67274437 20.16560834 5.65185547 22.12402344 C5.62527365 25.09442065 5.65150136 28.06097599 5.68359375 31.03125 C5.72894713 51.10499643 5.72894713 51.10499643 0 57 C-5.62614491 61.57094221 -10.16880581 62.71537678 -17.3125 62.48828125 C-18.16682617 62.48120651 -19.02115234 62.47413177 -19.90136719 62.46684265 C-22.60184255 62.43908893 -25.30016274 62.37639149 -28 62.3125 C-29.84241775 62.28739232 -31.68486834 62.2645835 -33.52734375 62.24414062 C-38.01904619 62.18932539 -42.50915908 62.10319028 -47 62 C-47 61.34 -47 60.68 -47 60 C-62.18 59.67 -77.36 59.34 -93 59 C-93 58.67 -93 58.34 -93 58 C-92.02582626 57.99413376 -91.05165253 57.98826752 -90.04795837 57.98222351 C-80.85238818 57.92492803 -71.65705293 57.85213081 -62.46172237 57.76428509 C-57.73467156 57.71962091 -53.00770615 57.68035608 -48.28051758 57.65356445 C-43.71567357 57.62749203 -39.15115889 57.58706181 -34.58651924 57.53681374 C-32.84791737 57.52017163 -31.10925857 57.50864084 -29.3705883 57.50238609 C-26.92892071 57.49271593 -24.48809062 57.46462289 -22.04663086 57.43237305 C-21.33308945 57.43380814 -20.61954803 57.43524323 -19.88438416 57.4367218 C-13.92695698 57.32595423 -9.40315437 55.88355342 -4.6875 52.1875 C-0.44271554 46.68500163 -0.66824358 40.42614742 -0.5859375 33.7890625 C-0.56657135 32.82092621 -0.5472052 31.85278992 -0.5272522 30.85531616 C-0.4677167 27.7786323 -0.4211753 24.70191049 -0.375 21.625 C-0.33679627 19.53253623 -0.29774315 17.44008778 -0.2578125 15.34765625 C-0.16203655 10.23189604 -0.07790958 5.11606224 0 0 Z " fill="#F4AD19" transform="translate(141,99)"/>
<path d="M0 0 C7.59 0 15.18 0 23 0 C23.33 6.93 23.66 13.86 24 21 C11.07042254 21 11.07042254 21 6 17 C0.99204361 11.48128189 0.87083457 7.83751116 0 0 Z " fill="#FBBB28" transform="translate(61,113)"/>
<path d="M0 0 C6.40424533 0.44976379 11.12150011 1.74254697 15.99609375 6.0546875 C19.50478797 10.92158594 19.66223594 16.22944437 19.99609375 22.0546875 C12.28019558 22.2114439 4.68092914 21.72921851 -3.00390625 21.0546875 C-3.03278771 17.74220563 -3.05066424 14.42975583 -3.06640625 11.1171875 C-3.07478516 10.17166016 -3.08316406 9.22613281 -3.09179688 8.25195312 C-3.09501953 7.35283203 -3.09824219 6.45371094 -3.1015625 5.52734375 C-3.10679932 4.69468994 -3.11203613 3.86203613 -3.11743164 3.00415039 C-2.96107867 0.31925053 -2.69239348 0.07347663 0 0 Z " fill="#F8B324" transform="translate(93.00390625,84.9453125)"/>
<path d="M0 0 C-0.08772455 1.89666526 -0.19591301 3.79238993 -0.3125 5.6875 C-0.37050781 6.74324219 -0.42851563 7.79898438 -0.48828125 8.88671875 C-1.29084212 13.76947461 -3.0397359 16.26447856 -6.9375 19.25 C-12.65742788 22.51853022 -16.0061451 22 -23 22 C-22.67 15.07 -22.34 8.14 -22 1 C-20.205625 1.020625 -18.41125 1.04125 -16.5625 1.0625 C-11.00530505 1.06908435 -5.50064668 0 0 0 Z " fill="#F9B423" transform="translate(113,112)"/>
<path d="M0 0 C0 6.6 0 13.2 0 20 C-10.89 20.495 -10.89 20.495 -22 21 C-22 14.21865867 -21.52878841 10.57915476 -18 5 C-11.71693933 -0.12902912 -8.49015453 0 0 0 Z " fill="#FBBF29" transform="translate(84,86)"/>
<path d="M0 0 C2.62397692 0.7188548 3.79089012 1.4632362 5.77577209 3.29577637 C6.46671967 3.93265381 7.15766724 4.56953125 7.86955261 5.22570801 C13.74662853 10.87591607 19.57200757 16.57534308 25.36341858 22.31335449 C26.0719504 23.01531448 26.78048222 23.71727448 27.5104847 24.44050598 C31.24981675 28.14743692 34.9851984 31.85830496 38.71815491 35.57165527 C41.8012628 38.63686852 44.89268727 41.69331364 47.99159241 44.74255371 C51.74883766 48.43968298 55.49121624 52.15125673 59.22337532 55.873703 C60.64363991 57.28541182 62.06903128 58.69198248 63.49963188 60.09321594 C65.49581756 62.05056005 67.47230989 64.02593492 69.44520569 66.00671387 C70.33265724 66.86416451 70.33265724 66.86416451 71.23803711 67.73893738 C74.93646496 71.50415704 76.31463362 74.16735478 76.39857483 79.65710449 C74.93618454 82.87436313 73.11685621 85.39187001 70.39857483 87.65710449 C67.64778599 88.57403411 66.0390857 88.76596533 63.21107483 88.71960449 C61.95294983 88.69897949 60.69482483 88.67835449 59.39857483 88.65710449 C59.72857483 87.99710449 60.05857483 87.33710449 60.39857483 86.65710449 C62.90370106 86.09143083 65.40947268 85.76348292 67.95326233 85.41491699 C70.99620907 84.47189516 71.8212705 83.37694336 73.39857483 80.65710449 C74.23458153 77.83079331 74.23458153 77.83079331 73.39857483 74.65710449 C67.64369669 66.43019139 59.34502516 59.45846261 52.25794983 52.38366699 C50.88494011 51.00998269 49.51207879 49.63615005 48.13935852 48.26217651 C45.27653838 45.39788917 42.41193504 42.53540072 39.54603577 39.67419434 C35.87178439 36.00566672 32.20207723 32.33263123 28.53367233 28.65825844 C25.70624642 25.82722348 22.87644874 22.99856894 20.04592133 20.17063522 C18.69118594 18.81656675 17.33719255 17.4617555 15.98395538 16.10618973 C14.09820167 14.21790095 12.20928018 12.33283953 10.31947327 10.4486084 C9.76151062 9.88862152 9.20354797 9.32863464 8.62867737 8.75167847 C4.64945184 4.44636888 4.64945184 4.44636888 -0.61705017 2.43444824 C-6.4032786 2.84919538 -9.03587399 4.37261731 -12.84751892 8.68835449 C-15.22009425 11.35155709 -17.896808 13.57641353 -20.60923767 15.88366699 C-23.04027546 18.0477673 -25.30585283 20.34974846 -27.60142517 22.65710449 C-42.26809184 37.32377116 -56.9347585 51.99043783 -71.60142517 66.65710449 C-72.26142517 66.32710449 -72.92142517 65.99710449 -73.60142517 65.65710449 C-66.18032016 58.21275186 -58.75645877 50.77115997 -51.32913971 43.33300686 C-47.87982427 39.87848965 -44.43143826 36.42305553 -40.98521423 32.9654541 C-37.65469851 29.62401285 -34.32169211 26.28507424 -30.98699951 22.94780159 C-29.71998476 21.67894992 -28.45384524 20.40922361 -27.18862915 19.13857841 C-16.16604653 8.0706148 -16.16604653 8.0706148 -11.0721283 3.37609863 C-10.50917053 2.85721573 -9.94621277 2.33833282 -9.36619568 1.8037262 C-6.32357643 -0.17315026 -3.55561569 -0.29781856 0 0 Z " fill="#F1F1F0" transform="translate(89.60142517089844,9.3428955078125)"/>
<path d="M0 0 C0.99 0.99 1.98 1.98 3 3 C2.34 3 1.68 3 1 3 C1.00444122 3.56296783 1.00888245 4.12593567 1.01345825 4.70596313 C1.05779093 10.57852636 1.08790766 16.45104184 1.10986328 22.32373047 C1.11990526 24.51385429 1.13354147 26.70396475 1.15087891 28.89404297 C1.17520627 32.04658306 1.18650131 35.19894548 1.1953125 38.3515625 C1.20563507 39.32678864 1.21595764 40.30201477 1.22659302 41.30679321 C1.22764034 47.68869 0.93910272 52.62998556 -3.25 57.75 C-8.30322757 61.88445892 -13.46761569 62.30041686 -19.80615234 62.30639648 C-20.94398918 62.31888176 -20.94398918 62.31888176 -22.10481262 62.33161926 C-24.59857397 62.35560486 -27.09207324 62.36447676 -29.5859375 62.37109375 C-31.32939732 62.38006802 -33.07285639 62.38919001 -34.8163147 62.39845276 C-38.46610379 62.41491367 -42.11580146 62.42263771 -45.765625 62.42553711 C-50.42840658 62.43092127 -55.09032203 62.46861473 -59.75285912 62.51428127 C-63.35268245 62.54411014 -66.9522985 62.55126191 -70.55223465 62.55226326 C-72.27055457 62.55645315 -73.98887581 62.5688378 -75.70707321 62.58978081 C-92.24259222 62.77531288 -92.24259222 62.77531288 -99 57 C-98.67 56.34 -98.34 55.68 -98 55 C-97.401875 55.474375 -96.80375 55.94875 -96.1875 56.4375 C-92.13981986 59.3287001 -88.29101647 59.1536914 -83.51855469 59.16113281 C-82.37896553 59.16858017 -82.37896553 59.16858017 -81.21635437 59.17617798 C-78.7015187 59.19078889 -76.18674616 59.19760057 -73.671875 59.203125 C-71.92173257 59.20887829 -70.17159016 59.214636 -68.42144775 59.22039795 C-64.74954942 59.23090555 -61.07767297 59.23674948 -57.40576172 59.24023438 C-52.7105291 59.24571199 -48.01558751 59.2697253 -43.32044601 59.29820633 C-39.70352344 59.31687252 -36.08667034 59.32204047 -32.46970367 59.32357025 C-30.73941714 59.32658942 -29.00913162 59.33459303 -27.27889252 59.34775543 C-24.85204757 59.36489596 -22.42590511 59.36291619 -19.99902344 59.35644531 C-19.29019516 59.3656601 -18.58136688 59.37487488 -17.85105896 59.3843689 C-12.79308621 59.34232651 -9.42494559 58.26952499 -5 56 C-1.31225283 52.18932792 -0.88935782 48.27942432 -0.79467773 43.13964844 C-0.77473251 42.17895447 -0.75478729 41.2182605 -0.73423767 40.22845459 C-0.71752518 39.19915833 -0.70081268 38.16986206 -0.68359375 37.109375 C-0.6524221 35.51974945 -0.6524221 35.51974945 -0.62062073 33.89801025 C-0.55527814 30.51540562 -0.49631119 27.13272388 -0.4375 23.75 C-0.39430025 21.45572122 -0.35068549 19.16145021 -0.30664062 16.8671875 C-0.1996124 11.24487298 -0.09781761 5.6224819 0 0 Z " fill="#E7BE56" transform="translate(139,95)"/>
<path d="M0 0 C0 0.99 0 1.98 0 3 C-0.66 3 -1.32 3 -2 3 C-3.32015397 6.9604619 -3.2023751 10.77864784 -3.23828125 14.91015625 C-3.246353 15.79223251 -3.25442474 16.67430878 -3.26274109 17.58311462 C-3.27657457 19.45342042 -3.28730002 21.32375138 -3.29516602 23.1940918 C-3.30664673 25.09390738 -3.32703607 26.99369171 -3.35668945 28.89331055 C-4.06492807 43.58040755 -4.06492807 43.58040755 1 57 C6.85142527 62.60173399 13.00139498 64.2954712 21.00317383 64.31884766 C21.79394318 64.32889328 22.58471252 64.3389389 23.39944458 64.34928894 C26.00196637 64.38007317 28.60438551 64.39714274 31.20703125 64.4140625 C33.01593404 64.43277799 34.82482814 64.45235169 36.63371277 64.4727478 C41.38637156 64.5240348 46.13905865 64.56367891 50.8918457 64.60089111 C55.74502543 64.64095226 60.5980878 64.69203498 65.45117188 64.7421875 C74.96736544 64.83890616 84.48362532 64.92332396 94 65 C94 65.33 94 65.66 94 66 C83.3163847 66.09284791 72.63286605 66.16384004 61.94892883 66.20724869 C56.98745429 66.22808703 52.02625663 66.25633595 47.06494141 66.30175781 C42.27330824 66.34534963 37.48194073 66.36916532 32.69012451 66.37950897 C30.86574118 66.38687645 29.04137171 66.40126339 27.21710205 66.42292023 C24.65353441 66.45213201 22.09105213 66.45594867 19.52734375 66.45410156 C18.40632011 66.47567322 18.40632011 66.47567322 17.26264954 66.49768066 C10.92004685 66.44851634 5.79408328 64.41111048 0.9765625 60.25390625 C0.53054687 59.69574219 0.08453125 59.13757813 -0.375 58.5625 C-0.83648437 58.00691406 -1.29796875 57.45132813 -1.7734375 56.87890625 C-5.32824229 51.43348872 -5.42130737 46.16659614 -5.625 39.84375 C-5.67539429 38.37391663 -5.67539429 38.37391663 -5.72680664 36.87438965 C-5.79249916 34.80688623 -5.8526804 32.73920129 -5.90771484 30.67138672 C-5.99971819 27.50968451 -6.13427373 24.35151382 -6.26953125 21.19140625 C-6.32816247 19.17976276 -6.38423815 17.16804282 -6.4375 15.15625 C-6.48406738 14.21342163 -6.53063477 13.27059326 -6.57861328 12.29919434 C-6.68057972 5.86622553 -6.68057972 5.86622553 -4.63330078 3.26049805 C-2.97265625 1.86523438 -2.97265625 1.86523438 0 0 Z " fill="#F6DE6F" transform="translate(33,97)"/>
<path d="M0 0 C7.59 0 15.18 0 23 0 C23.33 6.93 23.66 13.86 24 21 C11.07042254 21 11.07042254 21 6 17 C0.99204361 11.48128189 0.87083457 7.83751116 0 0 Z M3 2 C1.43848587 8.3212937 1.43848587 8.3212937 3.00390625 11.109375 C8.76760092 17.17642202 13.72109521 19.28630131 22 20 C21.83628906 19.31550781 21.67257813 18.63101563 21.50390625 17.92578125 C20.595685 12.65246562 20.9460773 7.33834708 21 2 C15.06 2 9.12 2 3 2 Z " fill="#ECCB46" transform="translate(61,113)"/>
<path d="M0 0 C6.30673642 0.44291584 11.30330789 1.60948267 15.99609375 6.0546875 C17.43417368 8.39338315 18.16516472 10.40610123 18.99609375 13.0546875 C18.00609375 13.5496875 18.00609375 13.5496875 16.99609375 14.0546875 C16.60421875 12.9615625 16.21234375 11.8684375 15.80859375 10.7421875 C14.18565655 7.04963313 12.84023947 5.60870386 8.99609375 4.0546875 C5.67157896 3.24905355 2.37130895 2.6397248 -1.00390625 2.0546875 C-0.34390625 7.3346875 0.31609375 12.6146875 0.99609375 18.0546875 C6.60609375 18.7146875 12.21609375 19.3746875 17.99609375 20.0546875 C17.99609375 18.4046875 17.99609375 16.7546875 17.99609375 15.0546875 C19.99609375 17.0546875 19.99609375 17.0546875 20.12109375 19.6796875 C20.07984375 20.4634375 20.03859375 21.2471875 19.99609375 22.0546875 C12.28019558 22.2114439 4.68092914 21.72921851 -3.00390625 21.0546875 C-3.03278771 17.74220563 -3.05066424 14.42975583 -3.06640625 11.1171875 C-3.07478516 10.17166016 -3.08316406 9.22613281 -3.09179688 8.25195312 C-3.09501953 7.35283203 -3.09824219 6.45371094 -3.1015625 5.52734375 C-3.10679932 4.69468994 -3.11203613 3.86203613 -3.11743164 3.00415039 C-2.96107867 0.31925053 -2.69239348 0.07347663 0 0 Z " fill="#EFC953" transform="translate(93.00390625,84.9453125)"/>
<path d="M0 0 C1.74295072 1.70145189 3.22695196 3.46976493 4.703125 5.40625 C5.92891994 7.13591647 5.92891994 7.13591647 8 8 C8 8.66 8 9.32 8 10 C8.58345688 10.2578125 9.16691376 10.515625 9.76805115 10.78125 C12.18942777 12.10343655 13.77472917 13.54031581 15.71118164 15.5 C16.42194351 16.21414062 17.13270538 16.92828125 17.86500549 17.6640625 C19.00110512 18.82035156 19.00110512 18.82035156 20.16015625 20 C20.94643906 20.79148437 21.73272186 21.58296875 22.54283142 22.3984375 C25.05417784 24.9275951 27.55874156 27.46333213 30.0625 30 C32.57068091 32.53579611 35.08029979 35.07012541 37.59288025 37.6015625 C39.15600396 39.17694376 40.71644676 40.7549905 42.27394104 42.3359375 C42.98155075 43.05007812 43.68916046 43.76421875 44.41821289 44.5 C45.03902237 45.1290625 45.65983185 45.758125 46.29945374 46.40625 C48.11526115 48.19545917 48.11526115 48.19545917 51 50 C50.505 50.99 50.505 50.99 50 52 C41.02429306 44.22283754 32.72597761 35.80889512 24.375 27.375 C21.65665547 24.62980446 18.93483134 21.88812568 16.2109375 19.1484375 C15.302798 18.22785049 15.302798 18.22785049 14.37631226 17.28866577 C10.63508467 13.52641249 6.76588461 9.9750779 2.7406311 6.51797485 C0.73262782 4.76682926 -1.15511164 2.92175871 -3 1 C-5.9719385 2.12451727 -8.33440687 3.22293791 -11 5 C-11.33 4.01 -11.66 3.02 -12 2 C-7.59625198 -0.62127859 -4.92156326 -1.84558622 0 0 Z " fill="#F4F4F4" transform="translate(91,38)"/>
<path d="M0 0 C13.53 0 27.06 0 41 0 C40.67 0.99 40.34 1.98 40 3 C26.47 3 12.94 3 -1 3 C-0.67 2.01 -0.34 1.02 0 0 Z " fill="#FBBB26" transform="translate(54,158)"/>
<path d="M0 0 C-0.08772455 1.89666526 -0.19591301 3.79238993 -0.3125 5.6875 C-0.37050781 6.74324219 -0.42851563 7.79898438 -0.48828125 8.88671875 C-1.29084212 13.76947461 -3.0397359 16.26447856 -6.9375 19.25 C-12.65742788 22.51853022 -16.0061451 22 -23 22 C-22.67 15.07 -22.34 8.14 -22 1 C-20.205625 1.020625 -18.41125 1.04125 -16.5625 1.0625 C-11.00530505 1.06908435 -5.50064668 0 0 0 Z M-20 3 C-20.33 8.94 -20.66 14.88 -21 21 C-14.73309512 21 -11.26715261 20.14580431 -6 17 C-2.30740681 12.9612262 -2.39253138 8.25992051 -2 3 C-7.94 3 -13.88 3 -20 3 Z " fill="#EDC85B" transform="translate(113,112)"/>
<path d="M0 0 C0.33 0 0.66 0 1 0 C1.00586624 0.58580338 1.01173248 1.17160675 1.01777649 1.77516174 C1.08188396 7.89151769 1.16634801 14.0073559 1.26245117 20.12329102 C1.29563367 22.40349486 1.32368624 24.68377953 1.34643555 26.96411133 C1.38010382 30.24855882 1.43242726 33.53227014 1.48828125 36.81640625 C1.49786613 38.33712486 1.49786613 38.33712486 1.50764465 39.88856506 C1.62703336 45.68163551 2.30068729 49.84962336 5 55 C3.02 54.67 1.04 54.34 -1 54 C-1.02526648 46.47030348 -1.04283141 38.9406178 -1.05493164 31.41088867 C-1.0599737 28.84708243 -1.06680714 26.28327909 -1.07543945 23.71948242 C-1.08751064 20.04344979 -1.09322942 16.36745502 -1.09765625 12.69140625 C-1.10281754 11.53725723 -1.10797882 10.38310822 -1.11329651 9.19398499 C-1.11337204 8.13296066 -1.11344757 7.07193634 -1.11352539 5.97875977 C-1.115746 5.03944107 -1.11796661 4.10012238 -1.12025452 3.13233948 C-1 1 -1 1 0 0 Z " fill="#ECCE41" transform="translate(35,95)"/>
<path d="M0 0 C0 6.6 0 13.2 0 20 C-10.89 20.495 -10.89 20.495 -22 21 C-22 14.21865867 -21.52878841 10.57915476 -18 5 C-11.71693933 -0.12902912 -8.49015453 0 0 0 Z M-16 5 C-18.75894266 8.01922026 -19.42092205 10.19801515 -19.6875 14.25 C-19.790625 15.8175 -19.89375 17.385 -20 19 C-13.73 19 -7.46 19 -1 19 C-1 13.06 -1 7.12 -1 1 C-9.61764548 0.91064365 -9.61764548 0.91064365 -16 5 Z " fill="#EDCF57" transform="translate(84,86)"/>
<path d="M0 0 C0.66 0.33 1.32 0.66 2 1 C2.08834684 4.31232698 2.14083584 7.62434435 2.1875 10.9375 C2.21263672 11.86369141 2.23777344 12.78988281 2.26367188 13.74414062 C2.32683708 19.74483536 2.005741 25.65101103 -1 31 C-1.99 31.33 -2.98 31.66 -4 32 C-3.79141357 31.49025635 -3.58282715 30.9805127 -3.36791992 30.45532227 C-0.92153608 23.92704671 -0.46550444 17.86641538 -0.3125 10.9375 C-0.27833984 9.88111328 -0.24417969 8.82472656 -0.20898438 7.73632812 C-0.12730705 5.15765843 -0.05790057 2.57929438 0 0 Z " fill="#F1CB38" transform="translate(146,123)"/>
<path d="M0 0 C0.680625 0.7425 1.36125 1.485 2.0625 2.25 C7.32151726 7.4646997 12.91490422 9.50840089 20 11 C20.33 10.34 20.66 9.68 21 9 C21.33 9.99 21.66 10.98 22 12 C15.15736932 12.50478423 9.62518198 12.25128961 4 8 C1.84840744 5.61744552 0 3.33313957 0 0 Z " fill="#F3D759" transform="translate(63,122)"/>
<path d="M0 0 C3.63 0 7.26 0 11 0 C11 0.66 11 1.32 11 2 C13.31 2 15.62 2 18 2 C18 2.33 18 2.66 18 3 C12.84828377 3.09038099 8.08086796 2.84681133 3 2 C3 3.98 3 5.96 3 8 C2.01 8.495 2.01 8.495 1 9 C0.67 6.03 0.34 3.06 0 0 Z " fill="#F4D649" transform="translate(61,113)"/>
<path d="M0 0 C2.25514902 2.15313038 4.10665027 4.53066135 6 7 C6.66 7.66 7.32 8.32 8 9 C5 9 5 9 2.95703125 7.25 C2.24933594 6.5075 1.54164062 5.765 0.8125 5 C0.09707031 4.2575 -0.61835937 3.515 -1.35546875 2.75 C-1.89816406 2.1725 -2.44085938 1.595 -3 1 C-5.9719385 2.12451727 -8.33440687 3.22293791 -11 5 C-11.33 4.01 -11.66 3.02 -12 2 C-7.59625198 -0.62127859 -4.92156326 -1.84558622 0 0 Z " fill="#ECECEC" transform="translate(91,38)"/>
<path d="M0 0 C1.2065625 0.0309375 1.2065625 0.0309375 2.4375 0.0625 C2.32387738 1.5425841 2.19627092 3.02160074 2.0625 4.5 C1.99289063 5.32371094 1.92328125 6.14742188 1.8515625 6.99609375 C1.71492188 7.67800781 1.57828125 8.35992187 1.4375 9.0625 C0.4475 9.5575 0.4475 9.5575 -0.5625 10.0625 C-0.2325 7.7525 0.0975 5.4425 0.4375 3.0625 C-0.8825 2.4025 -2.2025 1.7425 -3.5625 1.0625 C-2.5625 0.0625 -2.5625 0.0625 0 0 Z " fill="#F3B319" transform="translate(108.5625,114.9375)"/>
<path d="M0 0 C3.91841827 1.30613942 6.32640809 2.83129848 9 6 C9 6.66 9 7.32 9 8 C5.56247993 6.4722133 2.81046312 4.49818944 0 2 C0 1.34 0 0.68 0 0 Z " fill="#CEBF7F" transform="translate(141,91)"/>
<path d="M0 0 C1.32 0 2.64 0 4 0 C3.67 1.65 3.34 3.3 3 5 C2.01 5 1.02 5 0 5 C0 3.35 0 1.7 0 0 Z " fill="#FDA61F" transform="translate(140,147)"/>
<path d="M0 0 C0.33 0.99 0.66 1.98 1 3 C1.99 2.67 2.98 2.34 4 2 C4.66 3.32 5.32 4.64 6 6 C4.02 6 2.04 6 0 6 C0 4.02 0 2.04 0 0 Z " fill="#FABF2E" transform="translate(92,127)"/>
<path d="M0 0 C1.54571278 2.31856917 2.79618552 4.50638429 4 7 C1.03 6.505 1.03 6.505 -2 6 C-1.34 4.02 -0.68 2.04 0 0 Z " fill="#F2D04E" transform="translate(36,143)"/>
<path d="M0 0 C1 4 1 4 1 4 Z " fill="#A9A387" transform="translate(86,85)"/>
<path d="" fill="#000000" transform="translate(0,0)"/>
<path d="" fill="#FFFFFF" transform="translate(0,0)"/>
<path d="" fill="#000000" transform="translate(0,0)"/>
<path d="" fill="#000000" transform="translate(0,0)"/>
<path d="" fill="#000000" transform="translate(0,0)"/>
<path d="" fill="#000000" transform="translate(0,0)"/>
<path d="" fill="#000000" transform="translate(0,0)"/>
<path d="" fill="#000000" transform="translate(0,0)"/>
<path d="" fill="#000000" transform="translate(0,0)"/>
<path d="" fill="#000000" transform="translate(0,0)"/>
<path d="" fill="#000000" transform="translate(0,0)"/>
<path d="" fill="#000000" transform="translate(0,0)"/>
<path d="" fill="#000000" transform="translate(0,0)"/>
<path d="" fill="#000000" transform="translate(0,0)"/>
</svg>
