<?xml version="1.0" encoding="UTF-8"?>
<svg version="1.1" xmlns="http://www.w3.org/2000/svg" width="184" height="186">
<path d="M0 0 C4.70439189 2.82263514 4.70439189 2.82263514 6.8125 4.6875 C6.8125 5.3475 6.8125 6.0075 6.8125 6.6875 C7.8025 7.0175 8.7925 7.3475 9.8125 7.6875 C11.5 9.125 11.5 9.125 12.8125 10.6875 C12.8125 11.3475 12.8125 12.0075 12.8125 12.6875 C13.4725 12.6875 14.1325 12.6875 14.8125 12.6875 C14.8125 13.3475 14.8125 14.0075 14.8125 14.6875 C16.2975 15.1825 16.2975 15.1825 17.8125 15.6875 C17.8125 16.3475 17.8125 17.0075 17.8125 17.6875 C18.4725 17.6875 19.1325 17.6875 19.8125 17.6875 C21.5410095 19.31433247 23.17250356 20.97425309 24.8125 22.6875 C26.2473355 24.12765957 27.6849535 25.56505101 29.125 27 C30.35416667 28.22916667 31.58333333 29.45833333 32.8125 30.6875 C32.84988281 29.92824219 32.88726562 29.16898438 32.92578125 28.38671875 C32.99152344 27.39285156 33.05726563 26.39898437 33.125 25.375 C33.18300781 24.38886719 33.24101562 23.40273438 33.30078125 22.38671875 C33.88192306 19.32130663 34.40370324 18.57492397 36.8125 16.6875 C38.77368164 16.31518555 38.77368164 16.31518555 40.97265625 16.32421875 C42.1627832 16.32518555 42.1627832 16.32518555 43.37695312 16.32617188 C44.20130859 16.34228516 45.02566406 16.35839844 45.875 16.375 C46.70322266 16.37177734 47.53144531 16.36855469 48.38476562 16.36523438 C54.54537408 16.42037408 54.54537408 16.42037408 56.8125 18.6875 C57.09960938 21.7409668 57.09960938 21.7409668 57.15625 25.63671875 C57.1708728 26.32756058 57.18549561 27.0184024 57.20056152 27.73017883 C57.24711473 29.9450599 57.28124318 32.15985346 57.3125 34.375 C57.35391574 37.27505768 57.40779504 40.17451337 57.46875 43.07421875 C57.48744141 44.36545654 57.50613281 45.65669434 57.52539062 46.98706055 C58.01876952 53.34602644 59.07942539 57.66073486 63.875 61.9921875 C64.67164063 62.74113281 65.46828125 63.49007812 66.2890625 64.26171875 C67.96746994 65.79203142 69.64975456 67.3181028 71.3359375 68.83984375 C75.90786615 73.1528444 78.75106013 76.32402192 79.77685547 82.62451172 C79.84356069 86.48519045 78.98655633 89.50257671 76.8125 92.6875 C73.6316347 95.88388171 70.50048441 97.57164657 65.96679688 97.8828125 C64.51370117 97.84800781 64.51370117 97.84800781 63.03125 97.8125 C62.05091797 97.79445313 61.07058594 97.77640625 60.06054688 97.7578125 C59.31869141 97.73460938 58.57683594 97.71140625 57.8125 97.6875 C57.82249275 98.67562683 57.82249275 98.67562683 57.83268738 99.68371582 C57.89924266 106.56220604 57.94438443 113.44060421 57.97729492 120.31933594 C57.99234779 122.88382688 58.01279461 125.44829223 58.03881836 128.01269531 C58.07535467 131.70644463 58.09226194 135.39985246 58.10546875 139.09375 C58.12095261 140.2336438 58.13643646 141.3735376 58.15238953 142.54797363 C58.15387853 149.64836084 57.83758072 155.97424926 53.1640625 161.7109375 C52.30941406 162.37996094 52.30941406 162.37996094 51.4375 163.0625 C50.59058594 163.75472656 50.59058594 163.75472656 49.7265625 164.4609375 C44.30535761 167.9349341 39.45019819 167.98929789 33.19213867 167.99389648 C31.7472834 168.00638176 31.7472834 168.00638176 30.27323914 168.01911926 C27.09227442 168.04319351 23.91151488 168.05198839 20.73046875 168.05859375 C18.51475463 168.06756216 16.29904113 168.07668404 14.08332825 168.08595276 C9.43891936 168.10243841 4.79458253 168.11014209 0.15014648 168.11303711 C-5.79164872 168.11841981 -11.73276374 168.1560978 -17.67436695 168.20178127 C-22.25126092 168.23157131 -26.8279915 168.2387611 -31.40497398 168.23976326 C-33.59497886 168.2439618 -35.78498439 168.25638127 -37.97489357 168.27728081 C-41.04341818 168.30423401 -44.11037126 168.29935738 -47.17895508 168.28686523 C-48.52663971 168.30911667 -48.52663971 168.30911667 -49.90155029 168.33181763 C-56.13606863 168.25979616 -60.38710878 166.73000348 -65.1875 162.6875 C-68.97291402 157.83440511 -70.31470144 154.29213955 -70.30102539 148.20629883 C-70.30094986 147.08536331 -70.30087433 145.9644278 -70.30079651 144.80952454 C-70.29305458 142.99535286 -70.29305458 142.99535286 -70.28515625 141.14453125 C-70.2837413 139.90579758 -70.28232635 138.6670639 -70.28086853 137.39079285 C-70.27621602 134.10118463 -70.2672339 130.8116254 -70.25616455 127.52203369 C-70.24592629 124.16378377 -70.24136574 120.80552667 -70.23632812 117.44726562 C-70.22529145 110.86065788 -70.20854767 104.27408295 -70.1875 97.6875 C-71.01314453 97.70127686 -71.83878906 97.71505371 -72.68945312 97.72924805 C-73.77162109 97.73996338 -74.85378906 97.75067871 -75.96875 97.76171875 C-77.5784668 97.78238403 -77.5784668 97.78238403 -79.22070312 97.8034668 C-84.21604996 97.6082076 -86.9072662 95.86393106 -90.5 92.5625 C-92.84465418 88.56790399 -93.53591994 85.29886402 -93.1875 80.6875 C-90.44779342 74.33888305 -85.39562739 69.46765671 -80.55078125 64.6875 C-79.83012985 63.9663501 -79.10947845 63.2452002 -78.36698914 62.50219727 C-76.855273 60.99280651 -75.33989992 59.4870702 -73.82104492 57.98486328 C-71.48756137 55.67518828 -69.16790874 53.35224935 -66.84960938 51.02734375 C-65.37579385 49.55909854 -63.90121179 48.09162228 -62.42578125 46.625 C-61.38204094 45.57989258 -61.38204094 45.57989258 -60.31721497 44.51367188 C-59.67281967 43.87880859 -59.02842438 43.24394531 -58.36450195 42.58984375 C-57.79778275 42.02773193 -57.23106354 41.46562012 -56.64717102 40.88647461 C-55.1875 39.6875 -55.1875 39.6875 -53.1875 39.6875 C-52.5275 38.3675 -51.8675 37.0475 -51.1875 35.6875 C-50.5275 35.6875 -49.8675 35.6875 -49.1875 35.6875 C-48.8575 34.6975 -48.5275 33.7075 -48.1875 32.6875 C-46.69921875 31.2578125 -46.69921875 31.2578125 -44.875 29.8125 C-42.70134669 28.02165608 -41.01410488 26.46935776 -39.25 24.25 C-37.50041691 22.07627555 -35.92131422 20.5333524 -33.8125 18.75 C-30.98123353 16.35062164 -28.32489492 13.84526825 -25.73046875 11.1953125 C-25.11671387 10.56874756 -24.50295898 9.94218262 -23.87060547 9.29663086 C-22.64045417 8.03292414 -21.41660598 6.76304546 -20.19970703 5.48657227 C-14.28835434 -0.57633234 -8.45559417 -3.48171525 0 0 Z " fill="#F6AD09" transform="translate(98.1875,9.3125)"/>
<path d="M0 0 C4.70439189 2.82263514 4.70439189 2.82263514 6.8125 4.6875 C6.8125 5.3475 6.8125 6.0075 6.8125 6.6875 C7.8025 7.0175 8.7925 7.3475 9.8125 7.6875 C11.5 9.125 11.5 9.125 12.8125 10.6875 C12.8125 11.3475 12.8125 12.0075 12.8125 12.6875 C13.4725 12.6875 14.1325 12.6875 14.8125 12.6875 C14.8125 13.3475 14.8125 14.0075 14.8125 14.6875 C16.2975 15.1825 16.2975 15.1825 17.8125 15.6875 C17.8125 16.3475 17.8125 17.0075 17.8125 17.6875 C18.4725 17.6875 19.1325 17.6875 19.8125 17.6875 C21.5410095 19.31433247 23.17250356 20.97425309 24.8125 22.6875 C26.2473355 24.12765957 27.6849535 25.56505101 29.125 27 C30.35416667 28.22916667 31.58333333 29.45833333 32.8125 30.6875 C32.84988281 29.92824219 32.88726562 29.16898438 32.92578125 28.38671875 C32.99152344 27.39285156 33.05726563 26.39898437 33.125 25.375 C33.18300781 24.38886719 33.24101562 23.40273438 33.30078125 22.38671875 C33.88192306 19.32130663 34.40370324 18.57492397 36.8125 16.6875 C38.77368164 16.31518555 38.77368164 16.31518555 40.97265625 16.32421875 C42.1627832 16.32518555 42.1627832 16.32518555 43.37695312 16.32617188 C44.20130859 16.34228516 45.02566406 16.35839844 45.875 16.375 C46.70322266 16.37177734 47.53144531 16.36855469 48.38476562 16.36523438 C54.54537408 16.42037408 54.54537408 16.42037408 56.8125 18.6875 C57.09960938 21.7409668 57.09960938 21.7409668 57.15625 25.63671875 C57.1708728 26.32756058 57.18549561 27.0184024 57.20056152 27.73017883 C57.24711473 29.9450599 57.28124318 32.15985346 57.3125 34.375 C57.35391574 37.27505768 57.40779504 40.17451337 57.46875 43.07421875 C57.48744141 44.36545654 57.50613281 45.65669434 57.52539062 46.98706055 C58.01876952 53.34602644 59.07942539 57.66073486 63.875 61.9921875 C64.67164063 62.74113281 65.46828125 63.49007812 66.2890625 64.26171875 C67.96746994 65.79203142 69.64975456 67.3181028 71.3359375 68.83984375 C75.90786615 73.1528444 78.75106013 76.32402192 79.77685547 82.62451172 C79.84351657 86.48263724 78.99036993 89.50711851 76.8125 92.6875 C73.12812662 96.3103206 69.05724999 98.0303685 63.9375 98.5625 C59.61817529 98.21329818 57.60420998 97.05737391 54.46875 94.109375 C53.60008301 93.29388184 52.73141602 92.47838867 51.83642578 91.63818359 C45.53812984 85.52884447 39.36105576 79.29735347 33.1875 73.0625 C30.46915547 70.31730446 27.74733134 67.57562568 25.0234375 64.8359375 C24.41801117 64.22221283 23.81258484 63.60848816 23.18881226 62.97616577 C19.45763124 59.22401553 15.58755092 55.70347186 11.58349609 52.24478149 C9.58480281 50.48728012 7.73527299 48.63864985 5.92578125 46.6875 C5.29736328 46.02878906 4.66894531 45.37007812 4.02148438 44.69140625 C2.73599236 43.33310058 1.46019891 41.96556232 0.19335938 40.58984375 C-3.20413445 36.83365906 -3.20413445 36.83365906 -7.83203125 35.4375 C-10.87505177 37.05236993 -12.78108508 39.22032431 -15.1875 41.6875 C-17.02345508 43.51878352 -18.85969866 45.34977392 -20.69628906 47.18041992 C-26.02251024 52.49037028 -31.34624128 57.80280971 -36.66852188 63.11670971 C-39.88284474 66.3257898 -43.09810691 69.53391755 -46.31542969 72.73999023 C-49.4356281 75.84935207 -52.55340255 78.96112526 -55.669487 82.07460976 C-56.85678062 83.26005351 -58.04495508 84.44461572 -59.23401642 85.62828636 C-60.8904271 87.2774745 -62.54371894 88.9297284 -64.19628906 90.58276367 C-64.93652313 91.31760483 -64.93652313 91.31760483 -65.69171143 92.06729126 C-68.26503846 94.63209814 -68.26503846 94.63209814 -70.1875 97.6875 C-83.26170272 98.25870303 -83.26170272 98.25870303 -88.1875 94.6875 C-91.87718377 91.29697978 -93.10606409 88.03261136 -93.3717804 83.12646484 C-92.80850037 75.67141147 -85.56126622 69.63108389 -80.55078125 64.6875 C-79.83012985 63.9663501 -79.10947845 63.2452002 -78.36698914 62.50219727 C-76.855273 60.99280651 -75.33989992 59.4870702 -73.82104492 57.98486328 C-71.48756137 55.67518828 -69.16790874 53.35224935 -66.84960938 51.02734375 C-65.37579385 49.55909854 -63.90121179 48.09162228 -62.42578125 46.625 C-61.38204094 45.57989258 -61.38204094 45.57989258 -60.31721497 44.51367188 C-59.67281967 43.87880859 -59.02842438 43.24394531 -58.36450195 42.58984375 C-57.79778275 42.02773193 -57.23106354 41.46562012 -56.64717102 40.88647461 C-55.1875 39.6875 -55.1875 39.6875 -53.1875 39.6875 C-52.5275 38.3675 -51.8675 37.0475 -51.1875 35.6875 C-50.5275 35.6875 -49.8675 35.6875 -49.1875 35.6875 C-48.8575 34.6975 -48.5275 33.7075 -48.1875 32.6875 C-46.69921875 31.2578125 -46.69921875 31.2578125 -44.875 29.8125 C-42.70134669 28.02165608 -41.01410488 26.46935776 -39.25 24.25 C-37.50041691 22.07627555 -35.92131422 20.5333524 -33.8125 18.75 C-30.98123353 16.35062164 -28.32489492 13.84526825 -25.73046875 11.1953125 C-25.11671387 10.56874756 -24.50295898 9.94218262 -23.87060547 9.29663086 C-22.64045417 8.03292414 -21.41660598 6.76304546 -20.19970703 5.48657227 C-14.28835434 -0.57633234 -8.45559417 -3.48171525 0 0 Z " fill="#0B364B" transform="translate(98.1875,9.3125)"/>
<path d="M0 0 C1.02996094 -0.00128906 2.05992188 -0.00257812 3.12109375 -0.00390625 C4.74724609 0.00189453 4.74724609 0.00189453 6.40625 0.0078125 C7.49035156 0.00394531 8.57445313 0.00007813 9.69140625 -0.00390625 C10.72136719 -0.00261719 11.75132813 -0.00132813 12.8125 0 C14.24045898 0.00169189 14.24045898 0.00169189 15.69726562 0.00341797 C17.90625 0.1328125 17.90625 0.1328125 18.90625 1.1328125 C19.0054157 2.75538794 19.03704777 4.38221081 19.0390625 6.0078125 C19.04099609 7.48507813 19.04099609 7.48507813 19.04296875 8.9921875 C19.03910156 10.02859375 19.03523438 11.065 19.03125 12.1328125 C19.03705078 13.68742188 19.03705078 13.68742188 19.04296875 15.2734375 C19.04167969 16.25828125 19.04039063 17.243125 19.0390625 18.2578125 C19.03793457 19.16789062 19.03680664 20.07796875 19.03564453 21.015625 C18.90625 23.1328125 18.90625 23.1328125 17.90625 24.1328125 C11.15094592 24.93607478 5.43440153 24.2661295 -0.09375 20.1328125 C-4.78248699 14.5803608 -6.61029427 8.36443229 -6.09375 1.1328125 C-4.40858046 -0.55235704 -2.30607212 0.00273231 0 0 Z " fill="#0B354D" transform="translate(70.09375,123.8671875)"/>
<path d="M0 0 C13.97727273 0 13.97727273 0 19 4 C25.06724644 10.15603541 24 14.94010859 24 24 C16.08 24 8.16 24 0 24 C0 16.08 0 8.16 0 0 Z " fill="#113644" transform="translate(95,94)"/>
<path d="M0 0 C7.92 0 15.84 0 24 0 C24 14.05539359 24 14.05539359 20 19 C13.746553 23.99115028 7.93612015 24 0 24 C0 16.08 0 8.16 0 0 Z " fill="#0B354C" transform="translate(95,124)"/>
<path d="M0 0 C0 7.92 0 15.84 0 24 C-7.59 24 -15.18 24 -23 24 C-23.72901881 11.16926899 -23.72901881 11.16926899 -19.60546875 5.625 C-13.72826355 -0.32370404 -8.52343036 0 0 0 Z " fill="#0E3143" transform="translate(88,94)"/>
<path d="M0 0 C4.70439189 2.82263514 4.70439189 2.82263514 6.8125 4.6875 C6.8125 5.3475 6.8125 6.0075 6.8125 6.6875 C7.8025 7.0175 8.7925 7.3475 9.8125 7.6875 C11.5 9.125 11.5 9.125 12.8125 10.6875 C12.8125 11.3475 12.8125 12.0075 12.8125 12.6875 C13.4725 12.6875 14.1325 12.6875 14.8125 12.6875 C14.8125 13.3475 14.8125 14.0075 14.8125 14.6875 C16.2975 15.1825 16.2975 15.1825 17.8125 15.6875 C17.8125 16.3475 17.8125 17.0075 17.8125 17.6875 C18.4725 17.6875 19.1325 17.6875 19.8125 17.6875 C20.95603517 18.76173001 22.08885494 19.84916121 23.171875 20.984375 C24.46983753 22.33178373 25.79983356 23.64832796 27.140625 24.953125 C27.96046875 25.75234375 28.7803125 26.5515625 29.625 27.375 C30.81029297 28.52548828 30.81029297 28.52548828 32.01953125 29.69921875 C33.8125 31.6875 33.8125 31.6875 33.8125 33.6875 C29.57637451 32.05217932 26.81199417 28.88731583 23.7265625 25.69140625 C22.53658067 24.4809995 21.34647256 23.27071691 20.15625 22.06054688 C18.29522959 20.15609284 16.43675736 18.24923578 14.58105469 16.33959961 C12.78193756 14.49199326 10.97353878 12.65386025 9.1640625 10.81640625 C8.61698639 10.24757217 8.06991028 9.6787381 7.5062561 9.09266663 C3.31950649 4.85285185 -0.54287949 2.02408806 -6.625 1.25 C-14.21438637 2.18202991 -19.06768037 7.14135278 -24.19262695 12.38378906 C-24.85367935 13.04761597 -25.51473175 13.71144287 -26.19581604 14.39538574 C-28.36274738 16.57452869 -30.51905368 18.76388717 -32.67578125 20.953125 C-34.18475812 22.47278365 -35.69455148 23.99163194 -37.2051239 25.50970459 C-41.16769556 29.4950025 -45.12202252 33.48836794 -49.0737915 37.484375 C-55.4150352 43.89596884 -61.76395123 50.2998881 -68.12193871 56.69487762 C-70.34333972 58.93303307 -72.55824376 61.17748043 -74.77278137 63.42242432 C-76.12470844 64.78480499 -77.47688285 66.14694027 -78.8293457 67.50878906 C-79.44700806 68.1383551 -80.06467041 68.76792114 -80.7010498 69.41656494 C-82.15900725 70.87861686 -83.66843549 72.28904416 -85.1875 73.6875 C-85.8475 73.6875 -86.5075 73.6875 -87.1875 73.6875 C-87.6515625 74.863125 -87.6515625 74.863125 -88.125 76.0625 C-89.1875 78.6875 -89.1875 78.6875 -90.1875 80.6875 C-90.63158691 84.5954648 -90.32454844 86.43298146 -88.4375 89.9375 C-85.61950482 93.38171633 -83.78141164 94.45152984 -79.390625 95.1015625 C-78.41609375 95.17117187 -77.4415625 95.24078125 -76.4375 95.3125 C-75.45265625 95.38726562 -74.4678125 95.46203125 -73.453125 95.5390625 C-72.33164063 95.61253906 -72.33164063 95.61253906 -71.1875 95.6875 C-75.0524169 97.80560948 -77.74729772 98.07027606 -82.1875 97.6875 C-86.83336577 95.95668726 -89.66574791 93.98381838 -92.1875 89.6875 C-93.35689243 85.95827902 -93.94197008 82.43580457 -92.35612488 78.76098633 C-88.96315 73.46258995 -85.02157683 69.09860055 -80.55078125 64.6875 C-79.83012985 63.9663501 -79.10947845 63.2452002 -78.36698914 62.50219727 C-76.855273 60.99280651 -75.33989992 59.4870702 -73.82104492 57.98486328 C-71.48756137 55.67518828 -69.16790874 53.35224935 -66.84960938 51.02734375 C-65.37579385 49.55909854 -63.90121179 48.09162228 -62.42578125 46.625 C-61.38204094 45.57989258 -61.38204094 45.57989258 -60.31721497 44.51367188 C-59.67281967 43.87880859 -59.02842438 43.24394531 -58.36450195 42.58984375 C-57.79778275 42.02773193 -57.23106354 41.46562012 -56.64717102 40.88647461 C-55.1875 39.6875 -55.1875 39.6875 -53.1875 39.6875 C-52.5275 38.3675 -51.8675 37.0475 -51.1875 35.6875 C-50.5275 35.6875 -49.8675 35.6875 -49.1875 35.6875 C-48.8575 34.6975 -48.5275 33.7075 -48.1875 32.6875 C-46.69921875 31.2578125 -46.69921875 31.2578125 -44.875 29.8125 C-42.70134669 28.02165608 -41.01410488 26.46935776 -39.25 24.25 C-37.50041691 22.07627555 -35.92131422 20.5333524 -33.8125 18.75 C-30.98123353 16.35062164 -28.32489492 13.84526825 -25.73046875 11.1953125 C-25.11671387 10.56874756 -24.50295898 9.94218262 -23.87060547 9.29663086 C-22.64045417 8.03292414 -21.41660598 6.76304546 -20.19970703 5.48657227 C-14.28835434 -0.57633234 -8.45559417 -3.48171525 0 0 Z " fill="#02121F" transform="translate(98.1875,9.3125)"/>
<path d="M0 0 C1.19012695 0.0009668 1.19012695 0.0009668 2.40429688 0.00195312 C3.22865234 0.01806641 4.05300781 0.03417969 4.90234375 0.05078125 C5.73056641 0.04755859 6.55878906 0.04433594 7.41210938 0.04101562 C13.57271783 0.09615533 13.57271783 0.09615533 15.83984375 2.36328125 C16.12695312 5.41674805 16.12695312 5.41674805 16.18359375 9.3125 C16.19821655 10.00334183 16.21283936 10.69418365 16.22790527 11.40596008 C16.27445848 13.62084115 16.30858693 15.83563471 16.33984375 18.05078125 C16.38125949 20.95083893 16.43513879 23.85029462 16.49609375 26.75 C16.52413086 28.68685669 16.52413086 28.68685669 16.55273438 30.6628418 C17.04611327 37.02180769 18.10676914 41.33651611 22.90234375 45.66796875 C24.09730469 46.79138672 24.09730469 46.79138672 25.31640625 47.9375 C26.99481369 49.46781267 28.67709831 50.99388405 30.36328125 52.515625 C34.9352099 56.82862565 37.77840388 59.99980317 38.80419922 66.30029297 C38.87086032 70.15841849 38.01771368 73.18289976 35.83984375 76.36328125 C32.15547037 79.98610185 28.08459374 81.70614975 22.96484375 82.23828125 C17.18484128 81.96176879 14.04909808 78.73165318 10.06640625 74.8203125 C7.88142741 72.40916918 5.83747002 69.93100634 3.83984375 67.36328125 C7.26264892 68.8291014 9.40464858 70.7439038 11.96484375 73.42578125 C15.7948329 77.42197748 17.57671805 78.53242957 23.15234375 78.67578125 C26.89668335 78.63657351 28.56804491 78.51304796 31.90234375 76.67578125 C35.03264658 72.93961336 36.07902093 70.20683779 35.71484375 65.36328125 C35.07746714 61.41302857 33.65832841 59.26005715 30.83984375 56.36328125 C30.07671875 55.55890625 29.31359375 54.75453125 28.52734375 53.92578125 C25.9774095 51.49444859 23.34552245 49.27193666 20.5859375 47.0859375 C16.27403638 42.83191425 14.39715826 39.14766583 14.23419189 33.19473267 C14.23296326 32.43824432 14.23173462 31.68175598 14.23046875 30.90234375 C14.2139325 30.11177582 14.19739624 29.32120789 14.18035889 28.50668335 C14.13206887 26.00046881 14.11055132 23.49486013 14.08984375 20.98828125 C14.06166801 19.28121983 14.03173833 17.5741864 14 15.8671875 C13.92303537 11.69894525 13.8823443 7.53258478 13.83984375 3.36328125 C7.89984375 3.36328125 1.95984375 3.36328125 -4.16015625 3.36328125 C-4.49015625 7.65328125 -4.82015625 11.94328125 -5.16015625 16.36328125 C-5.82015625 16.03328125 -6.48015625 15.70328125 -7.16015625 15.36328125 C-7.24123208 13.42646964 -7.299381 11.48868785 -7.34765625 9.55078125 C-7.38246094 8.47183594 -7.41726562 7.39289062 -7.453125 6.28125 C-7.16015625 3.36328125 -7.16015625 3.36328125 -5.90185547 1.70361328 C-3.76355316 0.05807366 -2.67336166 -0.01098195 0 0 Z " fill="#06141E" transform="translate(139.16015625,25.63671875)"/>
<path d="M0 0 C1.42107811 0.48513565 1.42107811 0.48513565 2.87086487 0.98007202 C7.59115813 2.31947501 12.18774438 2.30738374 17.06616211 2.31884766 C18.05229492 2.32889328 19.03842773 2.3389389 20.05444336 2.34928894 C23.29540454 2.38003876 26.53628341 2.39713337 29.77734375 2.4140625 C32.03179122 2.43278073 34.28623173 2.45235463 36.54066467 2.4727478 C42.46053968 2.52400569 48.38043738 2.56366545 54.30041504 2.60089111 C60.34681789 2.64097047 66.39312684 2.69204489 72.43945312 2.7421875 C84.29290272 2.83887173 96.14640542 2.92330058 108 3 C104.93628962 5.04247359 104.3253941 5.25097328 100.87649536 5.26069641 C99.61902496 5.27132362 99.61902496 5.27132362 98.33615112 5.28216553 C97.41971832 5.27968811 96.50328552 5.27721069 95.55908203 5.2746582 C94.10743652 5.2823246 94.10743652 5.2823246 92.62646484 5.29014587 C89.42018487 5.30407119 86.21411916 5.30308274 83.0078125 5.30078125 C80.78205281 5.30466686 78.55629387 5.30900124 76.33053589 5.31376648 C71.66157632 5.32123523 66.99269235 5.32093287 62.32373047 5.31567383 C56.33915441 5.30988152 50.35488808 5.32680146 44.37036324 5.3500185 C39.77214751 5.36474837 35.17400647 5.36562849 30.57577133 5.36250877 C28.36935691 5.36302246 26.16293837 5.36826912 23.95654678 5.37832069 C20.87072879 5.39065166 17.78551529 5.38391295 14.69970703 5.37231445 C13.78732269 5.37995819 12.87493835 5.38760193 11.93490601 5.39547729 C7.18790783 5.35602377 3.79497869 5.20975512 0 2 C0 1.34 0 0.68 0 0 Z " fill="#DEA231" transform="translate(36,172)"/>
<path d="M0 0 C3 1 3 1 4 2 C4.08726223 3.78071246 4.10699041 5.5648314 4.09765625 7.34765625 C4.09515869 8.31968994 4.09266113 9.29172363 4.09008789 10.29321289 C4.08098389 11.53707764 4.07187988 12.78094238 4.0625 14.0625 C4.041875 18.001875 4.02125 21.94125 4 26 C11.92 26 19.84 26 28 26 C27.70989017 17.58681494 26.77265538 11.97406469 22 5 C23.89453125 5.328125 23.89453125 5.328125 26 6 C29.905157 12.36395956 30.51431708 18.67854508 30 26 C27.66283991 28.33716009 21.81167112 27.17162619 18.70117188 27.18554688 C18.0223999 27.18546631 17.34362793 27.18538574 16.64428711 27.18530273 C14.57449736 27.18748734 12.50524207 27.20563491 10.43554688 27.22460938 C9.13810547 27.22654297 7.84066406 27.22847656 6.50390625 27.23046875 C5.30580322 27.23457764 4.1077002 27.23868652 2.87329102 27.24291992 C0 27 0 27 -2 25 C-2.25878906 22.69335938 -2.25878906 22.69335938 -2.265625 19.84375 C-2.26820312 18.82152344 -2.27078125 17.79929687 -2.2734375 16.74609375 C-2.26183594 15.13927734 -2.26183594 15.13927734 -2.25 13.5 C-2.25773437 12.42878906 -2.26546875 11.35757813 -2.2734375 10.25390625 C-2.27085938 9.23167969 -2.26828125 8.20945312 -2.265625 7.15625 C-2.26336914 6.21587891 -2.26111328 5.27550781 -2.25878906 4.30664062 C-2 2 -2 2 0 0 Z " fill="#EFBE31" transform="translate(91,92)"/>
<path d="M0 0 C1.02996094 -0.00128906 2.05992188 -0.00257812 3.12109375 -0.00390625 C4.74724609 0.00189453 4.74724609 0.00189453 6.40625 0.0078125 C7.49035156 0.00394531 8.57445313 0.00007813 9.69140625 -0.00390625 C10.72136719 -0.00261719 11.75132813 -0.00132813 12.8125 0 C14.24045898 0.00169189 14.24045898 0.00169189 15.69726562 0.00341797 C17.90625 0.1328125 17.90625 0.1328125 18.90625 1.1328125 C19.0054157 2.75538794 19.03704777 4.38221081 19.0390625 6.0078125 C19.04099609 7.48507813 19.04099609 7.48507813 19.04296875 8.9921875 C19.03910156 10.02859375 19.03523438 11.065 19.03125 12.1328125 C19.03705078 13.68742188 19.03705078 13.68742188 19.04296875 15.2734375 C19.04167969 16.25828125 19.04039063 17.243125 19.0390625 18.2578125 C19.03793457 19.16789062 19.03680664 20.07796875 19.03564453 21.015625 C18.90625 23.1328125 18.90625 23.1328125 17.90625 24.1328125 C11.15094592 24.93607478 5.43440153 24.2661295 -0.09375 20.1328125 C-4.78248699 14.5803608 -6.61029427 8.36443229 -6.09375 1.1328125 C-4.40858046 -0.55235704 -2.30607212 0.00273231 0 0 Z M-4.09375 2.1328125 C-4.09375 9.52303196 -4.00364325 12.42613982 -0.09375 18.1328125 C5.59586182 23.68018403 8.80069653 23.1328125 16.90625 23.1328125 C16.90625 16.2028125 16.90625 9.2728125 16.90625 2.1328125 C9.97625 2.1328125 3.04625 2.1328125 -4.09375 2.1328125 Z " fill="#393B1F" transform="translate(70.09375,123.8671875)"/>
<path d="M0 0 C7.92 0 15.84 0 24 0 C24 11 24 11 22 14 C22.33 10.04 22.66 6.08 23 2 C16.07 2 9.14 2 2 2 C2 8.93 2 15.86 2 23 C4.31 23 6.62 23 9 23 C9 23.33 9 23.66 9 24 C6.03 24 3.06 24 0 24 C0 16.08 0 8.16 0 0 Z " fill="#33391E" transform="translate(95,124)"/>
<path d="M0 0 C0.66 0 1.32 0 2 0 C2.24466253 7.86476091 2.45699407 15.72992086 2.64697266 23.59619141 C2.71307272 26.27182448 2.79116581 28.9463417 2.87451172 31.62158203 C2.99308683 35.46884426 3.08504403 39.31596903 3.171875 43.1640625 C3.21439392 44.35802643 3.25691284 45.55199036 3.30072021 46.78213501 C3.41654752 53.16945395 3.37706582 57.16416955 -1 62 C-1.33 61.34 -1.66 60.68 -2 60 C-1.4740625 59.071875 -1.4740625 59.071875 -0.9375 58.125 C-0.628125 57.42375 -0.31875 56.7225 0 56 C-0.78309467 53.76529595 -0.78309467 53.76529595 -2 52 C-1.34 52 -0.68 52 0 52 C0 34.84 0 17.68 0 0 Z " fill="#F8AC17" transform="translate(152,109)"/>
<path d="M0 0 C0 7.92 0 15.84 0 24 C-0.66 24 -1.32 24 -2 24 C-3.95500272 16.79092747 -4.99599495 9.46460728 -4 2 C-1 0 -1 0 0 0 Z " fill="#F2B820" transform="translate(95,124)"/>
<path d="M0 0 C2.62657315 0.97766889 3.94145181 2.31908365 5.859375 4.34765625 C6.47296875 4.98832031 7.0865625 5.62898438 7.71875 6.2890625 C8.17765625 6.78277344 8.6365625 7.27648438 9.109375 7.78515625 C5.52025088 7.78515625 5.00080471 7.12079071 2.421875 4.78515625 C1.79925781 4.22828125 1.17664063 3.67140625 0.53515625 3.09765625 C-0.17060547 2.44796875 -0.17060547 2.44796875 -0.890625 1.78515625 C-1.880625 2.28015625 -1.880625 2.28015625 -2.890625 2.78515625 C-2.890625 3.77515625 -2.890625 4.76515625 -2.890625 5.78515625 C-3.76976563 6.17316406 -4.64890625 6.56117187 -5.5546875 6.9609375 C-9.12819252 8.9150673 -11.45189823 11.04485948 -14.265625 13.97265625 C-15.13960938 14.87371094 -16.01359375 15.77476563 -16.9140625 16.703125 C-17.56632812 17.39019531 -18.21859375 18.07726562 -18.890625 18.78515625 C-19.550625 18.45515625 -20.210625 18.12515625 -20.890625 17.78515625 C-18.60706254 15.44377082 -16.31249126 13.11348643 -14.015625 10.78515625 C-13.36464844 10.11742187 -12.71367188 9.4496875 -12.04296875 8.76171875 C-11.41777344 8.13007812 -10.79257813 7.4984375 -10.1484375 6.84765625 C-9.5723877 6.26113281 -8.99633789 5.67460938 -8.40283203 5.0703125 C-6.890625 3.78515625 -6.890625 3.78515625 -4.890625 3.78515625 C-4.560625 2.79515625 -4.230625 1.80515625 -3.890625 0.78515625 C-1.890625 -0.21484375 -1.890625 -0.21484375 0 0 Z " fill="#D3B642" transform="translate(91.890625,44.21484375)"/>
<path d="M0 0 C7.15801225 5.82628904 13.52591766 12.4382985 20 19 C17 19 17 19 14.22265625 16.41015625 C12.62328056 14.73853774 11.04751127 13.0464078 9.47070312 11.35351562 C6.72032308 8.47921358 4.92675178 6.71237299 1 6 C0.67 4.02 0.34 2.04 0 0 Z " fill="#DEC04A" transform="translate(118,69)"/>
<path d="M0 0 C1.0625 1.875 1.0625 1.875 2 4 C1.67 4.66 1.34 5.32 1 6 C-0.65 5.67 -2.3 5.34 -4 5 C-4.20625 5.5775 -4.4125 6.155 -4.625 6.75 C-6.49750888 9.81410544 -8.96958519 11.15539968 -12 13 C-12.66 12.67 -13.32 12.34 -14 12 C-5.87361545 3.51065038 -5.87361545 3.51065038 -1 1 C-0.67 0.67 -0.34 0.34 0 0 Z " fill="#EFBB1E" transform="translate(51,84)"/>
<path d="M0 0 C11.25 0 11.25 0 15 2 C15 2.33 15 2.66 15 3 C13.00045254 3.04254356 10.99958364 3.04080783 9 3 C8.67 2.67 8.34 2.34 8 2 C5.69 1.67 3.38 1.34 1 1 C1 8.26 1 15.52 1 23 C0.67 23 0.34 23 0 23 C0 15.41 0 7.82 0 0 Z " fill="#101D1D" transform="translate(96,94)"/>
<path d="M0 0 C4.91935902 4.11619836 9.52647956 8.40410362 14 13 C13.01 13 12.02 13 11 13 C10.34 12.34 9.68 11.68 9 11 C7.68 11 6.36 11 5 11 C4.731875 10.071875 4.46375 9.14375 4.1875 8.1875 C3.06289965 5.1688359 2.29293427 4.0844857 0 2 C0 1.34 0 0.68 0 0 Z " fill="#ECBD36" transform="translate(140,91)"/>
<path d="M0 0 C0.33 0.66 0.66 1.32 1 2 C-4.53846154 7.84615385 -4.53846154 7.84615385 -8 9 C-8.99 8.67 -9.98 8.34 -11 8 C-10.01 7.34 -9.02 6.68 -8 6 C-8 5.34 -8 4.68 -8 4 C-7.34 4 -6.68 4 -6 4 C-6 3.34 -6 2.68 -6 2 C-4.02 1.34 -2.04 0.68 0 0 Z " fill="#1B2D2E" transform="translate(116,138)"/>
<path d="M0 0 C5.28497409 -0.44041451 5.28497409 -0.44041451 8 0 C10.5 2.5 10.5 2.5 12 5 C11.01 5.495 11.01 5.495 10 6 C9.67 5.34 9.34 4.68 9 4 C8.01 3.67 7.02 3.34 6 3 C6 3.66 6 4.32 6 5 C5.01 5 4.02 5 3 5 C3 3.68 3 2.36 3 1 C2.34 1 1.68 1 1 1 C1 1.66 1 2.32 1 3 C0.34 3 -0.32 3 -1 3 C-0.67 2.01 -0.34 1.02 0 0 Z " fill="#112E3D" transform="translate(105,97)"/>
<path d="M0 0 C0.99 0.33 1.98 0.66 3 1 C2.06725891 2.12894876 1.12859878 3.25300876 0.1875 4.375 C-0.33457031 5.00148438 -0.85664062 5.62796875 -1.39453125 6.2734375 C-3 8 -3 8 -6 10 C-6 6 -6 6 -4 4 C-3.34 4.33 -2.68 4.66 -2 5 C-1.67 4.01 -1.34 3.02 -1 2 C-0.67 1.34 -0.34 0.68 0 0 Z " fill="#15272C" transform="translate(47,82)"/>
<path d="M0 0 C1.12894876 0.93274109 2.25300876 1.87140122 3.375 2.8125 C4.00148438 3.33457031 4.62796875 3.85664062 5.2734375 4.39453125 C7 6 7 6 9 9 C8.01 9.495 8.01 9.495 7 10 C7 9.34 7 8.68 7 8 C5.35 8.66 3.7 9.32 2 10 C2.226875 9.236875 2.45375 8.47375 2.6875 7.6875 C2.790625 6.800625 2.89375 5.91375 3 5 C1.62485459 3.2912354 1.62485459 3.2912354 0 2 C0 1.34 0 0.68 0 0 Z " fill="#EFBE2B" transform="translate(101,53)"/>
<path d="M0 0 C0.78375 0.04125 1.5675 0.0825 2.375 0.125 C1.39933888 1.29459987 0.419375 2.46061177 -0.5625 3.625 C-1.10777344 4.2746875 -1.65304688 4.924375 -2.21484375 5.59375 C-2.68019531 6.0990625 -3.14554688 6.604375 -3.625 7.125 C-3.955 7.125 -4.285 7.125 -4.625 7.125 C-4.75 4.75 -4.75 4.75 -4.625 2.125 C-2.625 0.125 -2.625 0.125 0 0 Z " fill="#112931" transform="translate(63.625,66.875)"/>
<path d="M0 0 C1.11375 0.3403125 1.11375 0.3403125 2.25 0.6875 C2.58 1.6775 2.91 2.6675 3.25 3.6875 C2.26 4.1825 2.26 4.1825 1.25 4.6875 C1.25 4.0275 1.25 3.3675 1.25 2.6875 C-1.39 2.6875 -4.03 2.6875 -6.75 2.6875 C-4.29511132 0.41445492 -3.41240272 -0.38777304 0 0 Z " fill="#E5B317" transform="translate(114.75,144.3125)"/>
<path d="M0 0 C5.94 1.485 5.94 1.485 12 3 C12 3.33 12 3.66 12 4 C5.76952141 5.34382872 5.76952141 5.34382872 2.0625 3.6875 C1.381875 3.130625 0.70125 2.57375 0 2 C0 1.34 0 0.68 0 0 Z " fill="#E7A51C" transform="translate(36,172)"/>
<path d="M0 0 C0.99 0.495 0.99 0.495 2 1 C2 1.99 2 2.98 2 4 C2.99 4.33 3.98 4.66 5 5 C5.6875 7.0625 5.6875 7.0625 6 9 C3.5067466 8.00269864 2.22532561 7.34925469 0.75 5.0625 C0 3 0 3 0 0 Z " fill="#E8A623" transform="translate(29,163)"/>
<path d="M0 0 C1.65 1.32 3.3 2.64 5 4 C4.67 4.99 4.34 5.98 4 7 C2.68 6.34 1.36 5.68 0 5 C0 3.35 0 1.7 0 0 Z " fill="#103344" transform="translate(169,81)"/>
<path d="M0 0 C1.7074998 1.28062485 3.37373596 2.61767557 5 4 C5 4.66 5 5.32 5 6 C3.68 6 2.36 6 1 6 C0.67 4.02 0.34 2.04 0 0 Z " fill="#D8AE2A" transform="translate(118,69)"/>
<path d="M0 0 C1.9375 0.375 1.9375 0.375 4 1 C4.33 1.66 4.66 2.32 5 3 C4.34 3.66 3.68 4.32 3 5 C2.01 5 1.02 5 0 5 C0 3.35 0 1.7 0 0 Z " fill="#DEAF1A" transform="translate(113,66)"/>
<path d="M0 0 C5.61 0 11.22 0 17 0 C17 0.33 17 0.66 17 1 C11.39 1 5.78 1 0 1 C0 0.67 0 0.34 0 0 Z " fill="#002326" transform="translate(136,24)"/>
<path d="M0 0 C3 1 3 1 3 1 Z " fill="#534A4A" transform="translate(157,108)"/>
<path d="M0 0 C3 1 3 1 3 1 Z " fill="#000000" transform="translate(89,6)"/>
<path d="" fill="#FFFFFF" transform="translate(0,0)"/>
<path d="" fill="#FFFFFF" transform="translate(0,0)"/>
<path d="" fill="#808080" transform="translate(0,0)"/>
<path d="" fill="#555555" transform="translate(0,0)"/>
<path d="" fill="#000000" transform="translate(0,0)"/>
<path d="" fill="#FFFFFF" transform="translate(0,0)"/>
<path d="" fill="#000000" transform="translate(0,0)"/>
<path d="" fill="#000000" transform="translate(0,0)"/>
<path d="" fill="#000000" transform="translate(0,0)"/>
<path d="" fill="#FFFFFF" transform="translate(0,0)"/>
<path d="" fill="#FFFFFF" transform="translate(0,0)"/>
</svg>
