<?xml version="1.0" encoding="UTF-8"?>
<svg version="1.1" xmlns="http://www.w3.org/2000/svg" width="752" height="186">
<path d="M0 0 C4.70439189 2.82263514 4.70439189 2.82263514 6.8125 4.6875 C6.8125 5.3475 6.8125 6.0075 6.8125 6.6875 C7.8025 7.0175 8.7925 7.3475 9.8125 7.6875 C11.5 9.125 11.5 9.125 12.8125 10.6875 C12.8125 11.3475 12.8125 12.0075 12.8125 12.6875 C13.4725 12.6875 14.1325 12.6875 14.8125 12.6875 C14.8125 13.3475 14.8125 14.0075 14.8125 14.6875 C16.2975 15.1825 16.2975 15.1825 17.8125 15.6875 C17.8125 16.3475 17.8125 17.0075 17.8125 17.6875 C18.4725 17.6875 19.1325 17.6875 19.8125 17.6875 C21.5410095 19.31433247 23.17250356 20.97425309 24.8125 22.6875 C26.2473355 24.12765957 27.6849535 25.56505101 29.125 27 C30.35416667 28.22916667 31.58333333 29.45833333 32.8125 30.6875 C32.84988281 29.92824219 32.88726562 29.16898438 32.92578125 28.38671875 C32.99152344 27.39285156 33.05726563 26.39898437 33.125 25.375 C33.18300781 24.38886719 33.24101562 23.40273438 33.30078125 22.38671875 C33.88192306 19.32130663 34.40370324 18.57492397 36.8125 16.6875 C38.77368164 16.31518555 38.77368164 16.31518555 40.97265625 16.32421875 C42.1627832 16.32518555 42.1627832 16.32518555 43.37695312 16.32617188 C44.20130859 16.34228516 45.02566406 16.35839844 45.875 16.375 C46.70322266 16.37177734 47.53144531 16.36855469 48.38476562 16.36523438 C54.54537408 16.42037408 54.54537408 16.42037408 56.8125 18.6875 C57.09960938 21.7409668 57.09960938 21.7409668 57.15625 25.63671875 C57.1708728 26.32756058 57.18549561 27.0184024 57.20056152 27.73017883 C57.24711473 29.9450599 57.28124318 32.15985346 57.3125 34.375 C57.35391574 37.27505768 57.40779504 40.17451337 57.46875 43.07421875 C57.48744141 44.36545654 57.50613281 45.65669434 57.52539062 46.98706055 C58.01876952 53.34602644 59.07942539 57.66073486 63.875 61.9921875 C64.67164063 62.74113281 65.46828125 63.49007812 66.2890625 64.26171875 C67.96746994 65.79203142 69.64975456 67.3181028 71.3359375 68.83984375 C75.90786615 73.1528444 78.75106013 76.32402192 79.77685547 82.62451172 C79.84356069 86.48519045 78.98655633 89.50257671 76.8125 92.6875 C73.6316347 95.88388171 70.50048441 97.57164657 65.96679688 97.8828125 C64.51370117 97.84800781 64.51370117 97.84800781 63.03125 97.8125 C62.05091797 97.79445313 61.07058594 97.77640625 60.06054688 97.7578125 C59.31869141 97.73460938 58.57683594 97.71140625 57.8125 97.6875 C57.82249275 98.67562683 57.82249275 98.67562683 57.83268738 99.68371582 C57.89924266 106.56220604 57.94438443 113.44060421 57.97729492 120.31933594 C57.99234779 122.88382688 58.01279461 125.44829223 58.03881836 128.01269531 C58.07535467 131.70644463 58.09226194 135.39985246 58.10546875 139.09375 C58.12095261 140.2336438 58.13643646 141.3735376 58.15238953 142.54797363 C58.15387853 149.64836084 57.83758072 155.97424926 53.1640625 161.7109375 C52.30941406 162.37996094 52.30941406 162.37996094 51.4375 163.0625 C50.59058594 163.75472656 50.59058594 163.75472656 49.7265625 164.4609375 C44.30535761 167.9349341 39.45019819 167.98929789 33.19213867 167.99389648 C31.7472834 168.00638176 31.7472834 168.00638176 30.27323914 168.01911926 C27.09227442 168.04319351 23.91151488 168.05198839 20.73046875 168.05859375 C18.51475463 168.06756216 16.29904113 168.07668404 14.08332825 168.08595276 C9.43891936 168.10243841 4.79458253 168.11014209 0.15014648 168.11303711 C-5.79164872 168.11841981 -11.73276374 168.1560978 -17.67436695 168.20178127 C-22.25126092 168.23157131 -26.8279915 168.2387611 -31.40497398 168.23976326 C-33.59497886 168.2439618 -35.78498439 168.25638127 -37.97489357 168.27728081 C-41.04341818 168.30423401 -44.11037126 168.29935738 -47.17895508 168.28686523 C-48.52663971 168.30911667 -48.52663971 168.30911667 -49.90155029 168.33181763 C-56.13606863 168.25979616 -60.38710878 166.73000348 -65.1875 162.6875 C-68.97291402 157.83440511 -70.31470144 154.29213955 -70.30102539 148.20629883 C-70.30094986 147.08536331 -70.30087433 145.9644278 -70.30079651 144.80952454 C-70.29305458 142.99535286 -70.29305458 142.99535286 -70.28515625 141.14453125 C-70.2837413 139.90579758 -70.28232635 138.6670639 -70.28086853 137.39079285 C-70.27621602 134.10118463 -70.2672339 130.8116254 -70.25616455 127.52203369 C-70.24592629 124.16378377 -70.24136574 120.80552667 -70.23632812 117.44726562 C-70.22529145 110.86065788 -70.20854767 104.27408295 -70.1875 97.6875 C-71.01314453 97.70127686 -71.83878906 97.71505371 -72.68945312 97.72924805 C-73.77162109 97.73996338 -74.85378906 97.75067871 -75.96875 97.76171875 C-77.5784668 97.78238403 -77.5784668 97.78238403 -79.22070312 97.8034668 C-84.21604996 97.6082076 -86.9072662 95.86393106 -90.5 92.5625 C-92.84465418 88.56790399 -93.53591994 85.29886402 -93.1875 80.6875 C-90.44779342 74.33888305 -85.39562739 69.46765671 -80.55078125 64.6875 C-79.83012985 63.9663501 -79.10947845 63.2452002 -78.36698914 62.50219727 C-76.855273 60.99280651 -75.33989992 59.4870702 -73.82104492 57.98486328 C-71.48756137 55.67518828 -69.16790874 53.35224935 -66.84960938 51.02734375 C-65.37579385 49.55909854 -63.90121179 48.09162228 -62.42578125 46.625 C-61.38204094 45.57989258 -61.38204094 45.57989258 -60.31721497 44.51367188 C-59.67281967 43.87880859 -59.02842438 43.24394531 -58.36450195 42.58984375 C-57.79778275 42.02773193 -57.23106354 41.46562012 -56.64717102 40.88647461 C-55.1875 39.6875 -55.1875 39.6875 -53.1875 39.6875 C-52.5275 38.3675 -51.8675 37.0475 -51.1875 35.6875 C-50.5275 35.6875 -49.8675 35.6875 -49.1875 35.6875 C-48.8575 34.6975 -48.5275 33.7075 -48.1875 32.6875 C-46.69921875 31.2578125 -46.69921875 31.2578125 -44.875 29.8125 C-42.70134669 28.02165608 -41.01410488 26.46935776 -39.25 24.25 C-37.50041691 22.07627555 -35.92131422 20.5333524 -33.8125 18.75 C-30.98123353 16.35062164 -28.32489492 13.84526825 -25.73046875 11.1953125 C-25.11671387 10.56874756 -24.50295898 9.94218262 -23.87060547 9.29663086 C-22.64045417 8.03292414 -21.41660598 6.76304546 -20.19970703 5.48657227 C-14.28835434 -0.57633234 -8.45559417 -3.48171525 0 0 Z " fill="#F6AD09" transform="translate(108.1875,9.3125)"/>
<path d="M0 0 C4.70439189 2.82263514 4.70439189 2.82263514 6.8125 4.6875 C6.8125 5.3475 6.8125 6.0075 6.8125 6.6875 C7.8025 7.0175 8.7925 7.3475 9.8125 7.6875 C11.5 9.125 11.5 9.125 12.8125 10.6875 C12.8125 11.3475 12.8125 12.0075 12.8125 12.6875 C13.4725 12.6875 14.1325 12.6875 14.8125 12.6875 C14.8125 13.3475 14.8125 14.0075 14.8125 14.6875 C16.2975 15.1825 16.2975 15.1825 17.8125 15.6875 C17.8125 16.3475 17.8125 17.0075 17.8125 17.6875 C18.4725 17.6875 19.1325 17.6875 19.8125 17.6875 C21.5410095 19.31433247 23.17250356 20.97425309 24.8125 22.6875 C26.2473355 24.12765957 27.6849535 25.56505101 29.125 27 C30.35416667 28.22916667 31.58333333 29.45833333 32.8125 30.6875 C32.84988281 29.92824219 32.88726562 29.16898438 32.92578125 28.38671875 C32.99152344 27.39285156 33.05726563 26.39898437 33.125 25.375 C33.18300781 24.38886719 33.24101562 23.40273438 33.30078125 22.38671875 C33.88192306 19.32130663 34.40370324 18.57492397 36.8125 16.6875 C38.77368164 16.31518555 38.77368164 16.31518555 40.97265625 16.32421875 C42.1627832 16.32518555 42.1627832 16.32518555 43.37695312 16.32617188 C44.20130859 16.34228516 45.02566406 16.35839844 45.875 16.375 C46.70322266 16.37177734 47.53144531 16.36855469 48.38476562 16.36523438 C54.54537408 16.42037408 54.54537408 16.42037408 56.8125 18.6875 C57.09960938 21.7409668 57.09960938 21.7409668 57.15625 25.63671875 C57.1708728 26.32756058 57.18549561 27.0184024 57.20056152 27.73017883 C57.24711473 29.9450599 57.28124318 32.15985346 57.3125 34.375 C57.35391574 37.27505768 57.40779504 40.17451337 57.46875 43.07421875 C57.48744141 44.36545654 57.50613281 45.65669434 57.52539062 46.98706055 C58.01876952 53.34602644 59.07942539 57.66073486 63.875 61.9921875 C64.67164063 62.74113281 65.46828125 63.49007812 66.2890625 64.26171875 C67.96746994 65.79203142 69.64975456 67.3181028 71.3359375 68.83984375 C75.90786615 73.1528444 78.75106013 76.32402192 79.77685547 82.62451172 C79.84351657 86.48263724 78.99036993 89.50711851 76.8125 92.6875 C73.12812662 96.3103206 69.05724999 98.0303685 63.9375 98.5625 C59.61817529 98.21329818 57.60420998 97.05737391 54.46875 94.109375 C53.60008301 93.29388184 52.73141602 92.47838867 51.83642578 91.63818359 C45.53812984 85.52884447 39.36105576 79.29735347 33.1875 73.0625 C30.46915547 70.31730446 27.74733134 67.57562568 25.0234375 64.8359375 C24.41801117 64.22221283 23.81258484 63.60848816 23.18881226 62.97616577 C19.45763124 59.22401553 15.58755092 55.70347186 11.58349609 52.24478149 C9.58480281 50.48728012 7.73527299 48.63864985 5.92578125 46.6875 C5.29736328 46.02878906 4.66894531 45.37007812 4.02148438 44.69140625 C2.73599236 43.33310058 1.46019891 41.96556232 0.19335938 40.58984375 C-3.20413445 36.83365906 -3.20413445 36.83365906 -7.83203125 35.4375 C-10.87505177 37.05236993 -12.78108508 39.22032431 -15.1875 41.6875 C-17.02345508 43.51878352 -18.85969866 45.34977392 -20.69628906 47.18041992 C-26.02251024 52.49037028 -31.34624128 57.80280971 -36.66852188 63.11670971 C-39.88284474 66.3257898 -43.09810691 69.53391755 -46.31542969 72.73999023 C-49.4356281 75.84935207 -52.55340255 78.96112526 -55.669487 82.07460976 C-56.85678062 83.26005351 -58.04495508 84.44461572 -59.23401642 85.62828636 C-60.8904271 87.2774745 -62.54371894 88.9297284 -64.19628906 90.58276367 C-64.93652313 91.31760483 -64.93652313 91.31760483 -65.69171143 92.06729126 C-68.26503846 94.63209814 -68.26503846 94.63209814 -70.1875 97.6875 C-83.26170272 98.25870303 -83.26170272 98.25870303 -88.1875 94.6875 C-91.87718377 91.29697978 -93.10606409 88.03261136 -93.3717804 83.12646484 C-92.80850037 75.67141147 -85.56126622 69.63108389 -80.55078125 64.6875 C-79.83012985 63.9663501 -79.10947845 63.2452002 -78.36698914 62.50219727 C-76.855273 60.99280651 -75.33989992 59.4870702 -73.82104492 57.98486328 C-71.48756137 55.67518828 -69.16790874 53.35224935 -66.84960938 51.02734375 C-65.37579385 49.55909854 -63.90121179 48.09162228 -62.42578125 46.625 C-61.38204094 45.57989258 -61.38204094 45.57989258 -60.31721497 44.51367188 C-59.67281967 43.87880859 -59.02842438 43.24394531 -58.36450195 42.58984375 C-57.79778275 42.02773193 -57.23106354 41.46562012 -56.64717102 40.88647461 C-55.1875 39.6875 -55.1875 39.6875 -53.1875 39.6875 C-52.5275 38.3675 -51.8675 37.0475 -51.1875 35.6875 C-50.5275 35.6875 -49.8675 35.6875 -49.1875 35.6875 C-48.8575 34.6975 -48.5275 33.7075 -48.1875 32.6875 C-46.69921875 31.2578125 -46.69921875 31.2578125 -44.875 29.8125 C-42.70134669 28.02165608 -41.01410488 26.46935776 -39.25 24.25 C-37.50041691 22.07627555 -35.92131422 20.5333524 -33.8125 18.75 C-30.98123353 16.35062164 -28.32489492 13.84526825 -25.73046875 11.1953125 C-25.11671387 10.56874756 -24.50295898 9.94218262 -23.87060547 9.29663086 C-22.64045417 8.03292414 -21.41660598 6.76304546 -20.19970703 5.48657227 C-14.28835434 -0.57633234 -8.45559417 -3.48171525 0 0 Z " fill="#0B364B" transform="translate(108.1875,9.3125)"/>
<path d="M0 0 C8.81841857 7.38098404 13.25488955 15.44806585 15.1328125 26.78515625 C16.21439052 39.8350157 13.53974481 51.00268318 5.4140625 61.40234375 C-1.57263168 68.70008939 -10.30689851 71.98208462 -20.25390625 72.26660156 C-32.91387912 72.35238597 -41.09968133 70.36775184 -50.8671875 61.78515625 C-58.80203 51.03472448 -61.68950336 39.98706353 -60.8671875 26.78515625 C-59.09902005 16.16222896 -54.48131176 6.479466 -45.8671875 -0.21484375 C-31.39763853 -9.12827506 -14.20677888 -10.36229212 0 0 Z M-38.7421875 13.34765625 C-44.4994049 21.48151856 -46.07477548 30.70135889 -44.4296875 40.3515625 C-42.84796639 46.82673329 -39.90836243 51.42380782 -34.8671875 55.78515625 C-28.95217509 59.29034879 -23.35522658 59.69422986 -16.7265625 58.3515625 C-10.55911088 56.45660122 -6.91244776 52.54012626 -3.8671875 46.94921875 C0.11772986 38.17473726 0.1824164 29.22480558 -2.82421875 20.1484375 C-5.00942983 15.19692924 -8.18604114 11.93139241 -12.6171875 8.91015625 C-22.3642174 5.53618436 -30.85520786 6.31795701 -38.7421875 13.34765625 Z " fill="#2C3B3F" transform="translate(451.8671875,80.21484375)"/>
<path d="M0 0 C38.2 0 38.2 0 47 7 C51.1867021 12.54455142 52.71452983 17.05885307 52 24 C50.46978399 28.59064802 48.85406056 31.98901519 45 35 C44.01 35 43.02 35 42 35 C42 35.66 42 36.32 42 37 C42.721875 37.061875 43.44375 37.12375 44.1875 37.1875 C48.74079342 38.50289588 51.00932663 41.65551471 53.75 45.375 C56.29615782 50.72193143 56.37042502 55.52015751 54.70703125 61.08984375 C51.98951639 68.43163804 46.77134158 71.66858675 40 75 C27.06072504 78.23481874 13.33749935 76 0 76 C0 50.92 0 25.84 0 0 Z M15 13 C14.97316013 15.97922593 14.95323963 18.95821295 14.9375 21.9375 C14.92912109 22.78763672 14.92074219 23.63777344 14.91210938 24.51367188 C14.90888672 25.32255859 14.90566406 26.13144531 14.90234375 26.96484375 C14.89710693 27.7137085 14.89187012 28.46257324 14.88647461 29.23413086 C14.80658248 31.02667739 14.80658248 31.02667739 16 32 C22.39929755 32.51751706 28.6427923 32.9835647 34 29 C36.36865914 26.1728907 36.98558726 24.69181167 37.0625 21 C35.98083981 17.94590064 34.8876849 15.90958013 32.296875 13.90234375 C26.98488381 11.81549007 20.61826473 12.67834362 15 13 Z M15 43 C15 49.6 15 56.2 15 63 C18.774375 63.0928125 18.774375 63.0928125 22.625 63.1875 C23.40568848 63.21481201 24.18637695 63.24212402 24.99072266 63.27026367 C29.72895222 63.3261986 32.88338062 62.58139892 37 60 C39.62068349 56.95662562 40 55.47923201 40 51.4375 C38.79935439 47.31028071 37.66330186 46.16467837 34 44 C27.81719761 42.33162475 21.34319411 42.94071781 15 43 Z " fill="#217B45" transform="translate(213,75)"/>
<path d="M0 0 C0.88268555 0.00483398 1.76537109 0.00966797 2.67480469 0.01464844 C3.57424805 0.01948242 4.47369141 0.02431641 5.40039062 0.02929688 C8.13803829 0.05348959 10.87496003 0.09258233 13.61230469 0.13964844 C14.39911621 0.1522168 15.18592773 0.16478516 15.99658203 0.17773438 C24.01023978 0.35037418 30.76801804 0.6198365 37.61230469 5.13964844 C38.97355469 6.03683594 38.97355469 6.03683594 40.36230469 6.95214844 C45.32240364 11.77446687 47.71375699 17.50693837 47.86230469 24.38964844 C47.77128591 30.53847277 46.26774854 35.1710125 42.29980469 39.88964844 C39.50112006 42.23273324 36.70038019 44.20062428 33.61230469 46.13964844 C38.40394746 55.24136185 43.92823794 64.04099847 49.95214844 72.37792969 C50.5 73.28929687 51.04785156 74.20066406 51.61230469 75.13964844 C51.11730469 76.62464844 51.11730469 76.62464844 50.61230469 78.13964844 C44.6981231 79.44252507 39.10168677 80.13335379 33.61230469 77.13964844 C26.27969008 69.16209153 21.422556 58.76015107 16.61230469 49.13964844 C13.97230469 49.13964844 11.33230469 49.13964844 8.61230469 49.13964844 C8.61230469 58.37964844 8.61230469 67.61964844 8.61230469 77.13964844 C4.3929283 77.98352372 1.93374411 78.15040693 -2.20019531 77.70214844 C-3.17601562 77.6003125 -4.15183594 77.49847656 -5.15722656 77.39355469 C-6.26130859 77.26787109 -6.26130859 77.26787109 -7.38769531 77.13964844 C-7.41081959 67.24775468 -7.42861083 57.3558673 -7.43950748 47.46395206 C-7.44473613 42.87122204 -7.45183343 38.27851044 -7.46313477 33.68579102 C-7.47396431 29.25731156 -7.47997229 24.82884987 -7.48257256 20.4003582 C-7.48442668 18.70699216 -7.48804706 17.01362714 -7.49342537 15.32026863 C-7.50063671 12.95673612 -7.50168622 10.59327799 -7.5012207 8.22973633 C-7.50481598 7.52267548 -7.50841125 6.81561462 -7.51211548 6.08712769 C-7.49804495 -0.47236922 -6.41826203 0.01770904 0 0 Z M8.61230469 14.13964844 C8.44160204 16.139308 8.27596139 18.13939989 8.11230469 20.13964844 C8.01949219 21.25339844 7.92667969 22.36714844 7.83105469 23.51464844 C7.59620774 27.40639788 7.57811365 31.24186967 7.61230469 35.13964844 C10.17544968 35.22097031 12.73598887 35.28029018 15.29980469 35.32714844 C16.02103516 35.35228516 16.74226562 35.37742187 17.48535156 35.40332031 C22.09902213 35.46652128 24.93250132 34.9544234 28.61230469 32.13964844 C30.93067927 29.82127386 31.54754133 28.51203775 32.11230469 25.26464844 C31.42321381 20.95783047 29.73767159 19.12912982 26.61230469 16.13964844 C21.10026088 13.1819664 14.70343127 13.96223698 8.61230469 14.13964844 Z " fill="#F8AD0B" transform="translate(523.3876953125,73.8603515625)"/>
<path d="M0 0 C6.34154744 6.51770154 8.72347021 14.33642075 9.25 23.3125 C8.92 24.9625 8.59 26.6125 8.25 28.3125 C-3.96 28.6425 -16.17 28.9725 -28.75 29.3125 C-25.75 37.3125 -25.75 37.3125 -20.75 39.3125 C-13.11806761 40.20185798 -6.7049012 39.50354908 0.2265625 36.1875 C2.25 35.3125 2.25 35.3125 5.25 35.3125 C5.91 38.9425 6.57 42.5725 7.25 46.3125 C-2.14048175 52.86399889 -12.00951227 54.75382097 -23.33203125 52.88671875 C-31.068452 50.94964259 -36.84658183 46.70117578 -41.125 39.9375 C-45.11516608 31.03636028 -46.10248099 21.85221549 -42.73828125 12.5 C-39.17651287 4.94950047 -33.94539823 -1.40769649 -25.87109375 -4.37890625 C-15.74322991 -7.21312255 -8.77465046 -5.3844446 0 0 Z M-26.75 11.3125 C-28.09772903 14.43383744 -28.09772903 14.43383744 -28.75 17.3125 C-25.8251367 18.15441782 -23.24258344 18.43069313 -20.203125 18.41015625 C-19.35878906 18.40693359 -18.51445313 18.40371094 -17.64453125 18.40039062 C-16.77183594 18.39201172 -15.89914062 18.38363281 -15 18.375 C-14.11183594 18.37048828 -13.22367188 18.36597656 -12.30859375 18.36132812 C-10.12232671 18.349574 -7.93619821 18.33314249 -5.75 18.3125 C-6.24750236 14.23071928 -6.47698675 12.62646524 -9.25 9.4375 C-12.58154014 6.95690747 -15.54901609 6.64015336 -19.6328125 6.89453125 C-22.93822536 7.54707586 -24.55846439 8.78891354 -26.75 11.3125 Z " fill="#F7AC0D" transform="translate(619.75,99.6875)"/>
<path d="M0 0 C5.61 0 11.22 0 17 0 C20.5308567 7.50711963 23.17727244 15.18220679 25.75 23.0625 C27.1525 27.331875 28.555 31.60125 30 36 C33.96 24.12 37.92 12.24 42 0 C47.61 0 53.22 0 59 0 C56.53711668 7.72864396 53.59501798 15.22959172 50.5625 22.75 C50.30388184 23.39274872 50.04526367 24.03549744 49.77880859 24.69772339 C48.13792186 28.77491294 46.49027405 32.84933261 44.84014893 36.92279053 C44.00141304 38.99650635 43.16603464 41.07154566 42.33154297 43.14697266 C40.98781675 46.48713956 39.63490356 49.82344522 38.27511597 53.15710449 C37.51480666 55.02610217 36.76232809 56.89827928 36.01000977 58.77050781 C35.54264404 59.9097168 35.07527832 61.04892578 34.59375 62.22265625 C33.98563477 63.71937866 33.98563477 63.71937866 33.36523438 65.24633789 C31.13119918 69.7523613 28.60829983 73.1258618 24 75.25 C23.34 75.56453125 22.68 75.8790625 22 76.203125 C18.33188484 77.66463963 15.19610111 78.1205309 11.25 78.0625 C10.05117188 78.04896484 10.05117188 78.04896484 8.828125 78.03515625 C8.22484375 78.02355469 7.6215625 78.01195312 7 78 C5.68835158 75.37670316 5.86737154 73.36301375 5.875 70.4375 C5.87242187 69.44621094 5.86984375 68.45492187 5.8671875 67.43359375 C6 65 6 65 7 64 C8.41520618 63.89473673 9.83240688 63.81571624 11.25 63.75 C14.93805184 63.38002028 15.92535713 63.05753722 19 60.6875 C20.88250624 58.15788224 21.55516221 57.01840452 22 54 C21.12316789 51.27531853 20.17438457 48.73970928 19.0625 46.11328125 C18.74474609 45.33800583 18.42699219 44.56273041 18.09960938 43.76396179 C17.07689596 41.27566131 16.03877747 38.79413118 15 36.3125 C14.33099982 34.69248285 13.66302088 33.07204356 12.99609375 31.45117188 C11.67022476 28.23389679 10.33810273 25.01933481 9 21.80712891 C6.98711692 16.97435945 4.99147642 12.13459198 3 7.29296875 C2.01 4.88628906 1.02 2.47960937 0 0 Z " fill="#207B45" transform="translate(329,97)"/>
<path d="M0 0 C3.98657157 2.89448181 6.88177147 6.71594204 8.75390625 11.2734375 C10.1240596 20.96278516 9.88103253 30.88489832 9.81640625 40.6484375 C9.81137052 41.98176911 9.80681135 43.31510261 9.80273438 44.6484375 C9.7911098 47.85682111 9.77477294 51.06510301 9.75390625 54.2734375 C4.04024223 55.19170493 -0.51799075 55.08572101 -6.24609375 54.2734375 C-6.26067627 53.20907471 -6.27525879 52.14471191 -6.2902832 51.0480957 C-6.34839155 47.08747281 -6.4256232 43.12741102 -6.50854492 39.16723633 C-6.54173544 37.45541512 -6.56978564 35.74348602 -6.5925293 34.03149414 C-6.62618407 31.56610271 -6.67850349 29.10169469 -6.734375 26.63671875 C-6.74076492 25.87506912 -6.74715485 25.11341949 -6.7537384 24.32868958 C-6.87719496 19.83573148 -7.44018629 16.83750142 -10.24609375 13.2734375 C-13.2160171 12.06655854 -16.06718384 11.98850884 -19.24609375 12.2734375 C-23.39886127 14.57071315 -24.84228251 16.83924331 -26.24609375 21.2734375 C-26.47656333 23.87336735 -26.61697929 26.37880257 -26.66015625 28.98046875 C-26.6795224 29.70586349 -26.69888855 30.43125824 -26.71884155 31.17863464 C-26.77831483 33.48095172 -26.8248922 35.78331969 -26.87109375 38.0859375 C-26.90930333 39.65301582 -26.94835678 41.22007381 -26.98828125 42.78710938 C-27.08398938 46.61571902 -27.16813823 50.44442692 -27.24609375 54.2734375 C-28.59856759 54.47278172 -29.95324462 54.65718528 -31.30859375 54.8359375 C-32.06269531 54.94035156 -32.81679688 55.04476562 -33.59375 55.15234375 C-36.90617989 55.30357398 -39.98184259 54.81281805 -43.24609375 54.2734375 C-43.27138365 46.76205156 -43.28893516 39.25067653 -43.30102539 31.73925781 C-43.30606392 29.18228749 -43.31289482 26.62532007 -43.3215332 24.06835938 C-43.33361977 20.39973233 -43.33932676 16.73114327 -43.34375 13.0625 C-43.35149193 11.3390184 -43.35149193 11.3390184 -43.35939026 9.58071899 C-43.35946579 8.5197702 -43.35954132 7.45882141 -43.35961914 6.36572266 C-43.36183975 5.42862457 -43.36406036 4.49152649 -43.36634827 3.52603149 C-43.24609375 1.2734375 -43.24609375 1.2734375 -42.24609375 -0.7265625 C-37.95609375 -0.7265625 -33.66609375 -0.7265625 -29.24609375 -0.7265625 C-28.58609375 0.9234375 -27.92609375 2.5734375 -27.24609375 4.2734375 C-26.35921875 3.4896875 -25.47234375 2.7059375 -24.55859375 1.8984375 C-17.25238178 -4.08553657 -8.26191712 -4.70678915 0 0 Z " fill="#F7AD0D" transform="translate(680.24609375,96.7265625)"/>
<path d="M0 0 C0.01981934 1.03406982 0.03963867 2.06813965 0.06005859 3.13354492 C0.13632227 6.98225619 0.22500714 10.8305996 0.31738281 14.67895508 C0.35558696 16.34229248 0.39045463 18.00571008 0.421875 19.66918945 C0.46771234 22.0649068 0.52567467 24.46007609 0.5859375 26.85546875 C0.59748871 27.5952446 0.60903992 28.33502045 0.62094116 29.09721375 C0.76910885 34.31969279 1.23053399 38.23053399 5 42 C9.20308267 42.34451497 11.95415539 42.40924354 15.875 40.875 C19.46611408 37.70636993 19.91894142 33.94328358 20.31884766 29.28955078 C20.35991224 27.92505347 20.39124114 26.56023682 20.4140625 25.1953125 C20.43342865 24.4713327 20.4527948 23.74735291 20.4727478 23.00143433 C20.53209886 20.70940602 20.57874878 18.41732626 20.625 16.125 C20.66322087 14.56247919 20.70227494 12.99997852 20.7421875 11.4375 C20.83931845 7.62511019 20.91923599 3.81291154 21 0 C25.95 0.33 30.9 0.66 36 1 C36 18.82 36 36.64 36 55 C31.05 55 26.1 55 21 55 C20.505 53.02 20.505 53.02 20 51 C18.989375 51.825 17.97875 52.65 16.9375 53.5 C10.918313 57.27948951 3.85058705 57.0820644 -3 56 C-6.87975181 53.88712684 -9.55900269 51.86857405 -11.8125 48.0625 C-12.21082031 47.41410156 -12.60914063 46.76570313 -13.01953125 46.09765625 C-15.39999077 41.00480062 -15.13289588 35.69821703 -15.09765625 30.19921875 C-15.0962413 29.36284378 -15.09482635 28.52646881 -15.09336853 27.66474915 C-15.08779184 25.005629 -15.07524365 22.3465945 -15.0625 19.6875 C-15.05748199 17.87955851 -15.05291961 16.0716157 -15.04882812 14.26367188 C-15.03783004 9.84241516 -15.0205815 5.42122207 -15 1 C-12.68753088 0.83290546 -10.37502385 0.66633538 -8.0625 0.5 C-6.77472656 0.4071875 -5.48695313 0.314375 -4.16015625 0.21875 C-1 0 -1 0 0 0 Z " fill="#217B45" transform="translate(289,96)"/>
<path d="M0 0 C0 5.28 0 10.56 0 16 C4.62 16 9.24 16 14 16 C14 20.29 14 24.58 14 29 C9.71 29 5.42 29 1 29 C1 38.57 1 48.14 1 58 C8.54239568 58.26148818 8.54239568 58.26148818 14 57 C14 61.29 14 65.58 14 70 C7.96863329 73.01568336 1.33062332 72.88852444 -5.265625 71.53515625 C-9.76735906 69.8812583 -11.80796924 67.13113489 -14 63 C-15.1947452 59.39220039 -15.20430513 55.82628421 -15.31640625 52.046875 C-15.33718735 51.38665344 -15.35796844 50.72643188 -15.37937927 50.04620361 C-15.44450147 47.94756985 -15.50358502 45.84881628 -15.5625 43.75 C-15.60572079 42.32290453 -15.6493362 40.89582095 -15.69335938 39.46875 C-15.80014411 35.97929278 -15.90151566 32.48970247 -16 29 C-17.299375 29.020625 -18.59875 29.04125 -19.9375 29.0625 C-21.29165633 29.08399454 -22.64756083 29.07148199 -24 29 C-25 28 -25 28 -25.1328125 25.53125 C-25.13023437 24.5309375 -25.12765625 23.530625 -25.125 22.5 C-25.12757813 21.4996875 -25.13015625 20.499375 -25.1328125 19.46875 C-25 17 -25 17 -24 16 C-20.99668982 15.85806663 -18.00782866 15.95763622 -15 16 C-15 11.05 -15 6.1 -15 1 C-10.73840618 -1.13079691 -4.59236298 -0.04502317 0 0 Z " fill="#F8AE0C" transform="translate(720,80)"/>
<path d="M0 0 C8.98290678 6.41188285 13.37470339 14.59959268 15.375 25.375 C16.55134036 38.43505149 14.75148488 49.10951284 6.375 59.375 C-0.06171855 66.6613078 -7.7548925 69.89543589 -17.40234375 70.68359375 C-26.91185897 70.85042735 -26.91185897 70.85042735 -30.625 68.375 C-29.635 67.385 -28.645 66.395 -27.625 65.375 C-28.615 65.045 -29.605 64.715 -30.625 64.375 C-29.965 64.375 -29.305 64.375 -28.625 64.375 C-29.12 61.9 -29.12 61.9 -29.625 59.375 C-28.91214844 59.39820313 -28.19929688 59.42140625 -27.46484375 59.4453125 C-18.92004362 59.60631816 -12.56446492 58.7723616 -5.625 53.375 C0.23933006 47.17556537 1.94427548 40.83697386 1.875 32.5625 C1.86641968 31.37382324 1.86641968 31.37382324 1.85766602 30.16113281 C1.60457311 21.84059704 -0.86244769 15.83348667 -6.75 9.875 C-12.84395166 5.16482776 -21.20406662 5.04518074 -28.625 5.375 C-28.625 4.385 -28.625 3.395 -28.625 2.375 C-29.615 2.045 -30.605 1.715 -31.625 1.375 C-30.305 0.055 -28.985 -1.265 -27.625 -2.625 C-28.615 -3.285 -29.605 -3.945 -30.625 -4.625 C-19.95252869 -7.82932553 -9.29480121 -5.63321286 0 0 Z " fill="#354449" transform="translate(449.625,80.625)"/>
<path d="M0 0 C0.9796875 -0.00257812 1.959375 -0.00515625 2.96875 -0.0078125 C5.5 0.125 5.5 0.125 7.5 1.125 C7.35851011 2.7295556 7.21164314 4.33363767 7.0625 5.9375 C6.98128906 6.83082031 6.90007812 7.72414063 6.81640625 8.64453125 C6.5 11.125 6.5 11.125 5.5 14.125 C3.705625 14.0321875 3.705625 14.0321875 1.875 13.9375 C-2.28117941 13.95221214 -4.99467812 14.76094571 -8.5 17.125 C-12.29509622 22.22875009 -12.62218918 26.55308149 -12.52734375 32.7890625 C-12.51509766 34.07554687 -12.50285156 35.36203125 -12.49023438 36.6875 C-12.46534062 38.72632335 -12.43725562 40.76500533 -12.40405273 42.80371094 C-12.37393265 44.77788104 -12.35669293 46.75223453 -12.33984375 48.7265625 C-12.32300537 49.90557129 -12.30616699 51.08458008 -12.28881836 52.29931641 C-12.5 55.125 -12.5 55.125 -14.5 57.125 C-17.7578125 57.1015625 -17.7578125 57.1015625 -21.625 56.75 C-22.90632813 56.63914063 -24.18765625 56.52828125 -25.5078125 56.4140625 C-26.49523437 56.31867188 -27.48265625 56.22328125 -28.5 56.125 C-28.6702507 37.76673583 -28.17577216 19.46738713 -27.5 1.125 C-20.57 1.62 -20.57 1.62 -13.5 2.125 C-13.17 3.115 -12.84 4.105 -12.5 5.125 C-11.71625 4.485625 -10.9325 3.84625 -10.125 3.1875 C-6.41871095 0.27541575 -4.65412815 -0.01224771 0 0 Z " fill="#354349" transform="translate(502.5,94.875)"/>
<path d="M0 0 C33 0 33 0 37 1 C37 1.66 37 2.32 37 3 C25.45 2.67 13.9 2.34 2 2 C2 25.76 2 49.52 2 74 C28.00961165 75.96474409 28.00961165 75.96474409 49.5 65.5 C52.49325191 60.51124682 53.50744885 56.88640668 53 51 C51.33577398 45.83214026 49.55354875 42.99575576 45 40 C44.67 40 44.34 40 44 40 C44 40.99 44 41.98 44 43 C42.66666667 43 41.33333333 43 40 43 C40.350625 44.175625 40.70125 45.35125 41.0625 46.5625 C42.06986508 50.6941568 42.17750489 53.83948274 41 58 C38.04411034 61.69486208 35.48651683 63.61763443 31 65 C28.229041 65.16299759 25.57696117 65.23503372 22.8125 65.1875 C22.08869141 65.18685547 21.36488281 65.18621094 20.61914062 65.18554688 C15.28172304 65.14086152 15.28172304 65.14086152 13 64 C11.59648222 57.27531916 11.48809753 49.71810577 13 43 C15 41 15 41 18.08203125 40.76953125 C19.31308594 40.78371094 20.54414063 40.79789063 21.8125 40.8125 C23.64748047 40.82216797 23.64748047 40.82216797 25.51953125 40.83203125 C28.47662799 40.97474187 31.12846565 41.31630135 34 42 C33.835 40.72125 33.67 39.4425 33.5 38.125 C33.23273927 36.05372935 33 34.08896425 33 32 C31.515 32.495 31.515 32.495 30 33 C27.25917841 33.07056698 24.55153023 33.09336154 21.8125 33.0625 C19.234375 33.041875 16.65625 33.02125 14 33 C14 25.74 14 18.48 14 11 C16.35125 10.938125 18.7025 10.87625 21.125 10.8125 C21.85348145 10.78518799 22.58196289 10.75787598 23.33251953 10.72973633 C27.99914187 10.67088145 31.04161077 11.57541286 35 14 C37.67498395 16.76722477 38.82059027 19.14269089 39 23 C38.19120096 25.47276139 37.15093077 27.65210122 36 30 C37.32 29.67 38.64 29.34 40 29 C40.66 30.32 41.32 31.64 42 33 C44.93576279 31.987668 45.97512741 31.03642058 47.75 28.4375 C50.11545749 21.93249191 49.60062733 15.37153696 47 9 C45.21734114 7.6501992 45.21734114 7.6501992 43 7 C40.25 5.5 40.25 5.5 38 4 C38 3.34 38 2.68 38 2 C43.61373726 3.92470992 47.40539559 6.5294956 50.3125 11.75 C52.88654587 17.38988099 52.72916696 21.81249911 50.75 27.75 C49.09320346 30.82690787 47.74395868 32.85628228 45 35 C44.01 35 43.02 35 42 35 C42 35.66 42 36.32 42 37 C42.721875 37.061875 43.44375 37.12375 44.1875 37.1875 C48.74079342 38.50289588 51.00932663 41.65551471 53.75 45.375 C56.29615782 50.72193143 56.37042502 55.52015751 54.70703125 61.08984375 C51.98951639 68.43163804 46.77134158 71.66858675 40 75 C27.06072504 78.23481874 13.33749935 76 0 76 C0 50.92 0 25.84 0 0 Z M15 13 C14.97316013 15.97922593 14.95323963 18.95821295 14.9375 21.9375 C14.92912109 22.78763672 14.92074219 23.63777344 14.91210938 24.51367188 C14.90888672 25.32255859 14.90566406 26.13144531 14.90234375 26.96484375 C14.89710693 27.7137085 14.89187012 28.46257324 14.88647461 29.23413086 C14.80658248 31.02667739 14.80658248 31.02667739 16 32 C22.39929755 32.51751706 28.6427923 32.9835647 34 29 C36.36865914 26.1728907 36.98558726 24.69181167 37.0625 21 C35.98083981 17.94590064 34.8876849 15.90958013 32.296875 13.90234375 C26.98488381 11.81549007 20.61826473 12.67834362 15 13 Z M15 43 C15 49.6 15 56.2 15 63 C18.774375 63.0928125 18.774375 63.0928125 22.625 63.1875 C23.40568848 63.21481201 24.18637695 63.24212402 24.99072266 63.27026367 C29.72895222 63.3261986 32.88338062 62.58139892 37 60 C39.62068349 56.95662562 40 55.47923201 40 51.4375 C38.79935439 47.31028071 37.66330186 46.16467837 34 44 C27.81719761 42.33162475 21.34319411 42.94071781 15 43 Z " fill="#125228" transform="translate(213,75)"/>
<path d="M0 0 C3.63 0 7.26 0 11 0 C11 16.83 11 33.66 11 51 C7.37 51 3.74 51 0 51 C-0.33 49.02 -0.66 47.04 -1 45 C-2.65 45.99 -4.3 46.98 -6 48 C-6.99 46.35 -7.98 44.7 -9 43 C-8.236875 42.34 -7.47375 41.68 -6.6875 41 C0.34808425 33.77613955 -0.46605371 23.90765025 -0.3125 14.5 C-0.27927158 13.09111514 -0.24477695 11.68225955 -0.20898438 10.2734375 C-0.12689262 6.84903869 -0.05761189 3.42488356 0 0 Z " fill="#217C46" transform="translate(312,98)"/>
<path d="M0 0 C1.02996094 -0.00128906 2.05992188 -0.00257812 3.12109375 -0.00390625 C4.74724609 0.00189453 4.74724609 0.00189453 6.40625 0.0078125 C7.49035156 0.00394531 8.57445313 0.00007813 9.69140625 -0.00390625 C10.72136719 -0.00261719 11.75132813 -0.00132813 12.8125 0 C14.24045898 0.00169189 14.24045898 0.00169189 15.69726562 0.00341797 C17.90625 0.1328125 17.90625 0.1328125 18.90625 1.1328125 C19.0054157 2.75538794 19.03704777 4.38221081 19.0390625 6.0078125 C19.04099609 7.48507813 19.04099609 7.48507813 19.04296875 8.9921875 C19.03910156 10.02859375 19.03523438 11.065 19.03125 12.1328125 C19.03705078 13.68742188 19.03705078 13.68742188 19.04296875 15.2734375 C19.04167969 16.25828125 19.04039063 17.243125 19.0390625 18.2578125 C19.03793457 19.16789062 19.03680664 20.07796875 19.03564453 21.015625 C18.90625 23.1328125 18.90625 23.1328125 17.90625 24.1328125 C11.15094592 24.93607478 5.43440153 24.2661295 -0.09375 20.1328125 C-4.78248699 14.5803608 -6.61029427 8.36443229 -6.09375 1.1328125 C-4.40858046 -0.55235704 -2.30607212 0.00273231 0 0 Z " fill="#0B354D" transform="translate(80.09375,123.8671875)"/>
<path d="M0 0 C5.61 0 11.22 0 17 0 C21.42857143 9.57142857 21.42857143 9.57142857 22 14 C21.34 14 20.68 14 20 14 C19.32942113 12.2097939 18.6636531 10.41778511 18 8.625 C17.62875 7.62726563 17.2575 6.62953125 16.875 5.6015625 C16 3 16 3 16 1 C11.71 1 7.42 1 3 1 C3.66386719 2.59328125 4.32773437 4.1865625 5.01171875 5.828125 C6.78255208 10.078125 8.55338542 14.328125 10.32421875 18.578125 C10.76604492 19.63813721 11.20787109 20.69814941 11.66308594 21.7902832 C12.55282168 23.92639638 13.44149746 26.06295137 14.32910156 28.19995117 C16.13646002 32.54860862 17.94424696 36.89429698 19.8359375 41.20703125 C20.34382813 42.39683594 20.85171875 43.58664063 21.375 44.8125 C22.16003906 46.61654297 22.16003906 46.61654297 22.9609375 48.45703125 C24.14402394 52.49108915 24.01525386 54.94384222 23 59 C21.30026531 61.97305511 19.09963051 64.45018474 16 66 C13.3276379 66.13415472 10.67749512 66.04318541 8 66 C8 69.3 8 72.6 8 76 C19.16292556 75.11068875 19.16292556 75.11068875 28 69 C32.58384175 61.06793357 35.91669646 52.53380712 39.1875 44 C40.13524272 41.55722417 41.08316515 39.11451806 42.03125 36.671875 C42.51960909 35.4082332 43.00788955 34.14456102 43.49609375 32.88085938 C45.78831604 26.9557802 48.11885981 21.04572447 50.44595337 15.13427734 C51.62553556 12.13694729 52.80291086 9.13875079 53.98046875 6.140625 C54.64691406 4.44421875 55.31335938 2.7478125 56 1 C52.04 1 48.08 1 44 1 C43.60167969 2.52238281 43.20335937 4.04476562 42.79296875 5.61328125 C40.89792952 12.56175844 38.61808955 19.36633793 36.3125 26.1875 C35.89677734 27.42564453 35.48105469 28.66378906 35.05273438 29.93945312 C34.03791686 32.96057653 33.02029029 35.9807214 32 39 C27.32678752 37.56205171 27.32678752 37.56205171 25.8815918 35.07641602 C25.65640869 34.30998779 25.43122559 33.54355957 25.19921875 32.75390625 C24.94462891 31.91666016 24.69003906 31.07941406 24.42773438 30.21679688 C24.18345703 29.34087891 23.93917969 28.46496094 23.6875 27.5625 C23.42388672 26.69044922 23.16027344 25.81839844 22.88867188 24.91992188 C21 18.53768263 21 18.53768263 21 15 C21.66 15 22.32 15 23 15 C25.31 21.93 27.62 28.86 30 36 C33.96 24.12 37.92 12.24 42 0 C47.61 0 53.22 0 59 0 C56.53711668 7.72864396 53.59501798 15.22959172 50.5625 22.75 C50.30388184 23.39274872 50.04526367 24.03549744 49.77880859 24.69772339 C48.13792186 28.77491294 46.49027405 32.84933261 44.84014893 36.92279053 C44.00141304 38.99650635 43.16603464 41.07154566 42.33154297 43.14697266 C40.98781675 46.48713956 39.63490356 49.82344522 38.27511597 53.15710449 C37.51480666 55.02610217 36.76232809 56.89827928 36.01000977 58.77050781 C35.54264404 59.9097168 35.07527832 61.04892578 34.59375 62.22265625 C33.98563477 63.71937866 33.98563477 63.71937866 33.36523438 65.24633789 C31.13119918 69.7523613 28.60829983 73.1258618 24 75.25 C23.34 75.56453125 22.68 75.8790625 22 76.203125 C18.33188484 77.66463963 15.19610111 78.1205309 11.25 78.0625 C10.05117188 78.04896484 10.05117188 78.04896484 8.828125 78.03515625 C8.22484375 78.02355469 7.6215625 78.01195312 7 78 C5.68835158 75.37670316 5.86737154 73.36301375 5.875 70.4375 C5.87242187 69.44621094 5.86984375 68.45492187 5.8671875 67.43359375 C6 65 6 65 7 64 C8.41520618 63.89473673 9.83240688 63.81571624 11.25 63.75 C14.93805184 63.38002028 15.92535713 63.05753722 19 60.6875 C20.88250624 58.15788224 21.55516221 57.01840452 22 54 C21.12316789 51.27531853 20.17438457 48.73970928 19.0625 46.11328125 C18.74474609 45.33800583 18.42699219 44.56273041 18.09960938 43.76396179 C17.07689596 41.27566131 16.03877747 38.79413118 15 36.3125 C14.33099982 34.69248285 13.66302088 33.07204356 12.99609375 31.45117188 C11.67022476 28.23389679 10.33810273 25.01933481 9 21.80712891 C6.98711692 16.97435945 4.99147642 12.13459198 3 7.29296875 C2.01 4.88628906 1.02 2.47960937 0 0 Z " fill="#0F5429" transform="translate(329,97)"/>
<path d="M0 0 C13.97727273 0 13.97727273 0 19 4 C25.06724644 10.15603541 24 14.94010859 24 24 C16.08 24 8.16 24 0 24 C0 16.08 0 8.16 0 0 Z " fill="#113644" transform="translate(105,94)"/>
<path d="M0 0 C7.92 0 15.84 0 24 0 C24 14.05539359 24 14.05539359 20 19 C13.746553 23.99115028 7.93612015 24 0 24 C0 16.08 0 8.16 0 0 Z " fill="#0B354C" transform="translate(105,124)"/>
<path d="M0 0 C0 7.92 0 15.84 0 24 C-7.59 24 -15.18 24 -23 24 C-23.72901881 11.16926899 -23.72901881 11.16926899 -19.60546875 5.625 C-13.72826355 -0.32370404 -8.52343036 0 0 0 Z " fill="#0E3143" transform="translate(98,94)"/>
<path d="M0 0 C8.81841857 7.38098404 13.25488955 15.44806585 15.1328125 26.78515625 C16.21439052 39.8350157 13.53974481 51.00268318 5.4140625 61.40234375 C-1.57263168 68.70008939 -10.30689851 71.98208462 -20.25390625 72.26660156 C-32.91387912 72.35238597 -41.09968133 70.36775184 -50.8671875 61.78515625 C-58.80203 51.03472448 -61.68950336 39.98706353 -60.8671875 26.78515625 C-59.09902005 16.16222896 -54.48131176 6.479466 -45.8671875 -0.21484375 C-31.39763853 -9.12827506 -14.20677888 -10.36229212 0 0 Z M-50.6796875 6.66015625 C-57.92642117 17.01263293 -59.93771916 27.21979091 -58.8671875 39.78515625 C-56.69609539 50.87499604 -52.18170627 59.21020182 -42.8671875 65.78515625 C-32.20752486 71.29171845 -21.36004197 72.69406555 -9.6171875 69.34765625 C-0.72816495 65.97718575 6.09726826 59.47609191 10.23828125 50.9453125 C14.89424652 39.70186798 14.4553829 27.13159813 10.453125 15.7265625 C6.11050864 6.05203552 -1.3368176 -0.22068643 -11.1171875 -4.08984375 C-25.2045761 -8.22017758 -40.83508019 -4.35499888 -50.6796875 6.66015625 Z " fill="#0A1416" transform="translate(451.8671875,80.21484375)"/>
<path d="M0 0 C2.35125 -0.061875 4.7025 -0.12375 7.125 -0.1875 C7.85348145 -0.21481201 8.58196289 -0.24212402 9.33251953 -0.27026367 C13.99914187 -0.32911855 17.04161077 0.57541286 21 3 C23.67498395 5.76722477 24.82059027 8.14269089 25 12 C24.19120096 14.47276139 23.15093077 16.65210122 22 19 C23.32 18.67 24.64 18.34 26 18 C26.66 19.32 27.32 20.64 28 22 C27.67 22.33 27.34 22.66 27 23 C27.18068911 25.48823926 27.18068911 25.48823926 28 28 C28.99 28.66 29.98 29.32 31 30 C30.67 30.66 30.34 31.32 30 32 C28.66666667 32 27.33333333 32 26 32 C26.350625 33.175625 26.70125 34.35125 27.0625 35.5625 C28.06986508 39.6941568 28.17750489 42.83948274 27 47 C24.04411034 50.69486208 21.48651683 52.61763443 17 54 C14.229041 54.16299759 11.57696117 54.23503372 8.8125 54.1875 C8.08869141 54.18685547 7.36488281 54.18621094 6.61914062 54.18554688 C1.28172304 54.14086152 1.28172304 54.14086152 -1 53 C-2.40351778 46.27531916 -2.51190247 38.71810577 -1 32 C1 30 1 30 4.08203125 29.76953125 C5.31308594 29.78371094 6.54414063 29.79789063 7.8125 29.8125 C9.64748047 29.82216797 9.64748047 29.82216797 11.51953125 29.83203125 C14.47662799 29.97474187 17.12846565 30.31630135 20 31 C19.835 29.72125 19.67 28.4425 19.5 27.125 C19.23273927 25.05372935 19 23.08896425 19 21 C18.01 21.33 17.02 21.66 16 22 C13.25917841 22.07056698 10.55153023 22.09336154 7.8125 22.0625 C5.234375 22.041875 2.65625 22.02125 0 22 C0 14.74 0 7.48 0 0 Z M1 2 C0.97316013 4.97922593 0.95323963 7.95821295 0.9375 10.9375 C0.92912109 11.78763672 0.92074219 12.63777344 0.91210938 13.51367188 C0.90888672 14.32255859 0.90566406 15.13144531 0.90234375 15.96484375 C0.89710693 16.7137085 0.89187012 17.46257324 0.88647461 18.23413086 C0.80658248 20.02667739 0.80658248 20.02667739 2 21 C8.39929755 21.51751706 14.6427923 21.9835647 20 18 C22.36865914 15.1728907 22.98558726 13.69181167 23.0625 10 C21.98083981 6.94590064 20.8876849 4.90958013 18.296875 2.90234375 C12.98488381 0.81549007 6.61826473 1.67834362 1 2 Z M1 32 C1 38.6 1 45.2 1 52 C4.774375 52.0928125 4.774375 52.0928125 8.625 52.1875 C9.40568848 52.21481201 10.18637695 52.24212402 10.99072266 52.27026367 C15.72895222 52.3261986 18.88338062 51.58139892 23 49 C25.62068349 45.95662562 26 44.47923201 26 40.4375 C24.79935439 36.31028071 23.66330186 35.16467837 20 33 C13.81719761 31.33162475 7.34319411 31.94071781 1 32 Z " fill="#186A39" transform="translate(227,86)"/>
<path d="M0 0 C0.01981934 1.03406982 0.03963867 2.06813965 0.06005859 3.13354492 C0.13632227 6.98225619 0.22500714 10.8305996 0.31738281 14.67895508 C0.35558696 16.34229248 0.39045463 18.00571008 0.421875 19.66918945 C0.46771234 22.0649068 0.52567467 24.46007609 0.5859375 26.85546875 C0.59748871 27.5952446 0.60903992 28.33502045 0.62094116 29.09721375 C0.76910885 34.31969279 1.23053399 38.23053399 5 42 C9.20308267 42.34451497 11.95415539 42.40924354 15.875 40.875 C19.46611408 37.70636993 19.91894142 33.94328358 20.31884766 29.28955078 C20.35991224 27.92505347 20.39124114 26.56023682 20.4140625 25.1953125 C20.43342865 24.4713327 20.4527948 23.74735291 20.4727478 23.00143433 C20.53209886 20.70940602 20.57874878 18.41732626 20.625 16.125 C20.66322087 14.56247919 20.70227494 12.99997852 20.7421875 11.4375 C20.83931845 7.62511019 20.91923599 3.81291154 21 0 C25.95 0.33 30.9 0.66 36 1 C35.67 18.49 35.34 35.98 35 54 C30.71 54 26.42 54 22 54 C22 52.02 22 50.04 22 48 C22.33 48 22.66 48 23 48 C23 49.65 23 51.3 23 53 C26.63 53 30.26 53 34 53 C34 36.17 34 19.34 34 2 C30.37 2 26.74 2 23 2 C23.01571045 2.86689453 23.0314209 3.73378906 23.04760742 4.62695312 C23.09907199 7.87725574 23.13651261 11.12734898 23.16479492 14.37792969 C23.17977914 15.77839031 23.20017379 17.17880483 23.22631836 18.57910156 C23.53751213 35.68865709 23.53751213 35.68865709 18 42.4375 C14.58358935 45.10657082 11.26593724 45.33615677 7.00390625 45.2890625 C3.8204167 44.82984568 2.15774762 43.2885202 0 41 C-1.25282725 37.24151826 -1.12381835 33.74509081 -1.09765625 29.83203125 C-1.0962413 29.03721848 -1.09482635 28.2424057 -1.09336853 27.42350769 C-1.08777378 24.88646675 -1.07522228 22.34951425 -1.0625 19.8125 C-1.05748432 18.09179815 -1.05292153 16.37109492 -1.04882812 14.65039062 C-1.03780607 10.4335597 -1.02054506 6.21679484 -1 2 C-4.96 2 -8.92 2 -13 2 C-12.9307921 7.40815732 -12.84266686 12.81556577 -12.73754883 18.22314453 C-12.70444262 20.05997358 -12.67636683 21.89690086 -12.65356445 23.73388672 C-12.61975369 26.38551411 -12.56742707 29.03625283 -12.51171875 31.6875 C-12.50213387 32.90518066 -12.50213387 32.90518066 -12.49235535 34.14746094 C-12.35141471 39.70276656 -11.34225518 43.93671252 -9 49 C-3.36361159 53.67700315 0.84311685 54.24678907 8 54 C10.0064731 53.70814937 12.00994193 53.38830401 14 53 C14 53.66 14 54.32 14 55 C10.96843143 56.51578428 8.12033386 56.24971927 4.75 56.3125 C3.44546875 56.34988281 2.1409375 56.38726562 0.796875 56.42578125 C-4.32472629 55.8514453 -7.34893985 53.97264431 -10.64453125 50.03515625 C-11.02996094 49.38417969 -11.41539062 48.73320312 -11.8125 48.0625 C-12.21082031 47.41410156 -12.60914063 46.76570313 -13.01953125 46.09765625 C-15.39999077 41.00480062 -15.13289588 35.69821703 -15.09765625 30.19921875 C-15.0962413 29.36284378 -15.09482635 28.52646881 -15.09336853 27.66474915 C-15.08779184 25.005629 -15.07524365 22.3465945 -15.0625 19.6875 C-15.05748199 17.87955851 -15.05291961 16.0716157 -15.04882812 14.26367188 C-15.03783004 9.84241516 -15.0205815 5.42122207 -15 1 C-12.68753088 0.83290546 -10.37502385 0.66633538 -8.0625 0.5 C-6.77472656 0.4071875 -5.48695313 0.314375 -4.16015625 0.21875 C-1 0 -1 0 0 0 Z " fill="#0E5729" transform="translate(289,96)"/>
<path d="M0 0 C4.70439189 2.82263514 4.70439189 2.82263514 6.8125 4.6875 C6.8125 5.3475 6.8125 6.0075 6.8125 6.6875 C7.8025 7.0175 8.7925 7.3475 9.8125 7.6875 C11.5 9.125 11.5 9.125 12.8125 10.6875 C12.8125 11.3475 12.8125 12.0075 12.8125 12.6875 C13.4725 12.6875 14.1325 12.6875 14.8125 12.6875 C14.8125 13.3475 14.8125 14.0075 14.8125 14.6875 C16.2975 15.1825 16.2975 15.1825 17.8125 15.6875 C17.8125 16.3475 17.8125 17.0075 17.8125 17.6875 C18.4725 17.6875 19.1325 17.6875 19.8125 17.6875 C20.95603517 18.76173001 22.08885494 19.84916121 23.171875 20.984375 C24.46983753 22.33178373 25.79983356 23.64832796 27.140625 24.953125 C27.96046875 25.75234375 28.7803125 26.5515625 29.625 27.375 C30.81029297 28.52548828 30.81029297 28.52548828 32.01953125 29.69921875 C33.8125 31.6875 33.8125 31.6875 33.8125 33.6875 C29.57637451 32.05217932 26.81199417 28.88731583 23.7265625 25.69140625 C22.53658067 24.4809995 21.34647256 23.27071691 20.15625 22.06054688 C18.29522959 20.15609284 16.43675736 18.24923578 14.58105469 16.33959961 C12.78193756 14.49199326 10.97353878 12.65386025 9.1640625 10.81640625 C8.61698639 10.24757217 8.06991028 9.6787381 7.5062561 9.09266663 C3.31950649 4.85285185 -0.54287949 2.02408806 -6.625 1.25 C-14.21438637 2.18202991 -19.06768037 7.14135278 -24.19262695 12.38378906 C-24.85367935 13.04761597 -25.51473175 13.71144287 -26.19581604 14.39538574 C-28.36274738 16.57452869 -30.51905368 18.76388717 -32.67578125 20.953125 C-34.18475812 22.47278365 -35.69455148 23.99163194 -37.2051239 25.50970459 C-41.16769556 29.4950025 -45.12202252 33.48836794 -49.0737915 37.484375 C-55.4150352 43.89596884 -61.76395123 50.2998881 -68.12193871 56.69487762 C-70.34333972 58.93303307 -72.55824376 61.17748043 -74.77278137 63.42242432 C-76.12470844 64.78480499 -77.47688285 66.14694027 -78.8293457 67.50878906 C-79.44700806 68.1383551 -80.06467041 68.76792114 -80.7010498 69.41656494 C-82.15900725 70.87861686 -83.66843549 72.28904416 -85.1875 73.6875 C-85.8475 73.6875 -86.5075 73.6875 -87.1875 73.6875 C-87.6515625 74.863125 -87.6515625 74.863125 -88.125 76.0625 C-89.1875 78.6875 -89.1875 78.6875 -90.1875 80.6875 C-90.63158691 84.5954648 -90.32454844 86.43298146 -88.4375 89.9375 C-85.61950482 93.38171633 -83.78141164 94.45152984 -79.390625 95.1015625 C-78.41609375 95.17117187 -77.4415625 95.24078125 -76.4375 95.3125 C-75.45265625 95.38726562 -74.4678125 95.46203125 -73.453125 95.5390625 C-72.33164063 95.61253906 -72.33164063 95.61253906 -71.1875 95.6875 C-75.0524169 97.80560948 -77.74729772 98.07027606 -82.1875 97.6875 C-86.83336577 95.95668726 -89.66574791 93.98381838 -92.1875 89.6875 C-93.35689243 85.95827902 -93.94197008 82.43580457 -92.35612488 78.76098633 C-88.96315 73.46258995 -85.02157683 69.09860055 -80.55078125 64.6875 C-79.83012985 63.9663501 -79.10947845 63.2452002 -78.36698914 62.50219727 C-76.855273 60.99280651 -75.33989992 59.4870702 -73.82104492 57.98486328 C-71.48756137 55.67518828 -69.16790874 53.35224935 -66.84960938 51.02734375 C-65.37579385 49.55909854 -63.90121179 48.09162228 -62.42578125 46.625 C-61.38204094 45.57989258 -61.38204094 45.57989258 -60.31721497 44.51367188 C-59.67281967 43.87880859 -59.02842438 43.24394531 -58.36450195 42.58984375 C-57.79778275 42.02773193 -57.23106354 41.46562012 -56.64717102 40.88647461 C-55.1875 39.6875 -55.1875 39.6875 -53.1875 39.6875 C-52.5275 38.3675 -51.8675 37.0475 -51.1875 35.6875 C-50.5275 35.6875 -49.8675 35.6875 -49.1875 35.6875 C-48.8575 34.6975 -48.5275 33.7075 -48.1875 32.6875 C-46.69921875 31.2578125 -46.69921875 31.2578125 -44.875 29.8125 C-42.70134669 28.02165608 -41.01410488 26.46935776 -39.25 24.25 C-37.50041691 22.07627555 -35.92131422 20.5333524 -33.8125 18.75 C-30.98123353 16.35062164 -28.32489492 13.84526825 -25.73046875 11.1953125 C-25.11671387 10.56874756 -24.50295898 9.94218262 -23.87060547 9.29663086 C-22.64045417 8.03292414 -21.41660598 6.76304546 -20.19970703 5.48657227 C-14.28835434 -0.57633234 -8.45559417 -3.48171525 0 0 Z " fill="#02121F" transform="translate(108.1875,9.3125)"/>
<path d="M0 0 C0.9796875 -0.00257812 1.959375 -0.00515625 2.96875 -0.0078125 C5.5 0.125 5.5 0.125 7.5 1.125 C7.35851011 2.7295556 7.21164314 4.33363767 7.0625 5.9375 C6.98128906 6.83082031 6.90007812 7.72414063 6.81640625 8.64453125 C6.5 11.125 6.5 11.125 5.5 14.125 C3.705625 14.0321875 3.705625 14.0321875 1.875 13.9375 C-2.28117941 13.95221214 -4.99467812 14.76094571 -8.5 17.125 C-12.29509622 22.22875009 -12.62218918 26.55308149 -12.52734375 32.7890625 C-12.51509766 34.07554687 -12.50285156 35.36203125 -12.49023438 36.6875 C-12.46534062 38.72632335 -12.43725562 40.76500533 -12.40405273 42.80371094 C-12.37393265 44.77788104 -12.35669293 46.75223453 -12.33984375 48.7265625 C-12.32300537 49.90557129 -12.30616699 51.08458008 -12.28881836 52.29931641 C-12.5 55.125 -12.5 55.125 -14.5 57.125 C-17.7578125 57.1015625 -17.7578125 57.1015625 -21.625 56.75 C-22.90632813 56.63914063 -24.18765625 56.52828125 -25.5078125 56.4140625 C-26.49523437 56.31867188 -27.48265625 56.22328125 -28.5 56.125 C-28.6702507 37.76673583 -28.17577216 19.46738713 -27.5 1.125 C-20.57 1.62 -20.57 1.62 -13.5 2.125 C-13.17 3.115 -12.84 4.105 -12.5 5.125 C-11.71625 4.485625 -10.9325 3.84625 -10.125 3.1875 C-6.41871095 0.27541575 -4.65412815 -0.01224771 0 0 Z M-9.5 4.125 C-10.78254644 6.66270003 -10.78254644 6.66270003 -11.5 9.125 C-12.49 9.125 -13.48 9.125 -14.5 9.125 C-14.83 7.145 -15.16 5.165 -15.5 3.125 C-19.13 3.125 -22.76 3.125 -26.5 3.125 C-26.5 19.955 -26.5 36.785 -26.5 54.125 C-22.54 54.125 -18.58 54.125 -14.5 54.125 C-14.48541748 53.22257568 -14.47083496 52.32015137 -14.45581055 51.39038086 C-14.39444423 48.01479993 -14.32023671 44.63999304 -14.23754883 41.26489258 C-14.20447017 39.80927006 -14.17638603 38.35352453 -14.15356445 36.89770508 C-14.11970079 34.79455564 -14.0673764 32.69251625 -14.01171875 30.58984375 C-13.98553467 29.327771 -13.95935059 28.06569824 -13.93237305 26.76538086 C-13.3519902 21.87882603 -12.18984607 17.6612237 -8.4375 14.25 C-4.14430096 12.60579611 -0.08367712 12.43057847 4.5 12.125 C4.83 8.825 5.16 5.525 5.5 2.125 C3.75034642 2.07070041 2.00020213 2.03207177 0.25 2 C-0.72453125 1.97679688 -1.6990625 1.95359375 -2.703125 1.9296875 C-5.56372415 2.12945001 -7.13554712 2.53436806 -9.5 4.125 Z " fill="#091112" transform="translate(502.5,94.875)"/>
<path d="M0 0 C1.19012695 0.0009668 1.19012695 0.0009668 2.40429688 0.00195312 C3.22865234 0.01806641 4.05300781 0.03417969 4.90234375 0.05078125 C5.73056641 0.04755859 6.55878906 0.04433594 7.41210938 0.04101562 C13.57271783 0.09615533 13.57271783 0.09615533 15.83984375 2.36328125 C16.12695312 5.41674805 16.12695312 5.41674805 16.18359375 9.3125 C16.19821655 10.00334183 16.21283936 10.69418365 16.22790527 11.40596008 C16.27445848 13.62084115 16.30858693 15.83563471 16.33984375 18.05078125 C16.38125949 20.95083893 16.43513879 23.85029462 16.49609375 26.75 C16.52413086 28.68685669 16.52413086 28.68685669 16.55273438 30.6628418 C17.04611327 37.02180769 18.10676914 41.33651611 22.90234375 45.66796875 C24.09730469 46.79138672 24.09730469 46.79138672 25.31640625 47.9375 C26.99481369 49.46781267 28.67709831 50.99388405 30.36328125 52.515625 C34.9352099 56.82862565 37.77840388 59.99980317 38.80419922 66.30029297 C38.87086032 70.15841849 38.01771368 73.18289976 35.83984375 76.36328125 C32.15547037 79.98610185 28.08459374 81.70614975 22.96484375 82.23828125 C17.18484128 81.96176879 14.04909808 78.73165318 10.06640625 74.8203125 C7.88142741 72.40916918 5.83747002 69.93100634 3.83984375 67.36328125 C7.26264892 68.8291014 9.40464858 70.7439038 11.96484375 73.42578125 C15.7948329 77.42197748 17.57671805 78.53242957 23.15234375 78.67578125 C26.89668335 78.63657351 28.56804491 78.51304796 31.90234375 76.67578125 C35.03264658 72.93961336 36.07902093 70.20683779 35.71484375 65.36328125 C35.07746714 61.41302857 33.65832841 59.26005715 30.83984375 56.36328125 C30.07671875 55.55890625 29.31359375 54.75453125 28.52734375 53.92578125 C25.9774095 51.49444859 23.34552245 49.27193666 20.5859375 47.0859375 C16.27403638 42.83191425 14.39715826 39.14766583 14.23419189 33.19473267 C14.23296326 32.43824432 14.23173462 31.68175598 14.23046875 30.90234375 C14.2139325 30.11177582 14.19739624 29.32120789 14.18035889 28.50668335 C14.13206887 26.00046881 14.11055132 23.49486013 14.08984375 20.98828125 C14.06166801 19.28121983 14.03173833 17.5741864 14 15.8671875 C13.92303537 11.69894525 13.8823443 7.53258478 13.83984375 3.36328125 C7.89984375 3.36328125 1.95984375 3.36328125 -4.16015625 3.36328125 C-4.49015625 7.65328125 -4.82015625 11.94328125 -5.16015625 16.36328125 C-5.82015625 16.03328125 -6.48015625 15.70328125 -7.16015625 15.36328125 C-7.24123208 13.42646964 -7.299381 11.48868785 -7.34765625 9.55078125 C-7.38246094 8.47183594 -7.41726562 7.39289062 -7.453125 6.28125 C-7.16015625 3.36328125 -7.16015625 3.36328125 -5.90185547 1.70361328 C-3.76355316 0.05807366 -2.67336166 -0.01098195 0 0 Z " fill="#06141E" transform="translate(149.16015625,25.63671875)"/>
<path d="M0 0 C0 0.66 0 1.32 0 2 C-0.99 2 -1.98 2 -3 2 C-3 2.99 -3 3.98 -3 5 C-4.75 6.75 -4.75 6.75 -7 8 C-9.25 7.6875 -9.25 7.6875 -11 7 C-11 7.66 -11 8.32 -11 9 C-16.28 9 -21.56 9 -27 9 C-27.33 8.01 -27.66 7.02 -28 6 C-27.34 6 -26.68 6 -26 6 C-26.65585189 2.39007621 -26.65585189 2.39007621 -28 -1 C-25.14619655 -1.19629336 -22.29232606 -1.38226546 -19.4375 -1.5625 C-18.63763672 -1.61857422 -17.83777344 -1.67464844 -17.01367188 -1.73242188 C-11.08879215 -2.09516961 -5.69424317 -1.89808106 0 0 Z " fill="#F8AC09" transform="translate(625,142)"/>
<path d="M0 0 C1.42107811 0.48513565 1.42107811 0.48513565 2.87086487 0.98007202 C7.59115813 2.31947501 12.18774438 2.30738374 17.06616211 2.31884766 C18.05229492 2.32889328 19.03842773 2.3389389 20.05444336 2.34928894 C23.29540454 2.38003876 26.53628341 2.39713337 29.77734375 2.4140625 C32.03179122 2.43278073 34.28623173 2.45235463 36.54066467 2.4727478 C42.46053968 2.52400569 48.38043738 2.56366545 54.30041504 2.60089111 C60.34681789 2.64097047 66.39312684 2.69204489 72.43945312 2.7421875 C84.29290272 2.83887173 96.14640542 2.92330058 108 3 C104.93628962 5.04247359 104.3253941 5.25097328 100.87649536 5.26069641 C99.61902496 5.27132362 99.61902496 5.27132362 98.33615112 5.28216553 C97.41971832 5.27968811 96.50328552 5.27721069 95.55908203 5.2746582 C94.10743652 5.2823246 94.10743652 5.2823246 92.62646484 5.29014587 C89.42018487 5.30407119 86.21411916 5.30308274 83.0078125 5.30078125 C80.78205281 5.30466686 78.55629387 5.30900124 76.33053589 5.31376648 C71.66157632 5.32123523 66.99269235 5.32093287 62.32373047 5.31567383 C56.33915441 5.30988152 50.35488808 5.32680146 44.37036324 5.3500185 C39.77214751 5.36474837 35.17400647 5.36562849 30.57577133 5.36250877 C28.36935691 5.36302246 26.16293837 5.36826912 23.95654678 5.37832069 C20.87072879 5.39065166 17.78551529 5.38391295 14.69970703 5.37231445 C13.78732269 5.37995819 12.87493835 5.38760193 11.93490601 5.39547729 C7.18790783 5.35602377 3.79497869 5.20975512 0 2 C0 1.34 0 0.68 0 0 Z " fill="#DEA231" transform="translate(46,172)"/>
<path d="M0 0 C1.32378662 0.00713013 1.32378662 0.00713013 2.67431641 0.0144043 C3.57230957 0.01851318 4.47030273 0.02262207 5.39550781 0.02685547 C11.09629505 0.07376515 16.79226727 0.17538391 22.48681641 0.4519043 C24.33919922 0.53891602 24.33919922 0.53891602 26.22900391 0.62768555 C29.86862489 1.17825177 32.4302926 2.32486549 35.61181641 4.1394043 C34.95181641 4.4694043 34.29181641 4.7994043 33.61181641 5.1394043 C32.95181641 4.8094043 32.29181641 4.4794043 31.61181641 4.1394043 C29.40745241 3.9099011 27.19789468 3.72864496 24.98681641 3.5769043 C23.79830078 3.49311523 22.60978516 3.40932617 21.38525391 3.32299805 C20.01240234 3.23211914 20.01240234 3.23211914 18.61181641 3.1394043 C18.50869141 3.7581543 18.40556641 4.3769043 18.29931641 5.0144043 C17.61181641 7.1394043 17.61181641 7.1394043 14.61181641 9.1394043 C14.94181641 7.4894043 15.27181641 5.8394043 15.61181641 4.1394043 C14.71873779 4.10182007 14.71873779 4.10182007 13.80761719 4.06347656 C11.11712505 3.94762936 8.426993 3.82485234 5.73681641 3.7019043 C4.79966797 3.66258789 3.86251953 3.62327148 2.89697266 3.58276367 C2.00107422 3.54086914 1.10517578 3.49897461 0.18212891 3.45581055 C-0.64528809 3.41915283 -1.47270508 3.38249512 -2.32519531 3.34472656 C-4.38818359 3.1394043 -4.38818359 3.1394043 -6.38818359 2.1394043 C-6.38818359 26.8894043 -6.38818359 51.6394043 -6.38818359 77.1394043 C-6.71818359 77.1394043 -7.04818359 77.1394043 -7.38818359 77.1394043 C-7.41130787 67.24751054 -7.42909911 57.35562316 -7.43999577 47.46370792 C-7.44522441 42.87097789 -7.45232171 38.27826629 -7.46362305 33.68554688 C-7.47445259 29.25706742 -7.48046057 24.82860573 -7.48306084 20.40011406 C-7.48491496 18.70674802 -7.48853534 17.013383 -7.49391365 15.32002449 C-7.50112499 12.95649198 -7.5021745 10.59303385 -7.50170898 8.22949219 C-7.50530426 7.52243134 -7.50889954 6.81537048 -7.51260376 6.08688354 C-7.49853314 -0.47265443 -6.41843706 0.01707367 0 0 Z " fill="#E6A128" transform="translate(523.38818359375,73.860595703125)"/>
<path d="M0 0 C3 1 3 1 4 2 C4.08726223 3.78071246 4.10699041 5.5648314 4.09765625 7.34765625 C4.09515869 8.31968994 4.09266113 9.29172363 4.09008789 10.29321289 C4.08098389 11.53707764 4.07187988 12.78094238 4.0625 14.0625 C4.041875 18.001875 4.02125 21.94125 4 26 C11.92 26 19.84 26 28 26 C27.70989017 17.58681494 26.77265538 11.97406469 22 5 C23.89453125 5.328125 23.89453125 5.328125 26 6 C29.905157 12.36395956 30.51431708 18.67854508 30 26 C27.66283991 28.33716009 21.81167112 27.17162619 18.70117188 27.18554688 C18.0223999 27.18546631 17.34362793 27.18538574 16.64428711 27.18530273 C14.57449736 27.18748734 12.50524207 27.20563491 10.43554688 27.22460938 C9.13810547 27.22654297 7.84066406 27.22847656 6.50390625 27.23046875 C5.30580322 27.23457764 4.1077002 27.23868652 2.87329102 27.24291992 C0 27 0 27 -2 25 C-2.25878906 22.69335938 -2.25878906 22.69335938 -2.265625 19.84375 C-2.26820312 18.82152344 -2.27078125 17.79929687 -2.2734375 16.74609375 C-2.26183594 15.13927734 -2.26183594 15.13927734 -2.25 13.5 C-2.25773437 12.42878906 -2.26546875 11.35757813 -2.2734375 10.25390625 C-2.27085938 9.23167969 -2.26828125 8.20945312 -2.265625 7.15625 C-2.26336914 6.21587891 -2.26111328 5.27550781 -2.25878906 4.30664062 C-2 2 -2 2 0 0 Z " fill="#EFBE31" transform="translate(101,92)"/>
<path d="M0 0 C0.495 0.99 0.495 0.99 1 2 C-3.75 5 -3.75 5 -6 5 C-6 5.66 -6 6.32 -6 7 C-5.34 7 -4.68 7 -4 7 C-4 7.66 -4 8.32 -4 9 C-4.99 9.495 -4.99 9.495 -6 10 C-4.68 10.99 -3.36 11.98 -2 13 C-2.59167969 13.04898438 -3.18335938 13.09796875 -3.79296875 13.1484375 C-8.19104472 13.56456867 -11.96928897 14.04965595 -16 16 C-16 14 -16 14 -14.8125 12.375 C-12.44439338 10.57850533 -10.90102749 10.76478155 -8 11 C-8 10.34 -8 9.68 -8 9 C-8.66 9 -9.32 9 -10 9 C-10 7.02 -10 5.04 -10 3 C-13.56927631 4.66566228 -16.28953038 6.1540069 -19 9 C-19.66 9 -20.32 9 -21 9 C-21.66 8.34 -22.32 7.68 -23 7 C-23 5.68 -23 4.36 -23 3 C-26.3 3.33 -29.6 3.66 -33 4 C-33 6.31 -33 8.62 -33 11 C-33.66 10.67 -34.32 10.34 -35 10 C-35.125 3.25 -35.125 3.25 -34 1 C-29.71 1 -25.42 1 -21 1 C-20.34 2.65 -19.68 4.3 -19 6 C-18.113125 5.21625 -17.22625 4.4325 -16.3125 3.625 C-10.74572928 -0.94260674 -6.97252804 -1.39450561 0 0 Z " fill="#F4AB0C" transform="translate(672,95)"/>
<path d="M0 0 C1.23556641 0.01740234 1.23556641 0.01740234 2.49609375 0.03515625 C3.32238281 0.04417969 4.14867187 0.05320312 5 0.0625 C5.63808594 0.07410156 6.27617188 0.08570312 6.93359375 0.09765625 C6.60359375 0.75765625 6.27359375 1.41765625 5.93359375 2.09765625 C3.62359375 2.09765625 1.31359375 2.09765625 -1.06640625 2.09765625 C-1.06640625 3.41765625 -1.06640625 4.73765625 -1.06640625 6.09765625 C-0.40640625 6.09765625 0.25359375 6.09765625 0.93359375 6.09765625 C0.93359375 6.75765625 0.93359375 7.41765625 0.93359375 8.09765625 C2.07828125 8.53078125 2.07828125 8.53078125 3.24609375 8.97265625 C5.93359375 10.09765625 5.93359375 10.09765625 8.93359375 12.09765625 C9.33422852 14.9675293 9.33422852 14.9675293 9.375 18.609375 C9.40142578 19.92486328 9.42785156 21.24035156 9.45507812 22.59570312 C9.46995334 23.9921752 9.48361491 25.3886607 9.49609375 26.78515625 C9.52000461 28.83979922 9.54840583 30.89403501 9.58787537 32.94844055 C9.62319129 34.82572919 9.64318617 36.70328758 9.66235352 38.58081055 C9.82124396 42.18299573 9.82124396 42.18299573 11.01538086 45.85864258 C11.93359375 49.09765625 11.93359375 49.09765625 10.93359375 52.09765625 C7.40816655 46.57959628 6.81089561 42.67526166 6.6171875 36.14453125 C6.5964064 35.48430969 6.57562531 34.82408813 6.55421448 34.14385986 C6.48909228 32.0452261 6.43000873 29.94647253 6.37109375 27.84765625 C6.32787296 26.42056078 6.28425755 24.9934772 6.24023438 23.56640625 C6.13344964 20.07694903 6.03207809 16.58735872 5.93359375 13.09765625 C4.63421875 13.11828125 3.33484375 13.13890625 1.99609375 13.16015625 C0.64193742 13.18165079 -0.71396708 13.16913824 -2.06640625 13.09765625 C-3.06640625 12.09765625 -3.06640625 12.09765625 -3.19921875 9.62890625 C-3.19664062 8.62859375 -3.1940625 7.62828125 -3.19140625 6.59765625 C-3.19398438 5.59734375 -3.1965625 4.59703125 -3.19921875 3.56640625 C-3.01502055 0.14248679 -3.01502055 0.14248679 0 0 Z " fill="#E3A32D" transform="translate(698.06640625,95.90234375)"/>
<path d="M0 0 C-3.10378852 2.63822024 -5.81462924 3.70365731 -9.75 4.6875 C-11.22726562 5.06455078 -11.22726562 5.06455078 -12.734375 5.44921875 C-13.48203125 5.63097656 -14.2296875 5.81273438 -15 6 C-15 7.32 -15 8.64 -15 10 C-17.07553648 10.5534764 -18.84365964 11 -21 11 C-22.0089034 15.23646767 -22.0089034 15.23646767 -21.0625 19.375 C-20.711875 19.91125 -20.36125 20.4475 -20 21 C-20.66 21.66 -21.32 22.32 -22 23 C-22.99 23 -23.98 23 -25 23 C-25 23.66 -25 24.32 -25 25 C-25.66 25.33 -26.32 25.66 -27 26 C-27.65772428 29.02934491 -27.65772428 29.02934491 -28 32 C-28.66 32 -29.32 32 -30 32 C-29.80304204 22.58182826 -27.71688442 15.38401752 -21.5625 8.125 C-14.91677251 2.61390891 -8.77027938 -0.54814246 0 0 Z " fill="#F0AB18" transform="translate(605,94)"/>
<path d="M0 0 C1.02996094 -0.00128906 2.05992188 -0.00257812 3.12109375 -0.00390625 C4.74724609 0.00189453 4.74724609 0.00189453 6.40625 0.0078125 C7.49035156 0.00394531 8.57445313 0.00007813 9.69140625 -0.00390625 C10.72136719 -0.00261719 11.75132813 -0.00132813 12.8125 0 C14.24045898 0.00169189 14.24045898 0.00169189 15.69726562 0.00341797 C17.90625 0.1328125 17.90625 0.1328125 18.90625 1.1328125 C19.0054157 2.75538794 19.03704777 4.38221081 19.0390625 6.0078125 C19.04099609 7.48507813 19.04099609 7.48507813 19.04296875 8.9921875 C19.03910156 10.02859375 19.03523438 11.065 19.03125 12.1328125 C19.03705078 13.68742188 19.03705078 13.68742188 19.04296875 15.2734375 C19.04167969 16.25828125 19.04039063 17.243125 19.0390625 18.2578125 C19.03793457 19.16789062 19.03680664 20.07796875 19.03564453 21.015625 C18.90625 23.1328125 18.90625 23.1328125 17.90625 24.1328125 C11.15094592 24.93607478 5.43440153 24.2661295 -0.09375 20.1328125 C-4.78248699 14.5803608 -6.61029427 8.36443229 -6.09375 1.1328125 C-4.40858046 -0.55235704 -2.30607212 0.00273231 0 0 Z M-4.09375 2.1328125 C-4.09375 9.52303196 -4.00364325 12.42613982 -0.09375 18.1328125 C5.59586182 23.68018403 8.80069653 23.1328125 16.90625 23.1328125 C16.90625 16.2028125 16.90625 9.2728125 16.90625 2.1328125 C9.97625 2.1328125 3.04625 2.1328125 -4.09375 2.1328125 Z " fill="#393B1F" transform="translate(80.09375,123.8671875)"/>
<path d="M0 0 C2.35125 -0.061875 4.7025 -0.12375 7.125 -0.1875 C7.85348145 -0.21481201 8.58196289 -0.24212402 9.33251953 -0.27026367 C13.99914187 -0.32911855 17.04161077 0.57541286 21 3 C23.66624627 5.75818579 24.81678573 8.15250031 25 12 C23.56547942 15.58630144 22.05844943 18.57872754 19 21 C15.23508833 22.25497056 11.72793525 22.10661648 7.8125 22.0625 C5.234375 22.041875 2.65625 22.02125 0 22 C0 14.74 0 7.48 0 0 Z M1 2 C0.97316013 4.97922593 0.95323963 7.95821295 0.9375 10.9375 C0.92912109 11.78763672 0.92074219 12.63777344 0.91210938 13.51367188 C0.90888672 14.32255859 0.90566406 15.13144531 0.90234375 15.96484375 C0.89710693 16.7137085 0.89187012 17.46257324 0.88647461 18.23413086 C0.80658248 20.02667739 0.80658248 20.02667739 2 21 C8.39929755 21.51751706 14.6427923 21.9835647 20 18 C22.36865914 15.1728907 22.98558726 13.69181167 23.0625 10 C21.98083981 6.94590064 20.8876849 4.90958013 18.296875 2.90234375 C12.98488381 0.81549007 6.61826473 1.67834362 1 2 Z " fill="#0D5328" transform="translate(227,86)"/>
<path d="M0 0 C7.92 0 15.84 0 24 0 C24 11 24 11 22 14 C22.33 10.04 22.66 6.08 23 2 C16.07 2 9.14 2 2 2 C2 8.93 2 15.86 2 23 C4.31 23 6.62 23 9 23 C9 23.33 9 23.66 9 24 C6.03 24 3.06 24 0 24 C0 16.08 0 8.16 0 0 Z " fill="#33391E" transform="translate(105,124)"/>
<path d="M0 0 C1.17691406 0.07863281 2.35382812 0.15726562 3.56640625 0.23828125 C4.51386719 0.38652344 5.46132813 0.53476563 6.4375 0.6875 C6.7675 1.3475 7.0975 2.0075 7.4375 2.6875 C6.70144531 2.62949219 5.96539063 2.57148437 5.20703125 2.51171875 C-1.13289932 2.11960275 -1.13289932 2.11960275 -6.625 4.9375 C-8.74105366 7.79534191 -8.74105366 7.79534191 -10.5625 11.6875 C-3.3025 11.6875 3.9575 11.6875 11.4375 11.6875 C11.4375 10.0375 11.4375 8.3875 11.4375 6.6875 C12.9375 7.9375 12.9375 7.9375 14.4375 9.6875 C14.4375 11.0075 14.4375 12.3275 14.4375 13.6875 C8.75151066 14.97977031 3.32946518 14.58992274 -2.4375 14.25 C-3.41203125 14.19779297 -4.3865625 14.14558594 -5.390625 14.09179688 C-7.78163402 13.96286992 -10.17214426 13.82794056 -12.5625 13.6875 C-11.97560991 10.49034635 -11.24862177 7.48816221 -10.125 4.4375 C-9.75568359 3.40882812 -9.75568359 3.40882812 -9.37890625 2.359375 C-7.49351692 -1.50161367 -3.6972898 -0.27191923 0 0 Z " fill="#EFB116" transform="translate(601.5625,105.3125)"/>
<path d="M0 0 C3.12304734 2.92915527 5.48990091 5.96858351 7.8125 9.5625 C8.43769531 10.51253906 9.06289063 11.46257812 9.70703125 12.44140625 C10.13371094 13.28574219 10.56039062 14.13007813 11 15 C10.67 15.99 10.34 16.98 10 18 C4.39 17.67 -1.22 17.34 -7 17 C-7.99 15.02 -8.98 13.04 -10 11 C-9.34 10.67 -8.68 10.34 -8 10 C-7.01 11.485 -7.01 11.485 -6 13 C-3.91843559 13.79679553 -3.91843559 13.79679553 -1.5625 14.1875 C-0.78003906 14.34605469 0.00242187 14.50460938 0.80859375 14.66796875 C3.12495485 15.07490269 3.12495485 15.07490269 6 15 C4.07608351 9.68588506 4.07608351 9.68588506 0 6 C-0.1875 2.875 -0.1875 2.875 0 0 Z " fill="#EAA51F" transform="translate(564,134)"/>
<path d="M0 0 C0.33 0 0.66 0 1 0 C1 17.49 1 34.98 1 53 C-3.95 53 -8.9 53 -14 53 C-14.33 51.68 -14.66 50.36 -15 49 C-16.65 49.99 -18.3 50.98 -20 52 C-18.50902342 48.2047869 -16.24299151 46.38957269 -13 44 C-12 46 -12 46 -13 52 C-8.71 52 -4.42 52 0 52 C0 34.84 0 17.68 0 0 Z " fill="#23603A" transform="translate(324,98)"/>
<path d="M0 0 C5.3173667 0.32226465 8.48097313 3.28934296 12 7 C15.09136759 11.63705139 15.95590068 16.48758532 16 22 C15.67 22.66 15.34 23.32 15 24 C14.34 24 13.68 24 13 24 C13 21.69 13 19.38 13 17 C12.01 16.67 11.02 16.34 10 16 C10.66 16 11.32 16 12 16 C11.34 13.69 10.68 11.38 10 9 C9.34 9 8.68 9 8 9 C8 9.66 8 10.32 8 11 C7.34 11 6.68 11 6 11 C6 9.02 6 7.04 6 5 C5.34 5 4.68 5 4 5 C4 4.01 4 3.02 4 2 C2.68 1.34 1.36 0.68 0 0 Z " fill="#EEA920" transform="translate(674,95)"/>
<path d="M0 0 C0.66 0 1.32 0 2 0 C2.24466253 7.86476091 2.45699407 15.72992086 2.64697266 23.59619141 C2.71307272 26.27182448 2.79116581 28.9463417 2.87451172 31.62158203 C2.99308683 35.46884426 3.08504403 39.31596903 3.171875 43.1640625 C3.21439392 44.35802643 3.25691284 45.55199036 3.30072021 46.78213501 C3.41654752 53.16945395 3.37706582 57.16416955 -1 62 C-1.33 61.34 -1.66 60.68 -2 60 C-1.4740625 59.071875 -1.4740625 59.071875 -0.9375 58.125 C-0.628125 57.42375 -0.31875 56.7225 0 56 C-0.78309467 53.76529595 -0.78309467 53.76529595 -2 52 C-1.34 52 -0.68 52 0 52 C0 34.84 0 17.68 0 0 Z " fill="#F8AC17" transform="translate(162,109)"/>
<path d="M0 0 C2.7853139 4.92700945 2.74858362 9.72494668 1.5 15.1875 C-1.03902328 22.80456983 -6.14354821 26.37011376 -13 30 C-13 27 -13 27 -11 25 C-10.67 24.01 -10.34 23.02 -10 22 C-8.68 22 -7.36 22 -6 22 C-0.28600052 16.55176794 -0.265588 10.51873253 -0.04296875 3.03515625 C-0.02878906 2.03355469 -0.01460937 1.03195313 0 0 Z " fill="#EBA71F" transform="translate(569,90)"/>
<path d="M0 0 C0 7.92 0 15.84 0 24 C-0.66 24 -1.32 24 -2 24 C-3.95500272 16.79092747 -4.99599495 9.46460728 -4 2 C-1 0 -1 0 0 0 Z " fill="#F2B820" transform="translate(105,124)"/>
<path d="M0 0 C5.99014456 0.29950723 9.83364933 2.90223123 14 7 C18.03211548 12.38277486 19.63657336 17.33717829 20 24 C18.58622659 21.36095629 17.62759865 18.92879371 17 16 C16.01 16.33 15.02 16.66 14 17 C14 15.68 14 14.36 14 13 C13.360625 12.773125 12.72125 12.54625 12.0625 12.3125 C10 11 10 11 9.25 8.375 C9.1675 7.59125 9.085 6.8075 9 6 C8.01 5.67 7.02 5.34 6 5 C6 4.34 6 3.68 6 3 C3.03 2.505 3.03 2.505 0 2 C0 1.34 0 0.68 0 0 Z " fill="#F1AA1C" transform="translate(608,95)"/>
<path d="M0 0 C1.27617187 0.02320312 2.55234375 0.04640625 3.8671875 0.0703125 C5.78917969 0.09738281 5.78917969 0.09738281 7.75 0.125 C9.23113281 0.15980469 9.23113281 0.15980469 10.7421875 0.1953125 C10.4121875 0.8553125 10.0821875 1.5153125 9.7421875 2.1953125 C5.4521875 2.1953125 1.1621875 2.1953125 -3.2578125 2.1953125 C-3.2578125 8.7953125 -3.2578125 15.3953125 -3.2578125 22.1953125 C-3.9178125 22.5253125 -4.5778125 22.8553125 -5.2578125 23.1953125 C-6.12314508 16.19277504 -6.82349108 9.15237124 -5.2578125 2.1953125 C-3.2578125 0.1953125 -3.2578125 0.1953125 0 0 Z " fill="#126736" transform="translate(231.2578125,115.8046875)"/>
<path d="M0 0 C4.29 0 8.58 0 13 0 C13.66 1.65 14.32 3.3 15 5 C16.32 3.68 17.64 2.36 19 1 C19.66 1.33 20.32 1.66 21 2 C20.0479279 3.00596297 19.08812654 4.00461563 18.125 5 C17.59132813 5.556875 17.05765625 6.11375 16.5078125 6.6875 C15 8 15 8 13 8 C12.34 7.34 11.68 6.68 11 6 C11 4.68 11 3.36 11 2 C7.7 2.33 4.4 2.66 1 3 C1 5.31 1 7.62 1 10 C0.34 9.67 -0.32 9.34 -1 9 C-1.125 2.25 -1.125 2.25 0 0 Z " fill="#F3981E" transform="translate(638,96)"/>
<path d="M0 0 C2.62657315 0.97766889 3.94145181 2.31908365 5.859375 4.34765625 C6.47296875 4.98832031 7.0865625 5.62898438 7.71875 6.2890625 C8.17765625 6.78277344 8.6365625 7.27648438 9.109375 7.78515625 C5.52025088 7.78515625 5.00080471 7.12079071 2.421875 4.78515625 C1.79925781 4.22828125 1.17664063 3.67140625 0.53515625 3.09765625 C-0.17060547 2.44796875 -0.17060547 2.44796875 -0.890625 1.78515625 C-1.880625 2.28015625 -1.880625 2.28015625 -2.890625 2.78515625 C-2.890625 3.77515625 -2.890625 4.76515625 -2.890625 5.78515625 C-3.76976563 6.17316406 -4.64890625 6.56117187 -5.5546875 6.9609375 C-9.12819252 8.9150673 -11.45189823 11.04485948 -14.265625 13.97265625 C-15.13960938 14.87371094 -16.01359375 15.77476563 -16.9140625 16.703125 C-17.56632812 17.39019531 -18.21859375 18.07726562 -18.890625 18.78515625 C-19.550625 18.45515625 -20.210625 18.12515625 -20.890625 17.78515625 C-18.60706254 15.44377082 -16.31249126 13.11348643 -14.015625 10.78515625 C-13.36464844 10.11742187 -12.71367188 9.4496875 -12.04296875 8.76171875 C-11.41777344 8.13007812 -10.79257813 7.4984375 -10.1484375 6.84765625 C-9.5723877 6.26113281 -8.99633789 5.67460938 -8.40283203 5.0703125 C-6.890625 3.78515625 -6.890625 3.78515625 -4.890625 3.78515625 C-4.560625 2.79515625 -4.230625 1.80515625 -3.890625 0.78515625 C-1.890625 -0.21484375 -1.890625 -0.21484375 0 0 Z " fill="#D3B642" transform="translate(101.890625,44.21484375)"/>
<path d="M0 0 C4.62 0 9.24 0 14 0 C14 4.29 14 8.58 14 13 C12.02 13 10.04 13 8 13 C7.67 12.34 7.34 11.68 7 11 C8.65 11 10.3 11 12 11 C12 8.03 12 5.06 12 2 C8.04 2 4.08 2 0 2 C0 1.34 0 0.68 0 0 Z " fill="#EB9F22" transform="translate(720,96)"/>
<path d="M0 0 C0.33 0 0.66 0 1 0 C1 17.49 1 34.98 1 53 C0.67 53 0.34 53 0 53 C0 35.51 0 18.02 0 0 Z " fill="#2D5443" transform="translate(326,98)"/>
<path d="M0 0 C1.32 0 2.64 0 4 0 C4 1.32 4 2.64 4 4 C7.63 4 11.26 4 15 4 C15.33 4.66 15.66 5.32 16 6 C2.3667426 6.55353075 2.3667426 6.55353075 -4 3 C-2.68 2.67 -1.36 2.34 0 2 C0 1.34 0 0.68 0 0 Z " fill="#EFA516" transform="translate(714,146)"/>
<path d="M0 0 C0.33 0 0.66 0 1 0 C1.01981934 0.87213135 1.03963867 1.7442627 1.06005859 2.64282227 C1.13857436 5.90643193 1.22527969 9.16961754 1.31738281 12.43286133 C1.35545293 13.84000398 1.39034245 15.24723669 1.421875 16.65454102 C1.4680078 18.68798823 1.52591568 20.72082707 1.5859375 22.75390625 C1.6173584 23.97408447 1.6487793 25.1942627 1.68115234 26.45141602 C1.89356976 30.08017221 1.89356976 30.08017221 3.08837891 33.76538086 C4 37 4 37 3 40 C-0.78682847 34.23743494 -1.14013162 29.77010349 -0.87890625 22.94921875 C-0.85529526 22.29041214 -0.83168427 21.63160553 -0.80735779 20.95283508 C-0.73124327 18.86414178 -0.64699771 16.77586926 -0.5625 14.6875 C-0.50922687 13.26499403 -0.45648689 11.84246799 -0.40429688 10.41992188 C-0.27570006 6.94636091 -0.13981289 3.47312966 0 0 Z " fill="#E29610" transform="translate(706,108)"/>
<path d="M0 0 C1.50433594 0.01353516 1.50433594 0.01353516 3.0390625 0.02734375 C3.80992187 0.03894531 4.58078125 0.05054687 5.375 0.0625 C3.00839618 2.42910382 2.23536242 2.37240526 -1 2.625 C-5.38617277 2.96672984 -5.38617277 2.96672984 -9.625 4.0625 C-10.32711894 5.71454456 -10.99471413 7.38173769 -11.625 9.0625 C-12.615 9.3925 -13.605 9.7225 -14.625 10.0625 C-16.05588528 7.20072943 -15.22491697 5.12874227 -14.625 2.0625 C-13.635 3.5475 -13.635 3.5475 -12.625 5.0625 C-11.84125 4.423125 -11.0575 3.78375 -10.25 3.125 C-6.48719045 0.16850678 -4.72603583 -0.0549539 0 0 Z " fill="#141C20" transform="translate(502.625,94.9375)"/>
<path d="M0 0 C7.15801225 5.82628904 13.52591766 12.4382985 20 19 C17 19 17 19 14.22265625 16.41015625 C12.62328056 14.73853774 11.04751127 13.0464078 9.47070312 11.35351562 C6.72032308 8.47921358 4.92675178 6.71237299 1 6 C0.67 4.02 0.34 2.04 0 0 Z " fill="#DEC04A" transform="translate(128,69)"/>
<path d="M0 0 C3.84762566 3.4201117 6.60634022 7.46774256 9 12 C9 12.66 9 13.32 9 14 C8.34 14 7.68 14 7 14 C4 9.61538462 4 9.61538462 4 7 C0.535 8.485 0.535 8.485 -3 10 C-3 8.68 -3 7.36 -3 6 C-1.68 6 -0.36 6 1 6 C0.67 4.02 0.34 2.04 0 0 Z " fill="#EBA61F" transform="translate(555,120)"/>
<path d="M0 0 C0.66 0 1.32 0 2 0 C2.125 5.75 2.125 5.75 1 8 C1.66 8.33 2.32 8.66 3 9 C1.9375 11 1.9375 11 0 13 C-3.6875 13.25 -3.6875 13.25 -7 13 C-6.36771484 12.34644531 -6.36771484 12.34644531 -5.72265625 11.6796875 C-2.23634805 7.88986541 -0.26119037 5.35440266 0 0 Z " fill="#ECA71E" transform="translate(555,96)"/>
<path d="M0 0 C1.0625 1.875 1.0625 1.875 2 4 C1.67 4.66 1.34 5.32 1 6 C-0.65 5.67 -2.3 5.34 -4 5 C-4.20625 5.5775 -4.4125 6.155 -4.625 6.75 C-6.49750888 9.81410544 -8.96958519 11.15539968 -12 13 C-12.66 12.67 -13.32 12.34 -14 12 C-5.87361545 3.51065038 -5.87361545 3.51065038 -1 1 C-0.67 0.67 -0.34 0.34 0 0 Z " fill="#EFBB1E" transform="translate(61,84)"/>
<path d="M0 0 C11.25 0 11.25 0 15 2 C15 2.33 15 2.66 15 3 C13.00045254 3.04254356 10.99958364 3.04080783 9 3 C8.67 2.67 8.34 2.34 8 2 C5.69 1.67 3.38 1.34 1 1 C1 8.26 1 15.52 1 23 C0.67 23 0.34 23 0 23 C0 15.41 0 7.82 0 0 Z " fill="#101D1D" transform="translate(106,94)"/>
<path d="M0 0 C0.33 0 0.66 0 1 0 C1 8.91 1 17.82 1 27 C1.99 27.33 2.98 27.66 4 28 C2.35 28.33 0.7 28.66 -1 29 C-1.02903892 24.91668161 -1.04681189 20.8333898 -1.0625 16.75 C-1.07087891 15.59113281 -1.07925781 14.43226563 -1.08789062 13.23828125 C-1.09111328 12.12324219 -1.09433594 11.00820312 -1.09765625 9.859375 C-1.10289307 8.83295898 -1.10812988 7.80654297 -1.11352539 6.74902344 C-1.01336951 4.32374344 -0.69923078 2.31302639 0 0 Z " fill="#EAA41D" transform="translate(638,122)"/>
<path d="M0 0 C4.91935902 4.11619836 9.52647956 8.40410362 14 13 C13.01 13 12.02 13 11 13 C10.34 12.34 9.68 11.68 9 11 C7.68 11 6.36 11 5 11 C4.731875 10.071875 4.46375 9.14375 4.1875 8.1875 C3.06289965 5.1688359 2.29293427 4.0844857 0 2 C0 1.34 0 0.68 0 0 Z " fill="#ECBD36" transform="translate(150,91)"/>
<path d="M0 0 C1.17691406 0.07863281 2.35382812 0.15726562 3.56640625 0.23828125 C4.51386719 0.38652344 5.46132813 0.53476563 6.4375 0.6875 C6.7675 1.3475 7.0975 2.0075 7.4375 2.6875 C6.70144531 2.62949219 5.96539063 2.57148437 5.20703125 2.51171875 C-1.13443979 2.09607999 -1.13443979 2.09607999 -6.5625 5 C-7.5525 6.3303125 -7.5525 6.3303125 -8.5625 7.6875 C-9.54936735 8.7004624 -10.54675494 9.70349697 -11.5625 10.6875 C-11.11373384 9.03903231 -10.65319512 7.39376545 -10.1875 5.75 C-9.93226563 4.83347656 -9.67703125 3.91695313 -9.4140625 2.97265625 C-7.72594511 -1.55738354 -4.21452249 -0.30995939 0 0 Z " fill="#E7A32D" transform="translate(601.5625,105.3125)"/>
<path d="M0 0 C0.33 0.66 0.66 1.32 1 2 C-4.53846154 7.84615385 -4.53846154 7.84615385 -8 9 C-8.99 8.67 -9.98 8.34 -11 8 C-10.01 7.34 -9.02 6.68 -8 6 C-8 5.34 -8 4.68 -8 4 C-7.34 4 -6.68 4 -6 4 C-6 3.34 -6 2.68 -6 2 C-4.02 1.34 -2.04 0.68 0 0 Z " fill="#1B2D2E" transform="translate(126,138)"/>
<path d="M0 0 C1.32 0.66 2.64 1.32 4 2 C-3.91946564 4.14246413 -11.94976619 5.14672901 -20 3 C-20 2.67 -20 2.34 -20 2 C-13.4 2 -6.8 2 0 2 C0 1.34 0 0.68 0 0 Z " fill="#E59C29" transform="translate(614,149)"/>
<path d="M0 0 C0.33 0 0.66 0 1 0 C1 11.88 1 23.76 1 36 C0.67 36 0.34 36 0 36 C0 24.12 0 12.24 0 0 Z " fill="#314F35" transform="translate(272,97)"/>
<path d="M0 0 C5.28497409 -0.44041451 5.28497409 -0.44041451 8 0 C10.5 2.5 10.5 2.5 12 5 C11.01 5.495 11.01 5.495 10 6 C9.67 5.34 9.34 4.68 9 4 C8.01 3.67 7.02 3.34 6 3 C6 3.66 6 4.32 6 5 C5.01 5 4.02 5 3 5 C3 3.68 3 2.36 3 1 C2.34 1 1.68 1 1 1 C1 1.66 1 2.32 1 3 C0.34 3 -0.32 3 -1 3 C-0.67 2.01 -0.34 1.02 0 0 Z " fill="#112E3D" transform="translate(115,97)"/>
<path d="M0 0 C1.07474339 2.13958131 2.13771894 4.28361921 3.18359375 6.4375 C3.59738281 7.283125 4.01117187 8.12875 4.4375 9 C4.84871094 9.845625 5.25992188 10.69125 5.68359375 11.5625 C6.94648629 13.9009123 8.34996823 15.92182587 10 18 C9.67 18.66 9.34 19.32 9 20 C3.30677344 13.38354752 0.55809022 8.83322099 0 0 Z " fill="#E6A326" transform="translate(576,127)"/>
<path d="M0 0 C0 4.29 0 8.58 0 13 C-1.32 13 -2.64 13 -4 13 C-3.34 12.67 -2.68 12.34 -2 12 C-2 9.03 -2 6.06 -2 3 C-2.66 3 -3.32 3 -4 3 C-4 2.34 -4 1.68 -4 1 C-2 0 -2 0 0 0 Z " fill="#E9A527" transform="translate(734,137)"/>
<path d="M0 0 C-3.27672915 2.90292752 -5.95282609 3.58029064 -10.25 4.1875 C-11.32765625 4.34605469 -12.4053125 4.50460938 -13.515625 4.66796875 C-14.33546875 4.77753906 -15.1553125 4.88710937 -16 5 C-11.92096908 0.37625377 -5.97864444 -0.37366528 0 0 Z " fill="#EBA923" transform="translate(605,94)"/>
<path d="M0 0 C4.95 0 9.9 0 15 0 C14.67 0.99 14.34 1.98 14 3 C12.04174127 3.02694851 10.08337774 3.04637218 8.125 3.0625 C7.03445313 3.07410156 5.94390625 3.08570312 4.8203125 3.09765625 C2 3 2 3 0 2 C0 1.34 0 0.68 0 0 Z " fill="#EBB026" transform="translate(517,74)"/>
<path d="M0 0 C0.99 0.33 1.98 0.66 3 1 C3.6875 3.0625 3.6875 3.0625 4 5 C5.32 3.68 6.64 2.36 8 1 C8.66 1.33 9.32 1.66 10 2 C9.0479279 3.00596297 8.08812654 4.00461563 7.125 5 C6.59132813 5.556875 6.05765625 6.11375 5.5078125 6.6875 C4 8 4 8 2 8 C0 6 0 6 -0.125 2.875 C-0.08375 1.92625 -0.0425 0.9775 0 0 Z " fill="#EDA62A" transform="translate(649,96)"/>
<path d="M0 0 C9.24 0 18.48 0 28 0 C28 0.33 28 0.66 28 1 C18.76 1 9.52 1 0 1 C0 0.67 0 0.34 0 0 Z " fill="#264A29" transform="translate(214,73)"/>
<path d="M0 0 C5.7097955 0.41778991 8.60957142 2.57546571 13 6 C12.01 6.495 12.01 6.495 11 7 C8.375 6.0625 8.375 6.0625 6 5 C6 4.34 6 3.68 6 3 C3.03 2.505 3.03 2.505 0 2 C0 1.34 0 0.68 0 0 Z " fill="#EAA829" transform="translate(608,95)"/>
<path d="M0 0 C0.99 0.33 1.98 0.66 3 1 C2.06725891 2.12894876 1.12859878 3.25300876 0.1875 4.375 C-0.33457031 5.00148438 -0.85664062 5.62796875 -1.39453125 6.2734375 C-3 8 -3 8 -6 10 C-6 6 -6 6 -4 4 C-3.34 4.33 -2.68 4.66 -2 5 C-1.67 4.01 -1.34 3.02 -1 2 C-0.67 1.34 -0.34 0.68 0 0 Z " fill="#15272C" transform="translate(57,82)"/>
<path d="M0 0 C1.12894876 0.93274109 2.25300876 1.87140122 3.375 2.8125 C4.00148438 3.33457031 4.62796875 3.85664062 5.2734375 4.39453125 C7 6 7 6 9 9 C8.01 9.495 8.01 9.495 7 10 C7 9.34 7 8.68 7 8 C5.35 8.66 3.7 9.32 2 10 C2.226875 9.236875 2.45375 8.47375 2.6875 7.6875 C2.790625 6.800625 2.89375 5.91375 3 5 C1.62485459 3.2912354 1.62485459 3.2912354 0 2 C0 1.34 0 0.68 0 0 Z " fill="#EFBE2B" transform="translate(111,53)"/>
<path d="M0 0 C3.11173483 1.03724494 4.10466125 1.41544715 6 4 C6.6875 7.6875 6.6875 7.6875 7 11 C4.59424393 8.81482901 3.20464419 6.74080329 1.8125 3.8125 C1.46832031 3.09707031 1.12414062 2.38164063 0.76953125 1.64453125 C0.51558594 1.10183594 0.26164063 0.55914062 0 0 Z " fill="#E99E23" transform="translate(540,122)"/>
<path d="M0 0 C2.97 0.495 2.97 0.495 6 1 C5.34 2.98 4.68 4.96 4 7 C3.34 7 2.68 7 2 7 C2 6.01 2 5.02 2 4 C1.34 4 0.68 4 0 4 C0 2.68 0 1.36 0 0 Z " fill="#F4AE16" transform="translate(650,111)"/>
<path d="M0 0 C0.78375 0.04125 1.5675 0.0825 2.375 0.125 C1.39933888 1.29459987 0.419375 2.46061177 -0.5625 3.625 C-1.10777344 4.2746875 -1.65304688 4.924375 -2.21484375 5.59375 C-2.68019531 6.0990625 -3.14554687 6.604375 -3.625 7.125 C-3.955 7.125 -4.285 7.125 -4.625 7.125 C-4.75 4.75 -4.75 4.75 -4.625 2.125 C-2.625 0.125 -2.625 0.125 0 0 Z " fill="#112931" transform="translate(73.625,66.875)"/>
<path d="M0 0 C2.64 0.33 5.28 0.66 8 1 C8 1.66 8 2.32 8 3 C3.545 3.495 3.545 3.495 -1 4 C-0.67 2.68 -0.34 1.36 0 0 Z " fill="#EAA221" transform="translate(721,138)"/>
<path d="M0 0 C0.66 0.33 1.32 0.66 2 1 C1.67 3.31 1.34 5.62 1 8 C-0.16959987 7.02433888 -1.33561177 6.044375 -2.5 5.0625 C-3.1496875 4.51722656 -3.799375 3.97195312 -4.46875 3.41015625 C-4.9740625 2.94480469 -5.479375 2.47945313 -6 2 C-6 1.67 -6 1.34 -6 1 C-4.7934375 1.0309375 -4.7934375 1.0309375 -3.5625 1.0625 C-1.06645115 1.29633621 -1.06645115 1.29633621 0 0 Z " fill="#EEA91F" transform="translate(554,88)"/>
<path d="M0 0 C-1 2 -1 2 -4.0625 3.125 C-5.5165625 3.558125 -5.5165625 3.558125 -7 4 C-7.66 2.68 -8.32 1.36 -9 0 C-5.93109813 -1.53445094 -3.29905734 -0.54984289 0 0 Z " fill="#F9A306" transform="translate(717,81)"/>
<path d="M0 0 C1.11375 0.3403125 1.11375 0.3403125 2.25 0.6875 C2.58 1.6775 2.91 2.6675 3.25 3.6875 C2.26 4.1825 2.26 4.1825 1.25 4.6875 C1.25 4.0275 1.25 3.3675 1.25 2.6875 C-1.39 2.6875 -4.03 2.6875 -6.75 2.6875 C-4.29511132 0.41445492 -3.41240272 -0.38777304 0 0 Z " fill="#E5B317" transform="translate(124.75,144.3125)"/>
<path d="M0 0 C2.0343459 1.41519715 2.90410393 2.54982123 3.421875 4.98046875 C3.66273952 6.98176954 3.83532741 8.9909944 4 11 C0.55783328 8.3401439 0.00495326 5.09711714 -1 1 C-0.67 0.67 -0.34 0.34 0 0 Z " fill="#E8A528" transform="translate(706,137)"/>
<path d="M0 0 C5.94 1.485 5.94 1.485 12 3 C12 3.33 12 3.66 12 4 C5.76952141 5.34382872 5.76952141 5.34382872 2.0625 3.6875 C1.381875 3.130625 0.70125 2.57375 0 2 C0 1.34 0 0.68 0 0 Z " fill="#E7A51C" transform="translate(46,172)"/>
<path d="M0 0 C0.99 0.495 0.99 0.495 2 1 C2 1.99 2 2.98 2 4 C2.99 4.33 3.98 4.66 5 5 C5.6875 7.0625 5.6875 7.0625 6 9 C3.5067466 8.00269864 2.22532561 7.34925469 0.75 5.0625 C0 3 0 3 0 0 Z " fill="#E8A623" transform="translate(39,163)"/>
<path d="M0 0 C1.20628008 2.33214148 2.1654738 4.49642139 3 7 C3.66 7 4.32 7 5 7 C4.67 7.99 4.34 8.98 4 10 C0.77686187 7.19275066 -0.64998321 5.31687378 -1 1 C-0.67 0.67 -0.34 0.34 0 0 Z " fill="#EAA41C" transform="translate(550,134)"/>
<path d="M0 0 C0 0.33 0 0.66 0 1 C-1.98567708 1.48828125 -3.97135417 1.9765625 -5.95703125 2.46484375 C-7.65683202 2.91010705 -9.33301954 3.44433985 -11 4 C-11 2 -11 2 -10 0.3125 C-6.70980593 -1.84668986 -3.77762382 -0.68121085 0 0 Z " fill="#EFAC1C" transform="translate(667,107)"/>
<path d="M0 0 C1.65 1.32 3.3 2.64 5 4 C4.67 4.99 4.34 5.98 4 7 C2.68 6.34 1.36 5.68 0 5 C0 3.35 0 1.7 0 0 Z " fill="#103344" transform="translate(179,81)"/>
<path d="M0 0 C1.35439668 2.70879335 1.06501451 5.00933268 1 8 C-0.65 6.35 -2.3 4.7 -4 3 C-2.68 2.01 -1.36 1.02 0 0 Z " fill="#EFAF1A" transform="translate(612,104)"/>
<path d="M0 0 C1.7074998 1.28062485 3.37373596 2.61767557 5 4 C5 4.66 5 5.32 5 6 C3.68 6 2.36 6 1 6 C0.67 4.02 0.34 2.04 0 0 Z " fill="#D8AE2A" transform="translate(128,69)"/>
<path d="M0 0 C1.9375 0.375 1.9375 0.375 4 1 C4.33 1.66 4.66 2.32 5 3 C4.34 3.66 3.68 4.32 3 5 C2.01 5 1.02 5 0 5 C0 3.35 0 1.7 0 0 Z " fill="#DEAF1A" transform="translate(123,66)"/>
<path d="M0 0 C2.31 0.33 4.62 0.66 7 1 C5 3 5 3 1.875 3.125 C0.451875 3.063125 0.451875 3.063125 -1 3 C-0.67 2.01 -0.34 1.02 0 0 Z " fill="#F5BE06" transform="translate(532,74)"/>
<path d="M0 0 C5.61 0 11.22 0 17 0 C17 0.33 17 0.66 17 1 C11.39 1 5.78 1 0 1 C0 0.67 0 0.34 0 0 Z " fill="#002326" transform="translate(146,24)"/>
<path d="M0 0 C4.29 0 8.58 0 13 0 C13 0.33 13 0.66 13 1 C8.71 1 4.42 1 0 1 C0 0.67 0 0.34 0 0 Z " fill="#29612C" transform="translate(229,136)"/>
<path d="M0 0 C0.33 0 0.66 0 1 0 C1 2.97 1 5.94 1 9 C0.67 9 0.34 9 0 9 C0 6.03 0 3.06 0 0 Z " fill="#0C0C0C" transform="translate(468,109)"/>
<path d="M0 0 C1.65 0 3.3 0 5 0 C5 0.33 5 0.66 5 1 C3.35 1 1.7 1 0 1 C0 0.67 0 0.34 0 0 Z " fill="#3F563F" transform="translate(229,89)"/>
<path d="M0 0 C1 4 1 4 1 4 Z " fill="#1F3730" transform="translate(266,94)"/>
<path d="M0 0 C3 1 3 1 3 1 Z " fill="#0E470E" transform="translate(229,119)"/>
<path d="M0 0 C3 1 3 1 3 1 Z " fill="#534A4A" transform="translate(167,108)"/>
<path d="" fill="#002A00" transform="translate(0,0)"/>
<path d="M0 0 C3 1 3 1 3 1 Z " fill="#0E470E" transform="translate(229,104)"/>
<path d="M0 0 C3 1 3 1 3 1 Z " fill="#000000" transform="translate(99,6)"/>
<path d="M0 0 C2 1 2 1 2 1 Z " fill="#2A6A6A" transform="translate(340,159)"/>
<path d="" fill="#206020" transform="translate(0,0)"/>
<path d="" fill="#000000" transform="translate(0,0)"/>
<path d="M0 0 C2 1 2 1 2 1 Z " fill="#4A4A4A" transform="translate(358,128)"/>
<path d="" fill="#000000" transform="translate(0,0)"/>
<path d="" fill="#3C3C12" transform="translate(0,0)"/>
<path d="" fill="#000000" transform="translate(0,0)"/>
<path d="" fill="#2A2A2A" transform="translate(0,0)"/>
<path d="" fill="#4A4A4A" transform="translate(0,0)"/>
<path d="" fill="#2A2A2A" transform="translate(0,0)"/>
<path d="" fill="#FFFFFF" transform="translate(0,0)"/>
<path d="" fill="#FFFFFF" transform="translate(0,0)"/>
<path d="" fill="#FFFFFF" transform="translate(0,0)"/>
<path d="" fill="#FFFFFF" transform="translate(0,0)"/>
<path d="" fill="#FFFFFF" transform="translate(0,0)"/>
<path d="" fill="#000000" transform="translate(0,0)"/>
<path d="" fill="#FFFFFF" transform="translate(0,0)"/>
<path d="" fill="#FFFFFF" transform="translate(0,0)"/>
<path d="" fill="#FFFFFF" transform="translate(0,0)"/>
<path d="" fill="#FFFFFF" transform="translate(0,0)"/>
<path d="" fill="#FFFFFF" transform="translate(0,0)"/>
<path d="" fill="#FFFFFF" transform="translate(0,0)"/>
<path d="" fill="#2A5555" transform="translate(0,0)"/>
<path d="" fill="#FFFFFF" transform="translate(0,0)"/>
<path d="" fill="#000000" transform="translate(0,0)"/>
<path d="" fill="#FFFFFF" transform="translate(0,0)"/>
<path d="" fill="#FFFFFF" transform="translate(0,0)"/>
<path d="" fill="#808080" transform="translate(0,0)"/>
<path d="" fill="#000000" transform="translate(0,0)"/>
<path d="" fill="#000000" transform="translate(0,0)"/>
<path d="" fill="#FFFFFF" transform="translate(0,0)"/>
<path d="" fill="#FFFFFF" transform="translate(0,0)"/>
<path d="" fill="#333333" transform="translate(0,0)"/>
<path d="" fill="#000000" transform="translate(0,0)"/>
<path d="" fill="#FFFFFF" transform="translate(0,0)"/>
<path d="" fill="#FFFFFF" transform="translate(0,0)"/>
<path d="" fill="#000000" transform="translate(0,0)"/>
<path d="" fill="#555555" transform="translate(0,0)"/>
<path d="" fill="#FFFFFF" transform="translate(0,0)"/>
<path d="" fill="#000000" transform="translate(0,0)"/>
<path d="" fill="#000000" transform="translate(0,0)"/>
<path d="" fill="#000000" transform="translate(0,0)"/>
<path d="" fill="#FFFFFF" transform="translate(0,0)"/>
<path d="" fill="#000000" transform="translate(0,0)"/>
<path d="" fill="#FFFFFF" transform="translate(0,0)"/>
<path d="" fill="#000000" transform="translate(0,0)"/>
<path d="" fill="#2A552A" transform="translate(0,0)"/>
<path d="" fill="#000000" transform="translate(0,0)"/>
<path d="" fill="#FFFFFF" transform="translate(0,0)"/>
<path d="" fill="#008080" transform="translate(0,0)"/>
<path d="" fill="#FFFFFF" transform="translate(0,0)"/>
<path d="" fill="#FFFFFF" transform="translate(0,0)"/>
<path d="" fill="#FFFFFF" transform="translate(0,0)"/>
<path d="" fill="#000000" transform="translate(0,0)"/>
<path d="" fill="#1C1C1C" transform="translate(0,0)"/>
<path d="" fill="#FFFFFF" transform="translate(0,0)"/>
<path d="" fill="#808080" transform="translate(0,0)"/>
<path d="" fill="#555555" transform="translate(0,0)"/>
<path d="" fill="#000000" transform="translate(0,0)"/>
<path d="" fill="#BFBF80" transform="translate(0,0)"/>
<path d="" fill="#808080" transform="translate(0,0)"/>
<path d="" fill="#000000" transform="translate(0,0)"/>
<path d="" fill="#FFFFFF" transform="translate(0,0)"/>
<path d="" fill="#000000" transform="translate(0,0)"/>
<path d="" fill="#FFFFFF" transform="translate(0,0)"/>
<path d="" fill="#000000" transform="translate(0,0)"/>
<path d="" fill="#000000" transform="translate(0,0)"/>
<path d="" fill="#FFFFFF" transform="translate(0,0)"/>
<path d="" fill="#000000" transform="translate(0,0)"/>
<path d="" fill="#555555" transform="translate(0,0)"/>
<path d="" fill="#008080" transform="translate(0,0)"/>
<path d="" fill="#FFFFFF" transform="translate(0,0)"/>
<path d="" fill="#FFFFFF" transform="translate(0,0)"/>
<path d="" fill="#000000" transform="translate(0,0)"/>
<path d="" fill="#FFFFFF" transform="translate(0,0)"/>
<path d="" fill="#FFFFFF" transform="translate(0,0)"/>
<path d="" fill="#FFFFFF" transform="translate(0,0)"/>
<path d="" fill="#FFFFFF" transform="translate(0,0)"/>
<path d="" fill="#FFFFFF" transform="translate(0,0)"/>
<path d="" fill="#FFFFFF" transform="translate(0,0)"/>
<path d="" fill="#FFFFFF" transform="translate(0,0)"/>
<path d="" fill="#FFFFFF" transform="translate(0,0)"/>
<path d="" fill="#FFFFFF" transform="translate(0,0)"/>
<path d="" fill="#FFFFFF" transform="translate(0,0)"/>
<path d="" fill="#000000" transform="translate(0,0)"/>
<path d="" fill="#FFFFFF" transform="translate(0,0)"/>
<path d="" fill="#000000" transform="translate(0,0)"/>
<path d="" fill="#FFFFFF" transform="translate(0,0)"/>
<path d="" fill="#000000" transform="translate(0,0)"/>
<path d="" fill="#FFFFFF" transform="translate(0,0)"/>
<path d="" fill="#FFFFFF" transform="translate(0,0)"/>
<path d="" fill="#FFFFFF" transform="translate(0,0)"/>
<path d="" fill="#FFFFFF" transform="translate(0,0)"/>
<path d="" fill="#FFFFFF" transform="translate(0,0)"/>
<path d="" fill="#FFFFFF" transform="translate(0,0)"/>
<path d="" fill="#FFFFFF" transform="translate(0,0)"/>
<path d="" fill="#FFFFFF" transform="translate(0,0)"/>
</svg>
