<?xml version="1.0" encoding="UTF-8"?>
<svg version="1.1" xmlns="http://www.w3.org/2000/svg" width="686" height="180">
<path d="M0 0 C2.62397692 0.7188548 3.79089012 1.4632362 5.77577209 3.29577637 C6.46671967 3.93265381 7.15766724 4.56953125 7.86955261 5.22570801 C13.74662853 10.87591607 19.57200757 16.57534308 25.36341858 22.31335449 C26.0719504 23.01531448 26.78048222 23.71727448 27.5104847 24.44050598 C31.24981675 28.14743692 34.9851984 31.85830496 38.71815491 35.57165527 C41.8012628 38.63686852 44.89268727 41.69331364 47.99159241 44.74255371 C51.74883766 48.43968298 55.49121624 52.15125673 59.22337532 55.873703 C60.64363991 57.28541182 62.06903128 58.69198248 63.49963188 60.09321594 C65.49581756 62.05056005 67.47230989 64.02593492 69.44520569 66.00671387 C70.33265724 66.86416451 70.33265724 66.86416451 71.23803711 67.73893738 C74.93646496 71.50415704 76.31463362 74.16735478 76.39857483 79.65710449 C74.92569144 82.89744795 73.12771167 85.3848544 70.39857483 87.65710449 C65.76512175 89.28965156 60.70300832 90.72938742 56.08998108 88.58288574 C51.62732939 84.89957447 51.62732939 84.89957447 51.04774475 81.75158691 C50.20898046 79.04539705 48.9947424 78.14234443 46.80482483 76.37194824 C42.60331111 72.85729231 38.7446163 69.11602011 34.89857483 65.21960449 C34.21859436 64.5358374 33.53861389 63.85207031 32.83802795 63.14758301 C29.96632339 60.25972676 27.10069045 57.36587374 24.23451233 54.47253418 C22.12464696 52.34444725 20.01167838 50.21947532 17.89857483 48.09460449 C17.26500061 47.45273193 16.63142639 46.81085937 15.97865295 46.14953613 C12.16542923 42.31580583 8.23248459 38.68683243 4.12904358 35.16491699 C2.12389105 33.41776377 0.2401417 31.57540332 -1.60142517 29.65710449 C-6.48314289 31.06204329 -9.09590188 34.03736153 -12.28892517 37.78210449 C-14.02045578 39.79187575 -15.77292952 41.73144241 -17.60142517 43.65710449 C-18.26142517 43.65710449 -18.92142517 43.65710449 -19.60142517 43.65710449 C-19.60142517 44.31710449 -19.60142517 44.97710449 -19.60142517 45.65710449 C-21.05726624 47.09170532 -21.05726624 47.09170532 -23.07847595 48.76306152 C-27.60743868 52.61662753 -31.78991544 56.73480035 -35.96861267 60.96179199 C-36.72941132 61.72637726 -37.49020996 62.49096252 -38.27406311 63.27871704 C-40.6773153 65.69407832 -43.07726558 68.11267847 -45.47642517 70.53210449 C-48.65847296 73.74067988 -51.84377632 76.94597113 -55.03111267 80.14929199 C-55.76127594 80.8877536 -56.49143921 81.62621521 -57.24372864 82.38705444 C-57.91848236 83.06511139 -58.59323608 83.74316833 -59.28843689 84.44177246 C-59.88163727 85.04020966 -60.47483765 85.63864685 -61.08601379 86.25521851 C-64.01873009 88.96823356 -66.64973937 88.9326724 -70.57017517 88.87585449 C-74.46522838 88.45638722 -76.75314184 86.56597949 -79.35142517 83.78210449 C-80.8571713 81.22233607 -81.46259657 79.64191933 -81.60142517 76.65710449 C-80.33750307 72.10698492 -78.89239748 69.68358498 -75.25572205 66.70983887 C-69.82272711 62.0762808 -64.84068318 57.00842507 -59.81433105 51.94517517 C-58.03287269 50.15078114 -56.24815879 48.3596804 -54.46263123 46.56933594 C-50.67272252 42.76808174 -46.8867742 38.96289861 -43.10142517 35.15710449 C-38.70980296 30.74176264 -34.31650791 26.32811201 -29.91894531 21.91868591 C-28.17327807 20.16660653 -26.43068565 18.41150972 -24.68821716 16.65625 C-20.23588202 12.1809366 -15.77348443 7.71107677 -11.13072205 3.43249512 C-10.55930481 2.90546997 -9.98788757 2.37844482 -9.39915466 1.83544922 C-6.34053361 -0.16936296 -3.58460864 -0.30024701 0 0 Z " fill="#CBCBCB" transform="translate(91.60142517089844,11.3428955078125)"/>
<path d="M0 0 C36.71691176 0 36.71691176 0 44.625 7.46875 C48.00644069 11.23444532 48.40550019 15.02714112 48.24609375 20.015625 C47.6503825 24.8191379 45.39987673 27.84735581 41.8125 30.875 C40.884375 31.57625 39.95625 32.2775 39 33 C39.54269531 33.35191406 40.08539063 33.70382813 40.64453125 34.06640625 C45.57253169 37.46717052 48.37590539 40.01115113 50 46 C50.69871486 51.70949855 50.34172045 56.14911548 47 61 C41.95852582 66.71367074 37.70978308 67.68706508 30 70 C20.1 70 10.2 70 0 70 C0 46.9 0 23.8 0 0 Z M14 11 C14 16.94 14 22.88 14 29 C23.48527091 29.58613175 23.48527091 29.58613175 32 26 C34.40668747 24.00885386 34.40668747 24.00885386 34.4375 20.125 C34.32422365 17.00423669 34.120547 16.16211494 32.1875 13.5625 C26.46367089 10.75670142 20.27824976 11 14 11 Z M14 40 C14 46.27 14 52.54 14 59 C25.02088077 59.63000423 25.02088077 59.63000423 34.4375 54.75 C36.32447669 51.42892102 36.6271067 49.76264023 36 46 C33.84909549 42.66238955 32.79587201 41.26529067 29 40 C26.42502932 39.92964561 23.88550071 39.9065066 21.3125 39.9375 C18.899375 39.958125 16.48625 39.97875 14 40 Z " fill="#5AB674" transform="translate(192,68)"/>
<path d="M0 0 C9.11857128 6.11339242 13.48967595 13.93198784 16.07421875 24.390625 C17.20038497 36.88321308 16.26725782 48.90897812 7.94921875 58.890625 C0.7090417 66.23832943 -7.38960659 69.47682781 -17.61328125 69.640625 C-27.24262465 69.52247355 -34.88551505 67.09780334 -41.92578125 60.390625 C-49.71776179 51.85655108 -52.23225192 42.44445461 -52.078125 31.0390625 C-51.48002827 20.6413808 -48.276849 11.90876247 -40.92578125 4.390625 C-29.89166117 -3.85640885 -12.67833448 -6.28385164 0 0 Z M-32.30078125 14.578125 C-38.24840272 22.5413293 -38.93613871 30.57893143 -37.92578125 40.390625 C-36.08601926 47.29467806 -32.49508336 51.90182591 -26.62890625 55.9921875 C-21.88686536 58.44543987 -17.12457476 58.09279971 -11.92578125 57.390625 C-6.10903588 55.330925 -2.88689614 51.57829626 0.1640625 46.35546875 C3.39538946 39.37968567 3.15290122 30.00426687 1.42578125 22.6171875 C-1.19672212 16.0497218 -5.62381694 11.8434893 -12.05078125 9.015625 C-19.46822913 7.40313633 -27.01865956 8.8086255 -32.30078125 14.578125 Z " fill="#CCCCCB" transform="translate(407.92578125,69.609375)"/>
<path d="M0 0 C35.65661253 0 35.65661253 0 42.4375 4.68359375 C43.2109375 5.55177734 43.2109375 5.55177734 44 6.4375 C44.53625 7.01371094 45.0725 7.58992188 45.625 8.18359375 C49.32199954 13.06741416 50.04560802 17.96149762 50 24 C48.89072649 30.56021967 44.81521692 35.58863998 40 40 C37.77734375 41.2265625 37.77734375 41.2265625 36 42 C36.56847656 42.87140625 37.13695312 43.7428125 37.72265625 44.640625 C52 66.62295561 52 66.62295561 52 70 C39.96133107 71.50274647 39.96133107 71.50274647 35.828125 68.3359375 C33.9436296 65.652775 32.48109883 62.92743008 31 60 C30.20267796 58.5869644 29.3974632 57.17836386 28.5859375 55.7734375 C26.34112138 51.87497913 24.15927737 47.94643438 22 44 C19.36 44 16.72 44 14 44 C13.67 52.58 13.34 61.16 13 70 C8.71 70 4.42 70 0 70 C0 46.9 0 23.8 0 0 Z M13 11 C13 17.93 13 24.86 13 32 C15.97693988 33.48846994 18.5137461 32.95725155 21.8125 32.75 C23.03582031 32.68296875 24.25914062 32.6159375 25.51953125 32.546875 C29.1470434 31.97689554 31.12421167 31.25106591 34 29 C36.50682071 25.36994509 36.19550441 22.34549038 35.60546875 18.125 C35.09274744 15.73461596 35.09274744 15.73461596 32.75 13.5 C28.13797464 10.98434981 23.87738283 10.88046832 18.6875 10.9375 C16.810625 10.958125 14.93375 10.97875 13 11 Z " fill="#FABC29" transform="translate(472,68)"/>
<path d="M0 0 C0.00586624 0.58802399 0.01173248 1.17604797 0.01777649 1.78189087 C0.08182009 7.91431517 0.16626806 14.04622 0.26245117 20.17822266 C0.29566006 22.46526226 0.32370451 24.75238303 0.34643555 27.03955078 C0.3800551 30.33140578 0.43237624 33.62251972 0.48828125 36.9140625 C0.49467117 37.93303619 0.5010611 38.95200989 0.50764465 40.00186157 C0.61879419 45.39556863 0.9291464 49.3648712 4 54 C8.99305134 58.61857249 12.90650357 59.1508809 19.48144531 59.16113281 C20.62103447 59.16858017 20.62103447 59.16858017 21.78364563 59.17617798 C24.2984813 59.19078889 26.81325384 59.19760057 29.328125 59.203125 C31.07826743 59.20887829 32.82840984 59.214636 34.57855225 59.22039795 C38.25045058 59.23090555 41.92232703 59.23674948 45.59423828 59.24023438 C50.2894709 59.24571199 54.98441249 59.2697253 59.67955399 59.29820633 C63.29647656 59.31687252 66.91332966 59.32204047 70.53029633 59.32357025 C72.26058286 59.32658942 73.99086838 59.33459303 75.72110748 59.34775543 C78.14795243 59.36489596 80.57409489 59.36291619 83.00097656 59.35644531 C83.70980484 59.3656601 84.41863312 59.37487488 85.14894104 59.3843689 C90.20691379 59.34232651 93.57505441 58.26952499 98 56 C101.68774717 52.18932792 102.11064218 48.27942432 102.20532227 43.13964844 C102.22526749 42.17895447 102.24521271 41.2182605 102.26576233 40.22845459 C102.28247482 39.19915833 102.29918732 38.16986206 102.31640625 37.109375 C102.3475779 35.51974945 102.3475779 35.51974945 102.37937927 33.89801025 C102.44472186 30.51540562 102.50368881 27.13272388 102.5625 23.75 C102.60569975 21.45572122 102.64931451 19.16145021 102.69335938 16.8671875 C102.8003876 11.24487298 102.90218239 5.6224819 103 0 C104.13199353 0.9080162 105.25532363 1.82683826 106.375 2.75 C107.00148438 3.26046875 107.62796875 3.7709375 108.2734375 4.296875 C111.96842834 7.94170759 112.24039861 11.21033555 112.30354309 16.32096863 C112.30263168 17.14704117 112.30172028 17.97311371 112.30078125 18.82421875 C112.30506638 19.68505569 112.3093515 20.54589264 112.31376648 21.43281555 C112.31950428 23.25427371 112.32001409 25.07575478 112.31567383 26.8972168 C112.31253082 29.66040102 112.3359202 32.42249627 112.36132812 35.18554688 C112.36360312 36.96093616 112.36430368 38.7363283 112.36328125 40.51171875 C112.372491 41.32767014 112.38170074 42.14362152 112.39118958 42.98429871 C112.33909637 49.56821393 111.33152395 56.07827856 107.1328125 61.33984375 C106.47023438 61.86707031 105.80765625 62.39429688 105.125 62.9375 C104.46757812 63.48277344 103.81015625 64.02804688 103.1328125 64.58984375 C98.05975822 67.94400601 93.44611645 68.29735089 87.48120117 68.29052734 C86.21191017 68.30060318 86.21191017 68.30060318 84.91697693 68.31088257 C82.12558076 68.32984629 79.33442529 68.33378606 76.54296875 68.3359375 C74.59629722 68.34236697 72.64962666 68.34909545 70.70295715 68.35610962 C66.62348186 68.36807862 62.54409122 68.37179087 58.46459961 68.37060547 C53.24928009 68.3704024 48.03450622 68.3976939 42.81931591 68.43214989 C38.79829946 68.45444036 34.77741383 68.45844233 30.75634193 68.45738602 C28.83429396 68.45973914 26.91224223 68.46854637 24.99025536 68.48405075 C22.29544794 68.50375254 19.60181062 68.49785631 16.90698242 68.48583984 C16.12073486 68.49707886 15.3344873 68.50831787 14.52441406 68.51989746 C8.06010195 68.44703033 2.89622649 66.49925336 -2.0234375 62.25390625 C-2.46945313 61.69574219 -2.91546875 61.13757813 -3.375 60.5625 C-3.83648437 60.00691406 -4.29796875 59.45132813 -4.7734375 58.87890625 C-8.3040874 53.47049033 -8.44949967 48.19596851 -8.6953125 41.9140625 C-8.73365204 40.93891693 -8.77199158 39.96377136 -8.81149292 38.95907593 C-8.88594361 36.90000067 -8.95450731 34.84070524 -9.01757812 32.78125 C-9.08909432 30.67997414 -9.17857088 28.57923151 -9.28613281 26.47949219 C-9.4417459 23.43692226 -9.54313957 20.396707 -9.6328125 17.3515625 C-9.68970245 16.4190567 -9.74659241 15.4865509 -9.8052063 14.52578735 C-9.87002025 10.48101909 -9.8240531 8.01185257 -7.2098999 4.80194092 C-1.82145779 0 -1.82145779 0 0 0 Z " fill="#F9C229" transform="translate(38,97)"/>
<path d="M0 0 C0.886875 0.5775 1.77375 1.155 2.6875 1.75 C7.92198717 6.84301454 8.40696436 13.64547439 9.08203125 20.58203125 C9 23 9 23 7 26 C4.51659097 26.26727014 2.28527932 26.34866334 -0.1953125 26.29296875 C-0.90275604 26.28872391 -1.61019958 26.28447906 -2.33908081 26.28010559 C-4.60143905 26.26329547 -6.86291048 26.22564128 -9.125 26.1875 C-10.65753923 26.17245607 -12.1900924 26.15876716 -13.72265625 26.14648438 C-17.48211318 26.11338462 -21.24090618 26.06158825 -25 26 C-24.47731534 28.76276177 -23.89130413 31.3260876 -23 34 C-17.34598971 37.43185275 -11.90320597 37.15600416 -5.6640625 35.75 C-1.99423779 34.71685287 1.47863633 33.46169813 5 32 C5.99 35.3 6.98 38.6 8 42 C-1.24288084 47.77680052 -10.91371066 49.73610535 -21.7109375 47.41796875 C-28.58253691 45.10276833 -32.93827488 40.93011867 -37 35 C-40.23932494 27.84649076 -40.04214122 18.68914267 -37.875 11.1875 C-35.16704804 4.23499079 -30.73601788 -0.29293931 -23.9296875 -3.28515625 C-15.63751964 -6.35695123 -6.90018039 -5.6164259 0 0 Z M-24 10 C-25.78229676 12.67344514 -26 13.73770359 -26 17 C-18.74 17 -11.48 17 -4 17 C-4.98778476 12.06107618 -5.73599724 10.56073029 -9 7 C-14.68261274 4.15869363 -19.44816766 6.18916362 -24 10 Z " fill="#F9BC27" transform="translate(565,91)"/>
<path d="M0 0 C1.09570312 0.10183594 2.19140625 0.20367187 3.3203125 0.30859375 C4.58488281 0.43427734 4.58488281 0.43427734 5.875 0.5625 C3.86262104 7.64649496 1.47592936 14.51135736 -1.1875 21.375 C-1.53876953 22.28958984 -1.89003906 23.20417969 -2.25195312 24.14648438 C-3.52690085 27.4603844 -4.80821465 30.77072955 -6.12719727 34.06738281 C-7.07757747 36.44391468 -8.00626857 38.82772873 -8.9296875 41.21484375 C-9.61960196 42.9766368 -10.30971167 44.7383534 -11 46.5 C-11.33902344 47.38107422 -11.67804688 48.26214844 -12.02734375 49.16992188 C-15.2927432 57.45758019 -19.12415718 64.30613723 -26.8125 69.3125 C-31.16903429 70.95647521 -35.47067379 71.52743916 -40.125 71.5625 C-41.125 70.5625 -41.125 70.5625 -41.22265625 68.27734375 C-41.21105469 67.36082031 -41.19945312 66.44429688 -41.1875 65.5 C-41.17847656 64.58089844 -41.16945313 63.66179687 -41.16015625 62.71484375 C-41.14275391 61.64943359 -41.14275391 61.64943359 -41.125 60.5625 C-40.52171875 60.40394531 -39.9184375 60.24539062 -39.296875 60.08203125 C-35.4416604 58.95655731 -32.61522107 57.97101756 -29.5 55.375 C-27.61659406 51.52257876 -28.16508795 48.60338182 -29.125 44.5625 C-30.66775691 40.12836321 -32.48017872 35.82120686 -34.3125 31.5 C-35.31270302 29.09383438 -36.31270434 26.68758491 -37.3125 24.28125 C-38.03759766 22.55068359 -38.03759766 22.55068359 -38.77734375 20.78515625 C-40.48498425 16.70166809 -42.16028932 12.60617557 -43.8125 8.5 C-44.27011719 7.37464844 -44.72773438 6.24929687 -45.19921875 5.08984375 C-46.125 2.5625 -46.125 2.5625 -46.125 0.5625 C-41.505 0.5625 -36.885 0.5625 -32.125 0.5625 C-31.0593404 3.41551951 -29.99747579 6.26986852 -28.9375 9.125 C-28.49954102 10.29579102 -28.49954102 10.29579102 -28.05273438 11.49023438 C-25.22569542 19.12019974 -22.66976134 26.83499655 -20.125 34.5625 C-19.59543701 33.02541382 -19.59543701 33.02541382 -19.05517578 31.45727539 C-17.746812 27.66595106 -16.42884577 23.87802506 -15.10791016 20.09106445 C-14.53691149 18.44972765 -13.96854193 16.8074738 -13.40283203 15.16430664 C-12.5905145 12.80630959 -11.76888319 10.45174275 -10.9453125 8.09765625 C-10.69314972 7.35910904 -10.44098694 6.62056183 -10.18118286 5.8596344 C-7.91463884 -0.56556776 -6.56977922 -0.62902141 0 0 Z " fill="#60BB7A" transform="translate(345.125,87.4375)"/>
<path d="M0 0 C5.91648824 6.27506328 6.21651238 12.23432117 6.16015625 20.55078125 C6.1587413 21.34276413 6.15732635 22.13474701 6.15586853 22.95072937 C6.15029457 25.46719219 6.13774693 27.98356431 6.125 30.5 C6.11998163 32.21158725 6.11541931 33.92317591 6.11132812 35.63476562 C6.10033368 39.81904508 6.08308707 44.00325719 6.0625 48.1875 C1.4425 48.1875 -3.1775 48.1875 -7.9375 48.1875 C-7.91429687 46.12628906 -7.89109375 44.06507813 -7.8671875 41.94140625 C-7.85326565 39.91577642 -7.83942057 37.89014535 -7.82763672 35.86450195 C-7.8176607 34.47091591 -7.80407499 33.07735034 -7.78662109 31.68383789 C-7.69200629 23.9282064 -7.82340587 16.70335432 -9.9375 9.1875 C-16.54593437 8.83158303 -16.54593437 8.83158303 -22.9375 10.25 C-27.18630803 14.36603278 -27.20146442 20.58616588 -27.3515625 26.21484375 C-27.40957031 28.14360352 -27.40957031 28.14360352 -27.46875 30.11132812 C-27.50019499 31.44921418 -27.53144259 32.78710489 -27.5625 34.125 C-27.60074342 35.49025756 -27.6397987 36.85549264 -27.6796875 38.22070312 C-27.77359704 41.54275296 -27.85662177 44.86510736 -27.9375 48.1875 C-32.2275 48.1875 -36.5175 48.1875 -40.9375 48.1875 C-40.9375 31.6875 -40.9375 15.1875 -40.9375 -1.8125 C-36.6475 -1.8125 -32.3575 -1.8125 -27.9375 -1.8125 C-27.6075 -0.1625 -27.2775 1.4875 -26.9375 3.1875 C-26.1125 2.40375 -25.2875 1.62 -24.4375 0.8125 C-17.11887409 -5.18945723 -7.94079564 -4.89963986 0 0 Z " fill="#EED15F" transform="translate(622.9375,89.8125)"/>
<path d="M0 0 C4.29 0 8.58 0 13 0 C13.01458252 0.97348389 13.02916504 1.94696777 13.04418945 2.94995117 C13.10233296 6.57515476 13.17956377 10.1997476 13.26245117 13.82446289 C13.29562532 15.39076801 13.32368058 16.95719051 13.34643555 18.52368164 C13.38012116 20.78061763 13.43244049 23.03648526 13.48828125 25.29296875 C13.49467117 25.98899704 13.5010611 26.68502533 13.50764465 27.40214539 C13.637221 31.72464229 14.26212947 34.60682412 17 38 C20.92733397 39.16365451 23.04294567 39.42535748 26.8125 37.75 C30.73415858 34.61267313 31.41050536 31.80563903 32 27 C32.14049619 24.83792901 32.2442253 22.67324088 32.31640625 20.5078125 C32.37924805 18.70957031 32.37924805 18.70957031 32.44335938 16.875 C32.48267578 15.6375 32.52199219 14.4 32.5625 13.125 C32.60568359 11.86429688 32.64886719 10.60359375 32.69335938 9.3046875 C32.79909044 6.20324292 32.90001588 3.10163517 33 0 C37.29 0 41.58 0 46 0 C46 16.5 46 33 46 50 C41.71 50 37.42 50 33 50 C32.34 48.35 31.68 46.7 31 45 C30.443125 45.61875 29.88625 46.2375 29.3125 46.875 C25.00355716 50.8345691 20.96196344 51.40133763 15.27734375 51.25 C10.44166331 50.71915343 7.0569986 49.08556613 3.6875 45.625 C0.10965225 40.05945906 -0.27801628 35.65200977 -0.1953125 29.19921875 C-0.1924826 28.36284378 -0.18965271 27.52646881 -0.18673706 26.66474915 C-0.1755832 24.00551774 -0.15048763 21.34662882 -0.125 18.6875 C-0.11496399 16.87956217 -0.10583923 15.07161904 -0.09765625 13.26367188 C-0.07565959 8.84231688 -0.04116294 4.42121642 0 0 Z " fill="#5BB775" transform="translate(248,88)"/>
<path d="M0 0 C4.29 0 8.58 0 13 0 C13 4.62 13 9.24 13 14 C17.29 14 21.58 14 26 14 C26 17.3 26 20.6 26 24 C21.71 24 17.42 24 13 24 C13.11360633 28.10477592 13.24036599 32.20840664 13.375 36.3125 C13.4059375 37.47974609 13.436875 38.64699219 13.46875 39.84960938 C13.50742187 40.96787109 13.54609375 42.08613281 13.5859375 43.23828125 C13.63306885 44.7857605 13.63306885 44.7857605 13.68115234 46.36450195 C13.82674629 49.22843236 13.82674629 49.22843236 16 52 C18.42521494 52.58189266 18.42521494 52.58189266 21.125 52.6875 C22.73375 52.790625 24.3425 52.89375 26 53 C26 56.3 26 59.6 26 63 C21.18650855 65.56719544 16.31232045 65.54572794 11 65 C6.26170231 63.33282118 3.7988062 61.14637955 1 57 C-0.15927528 53.52217417 -0.11313066 50.81196743 -0.09765625 47.14453125 C-0.0962413 46.48289474 -0.09482635 45.82125824 -0.09336853 45.13957214 C-0.08777996 43.03050172 -0.07522965 40.92153823 -0.0625 38.8125 C-0.05748352 37.38086091 -0.05292087 35.94922015 -0.04882812 34.51757812 C-0.0378143 31.01168412 -0.02055755 27.5058525 0 24 C-2.97 24 -5.94 24 -9 24 C-9 20.7 -9 17.4 -9 14 C-6.03 14 -3.06 14 0 14 C0 9.38 0 4.76 0 0 Z " fill="#F7C235" transform="translate(643,74)"/>
<path d="M0 0 C-0.66 3.96 -1.32 7.92 -2 12 C-3.216875 11.938125 -4.43375 11.87625 -5.6875 11.8125 C-9.64801968 11.84748692 -11.97863967 12.23761341 -15 15 C-18.61530467 22.30149767 -18.54456853 29.46316757 -18.6875 37.5 C-18.72166016 38.799375 -18.75582031 40.09875 -18.79101562 41.4375 C-18.8730393 44.62470584 -18.93820708 47.81233775 -19 51 C-23.29 51 -27.58 51 -32 51 C-32 34.5 -32 18 -32 1 C-27.71 1 -23.42 1 -19 1 C-18.67 2.65 -18.34 4.3 -18 6 C-17.195625 4.824375 -17.195625 4.824375 -16.375 3.625 C-11.49063449 -1.77350925 -6.62888744 -1.14291163 0 0 Z " fill="#CDCDCD" transform="translate(465,87)"/>
<path d="M0 0 C36.71691176 0 36.71691176 0 44.625 7.46875 C48.00825154 11.23646194 48.39484377 15.02253068 48.25390625 20.01171875 C47.59537718 25.16850793 44.75691526 28.63173114 41 32 C40.01 31.67 39.02 31.34 38 31 C38.78375 30.443125 39.5675 29.88625 40.375 29.3125 C44.37544976 25.78829426 44.89463559 23.32759154 45.3125 18.0625 C45.17592977 13.23701849 43.70014127 9.6415157 40.1875 6.25 C28.52341874 -0.41518929 15.37947523 2.44598251 2 2 C2 23.78 2 45.56 2 68 C11.9 68 21.8 68 32 68 C32.33 65.36 32.66 62.72 33 60 C32.39937744 60.00523682 31.79875488 60.01047363 31.17993164 60.01586914 C28.47413162 60.03658014 25.76834823 60.04964125 23.0625 60.0625 C22.11697266 60.07087891 21.17144531 60.07925781 20.19726562 60.08789062 C18.84858398 60.09272461 18.84858398 60.09272461 17.47265625 60.09765625 C16.22367554 60.10551147 16.22367554 60.10551147 14.94946289 60.11352539 C13 60 13 60 12 59 C11.91314397 57.43827255 11.89297781 55.87270656 11.90234375 54.30859375 C11.90556641 53.36435547 11.90878906 52.42011719 11.91210938 51.44726562 C11.92048828 50.45404297 11.92886719 49.46082031 11.9375 48.4375 C11.94201172 47.44041016 11.94652344 46.44332031 11.95117188 45.41601562 C11.96299993 42.94395151 11.97948151 40.47200482 12 38 C14.5419589 37.94565884 17.08273682 37.9061661 19.625 37.875 C20.33785156 37.85824219 21.05070312 37.84148437 21.78515625 37.82421875 C26.2612164 37.78315398 29.77949278 38.30913433 34 40 C34 39.34 34 38.68 34 38 C36.31 38.33 38.62 38.66 41 39 C41 38.34 41 37.68 41 37 C39.0399719 35.36323743 39.0399719 35.36323743 37 34 C41.42864971 34.5061314 43.84889946 35.84889946 47 39 C50.01916154 44.30955995 50.77697937 49.0249192 50 55 C48.09069094 60.72792718 44.80802482 63.56569655 40 67 C30 70 30 70 0 70 C0 46.9 0 23.8 0 0 Z M14 40 C14 46.27 14 52.54 14 59 C25.02088077 59.63000423 25.02088077 59.63000423 34.4375 54.75 C36.32447669 51.42892102 36.6271067 49.76264023 36 46 C33.84909549 42.66238955 32.79587201 41.26529067 29 40 C26.42502932 39.92964561 23.88550071 39.9065066 21.3125 39.9375 C18.899375 39.958125 16.48625 39.97875 14 40 Z " fill="#5AB875" transform="translate(192,68)"/>
<path d="M0 0 C9.11857128 6.11339242 13.48967595 13.93198784 16.07421875 24.390625 C17.20038497 36.88321308 16.26725782 48.90897812 7.94921875 58.890625 C0.7090417 66.23832943 -7.38960659 69.47682781 -17.61328125 69.640625 C-27.24262465 69.52247355 -34.88551505 67.09780334 -41.92578125 60.390625 C-49.71776179 51.85655108 -52.23225192 42.44445461 -52.078125 31.0390625 C-51.48002827 20.6413808 -48.276849 11.90876247 -40.92578125 4.390625 C-29.89166117 -3.85640885 -12.67833448 -6.28385164 0 0 Z M-42.78515625 8.3984375 C-49.6721106 17.91061703 -51.02171742 28.9147876 -49.92578125 40.390625 C-48.30350087 49.44070483 -45.15158698 56.51092719 -37.92578125 62.390625 C-35.01916673 64.10404801 -32.14004485 65.37559439 -28.92578125 66.390625 C-28.02666016 66.67679688 -28.02666016 66.67679688 -27.109375 66.96875 C-18.36531231 68.65812168 -9.0286993 68.02296757 -0.92578125 64.390625 C-0.59578125 63.730625 -0.26578125 63.070625 0.07421875 62.390625 C-0.91578125 62.390625 -1.90578125 62.390625 -2.92578125 62.390625 C-3.58578125 60.080625 -4.24578125 57.770625 -4.92578125 55.390625 C-7.23578125 56.050625 -9.54578125 56.710625 -11.92578125 57.390625 C-11.40628906 57.1225 -10.88679688 56.854375 -10.3515625 56.578125 C-4.34684473 53.20393979 -0.55671056 49.19977554 1.68359375 42.59375 C3.08929598 34.6655894 3.26343348 25.48151301 -0.59375 18.2578125 C-4.18939031 13.21758942 -8.74022028 9.48219458 -14.92578125 8.390625 C-21.30848585 8.31750072 -25.94835232 9.12425735 -30.92578125 13.390625 C-36.62992876 19.25774815 -38.11504343 25.38451469 -38.36328125 33.328125 C-38.18019265 41.10106808 -36.50479978 46.34870571 -31.48828125 52.265625 C-29.06851245 54.27226254 -26.68550397 55.89248981 -23.92578125 57.390625 C-28.93437708 55.67339214 -32.67925266 53.40661568 -35.5078125 48.83203125 C-39.50489844 39.48011907 -40.73565233 30.73300113 -37.36328125 20.953125 C-34.63769296 14.98786949 -29.99437164 10.84906855 -23.92578125 8.390625 C-17.46797445 7.59723731 -11.30970491 7.70476139 -5.609375 11.05859375 C-0.84766073 14.82598254 1.53538789 19.59253017 3.07421875 25.390625 C3.29568524 28.18965788 3.26516823 30.96023551 3.19921875 33.765625 C3.19019531 34.50167969 3.18117188 35.23773438 3.171875 35.99609375 C3.14852019 37.7944138 3.11265711 39.59256411 3.07421875 41.390625 C3.73421875 41.060625 4.39421875 40.730625 5.07421875 40.390625 C5.07421875 39.730625 5.07421875 39.070625 5.07421875 38.390625 C5.73421875 39.050625 6.39421875 39.710625 7.07421875 40.390625 C6.74421875 41.380625 6.41421875 42.370625 6.07421875 43.390625 C7.06421875 43.720625 8.05421875 44.050625 9.07421875 44.390625 C9.40421875 43.070625 9.73421875 41.750625 10.07421875 40.390625 C11.06421875 40.720625 12.05421875 41.050625 13.07421875 41.390625 C15.11708153 39.34776222 14.36300175 35.30948764 14.38671875 32.515625 C14.38671875 21.52546482 12.07319157 13.37256319 4.2890625 5.26953125 C-8.69201632 -5.74263615 -31.30872978 -3.99417427 -42.78515625 8.3984375 Z " fill="#E2E2E1" transform="translate(407.92578125,69.609375)"/>
<path d="M0 0 C1.13199353 0.9080162 2.25532363 1.82683826 3.375 2.75 C4.00148438 3.26046875 4.62796875 3.7709375 5.2734375 4.296875 C8.96842834 7.94170759 9.24039861 11.21033555 9.30354309 16.32096863 C9.30263168 17.14704117 9.30172028 17.97311371 9.30078125 18.82421875 C9.30506638 19.68505569 9.3093515 20.54589264 9.31376648 21.43281555 C9.31950428 23.25427371 9.32001409 25.07575478 9.31567383 26.8972168 C9.31253082 29.66040102 9.3359202 32.42249627 9.36132812 35.18554688 C9.36360312 36.96093616 9.36430368 38.7363283 9.36328125 40.51171875 C9.372491 41.32767014 9.38170074 42.14362152 9.39118958 42.98429871 C9.33909637 49.56821393 8.33152395 56.07827856 4.1328125 61.33984375 C3.47023438 61.86707031 2.80765625 62.39429688 2.125 62.9375 C1.46757812 63.48277344 0.81015625 64.02804688 0.1328125 64.58984375 C-4.94024178 67.94400601 -9.55388355 68.29735089 -15.51879883 68.29052734 C-16.78808983 68.30060318 -16.78808983 68.30060318 -18.08302307 68.31088257 C-20.87441924 68.32984629 -23.66557471 68.33378606 -26.45703125 68.3359375 C-28.40370278 68.34236697 -30.35037334 68.34909545 -32.29704285 68.35610962 C-36.37651814 68.36807862 -40.45590878 68.37179087 -44.53540039 68.37060547 C-49.75071991 68.3704024 -54.96549378 68.3976939 -60.18068409 68.43214989 C-64.20170054 68.45444036 -68.22258617 68.45844233 -72.24365807 68.45738602 C-74.16570604 68.45973914 -76.08775777 68.46854637 -78.00974464 68.48405075 C-80.70455206 68.50375254 -83.39818938 68.49785631 -86.09301758 68.48583984 C-86.87926514 68.49707886 -87.6655127 68.50831787 -88.47558594 68.51989746 C-94.93989805 68.44703033 -100.10377351 66.49925336 -105.0234375 62.25390625 C-105.46945313 61.69574219 -105.91546875 61.13757813 -106.375 60.5625 C-106.83648437 60.00691406 -107.29796875 59.45132813 -107.7734375 58.87890625 C-111.32824229 53.43348872 -111.42130737 48.16659614 -111.625 41.84375 C-111.67539429 40.37391663 -111.67539429 40.37391663 -111.72680664 38.87438965 C-111.79249916 36.80688623 -111.8526804 34.73920129 -111.90771484 32.67138672 C-111.99971819 29.50968451 -112.13427373 26.35151382 -112.26953125 23.19140625 C-112.32816247 21.17976276 -112.38423815 19.16804282 -112.4375 17.15625 C-112.48406738 16.21342163 -112.53063477 15.27059326 -112.57861328 14.29919434 C-112.68057972 7.86622553 -112.68057972 7.86622553 -110.63330078 5.26049805 C-108.97265625 3.86523438 -108.97265625 3.86523438 -106 2 C-106 2.99 -106 3.98 -106 5 C-106.66 5 -107.32 5 -108 5 C-109.32015397 8.9604619 -109.2023751 12.77864784 -109.23828125 16.91015625 C-109.246353 17.79223251 -109.25442474 18.67430878 -109.26274109 19.58311462 C-109.27657457 21.45342042 -109.28730002 23.32375138 -109.29516602 25.1940918 C-109.30664673 27.09390738 -109.32703607 28.99369171 -109.35668945 30.89331055 C-110.07349153 45.58532111 -110.07349153 45.58532111 -105 59 C-99.42864438 64.40373603 -94.0673916 65.15363 -86.61645508 65.19287109 C-85.76079956 65.20104858 -84.90514404 65.20922607 -84.02355957 65.21765137 C-81.18889054 65.24248364 -78.35427159 65.25901736 -75.51953125 65.2734375 C-74.06578881 65.28142302 -74.06578881 65.28142302 -72.58267784 65.28956985 C-67.45120408 65.31629418 -62.31975457 65.33566992 -57.18823242 65.35009766 C-52.94647621 65.36342884 -48.70520197 65.39126749 -44.46362305 65.43212891 C-39.33781268 65.48150707 -34.21243903 65.50622533 -29.08640099 65.51332474 C-27.13641278 65.52002788 -25.18643395 65.53522548 -23.2365818 65.55921555 C-20.50071469 65.5909513 -17.76652159 65.59089122 -15.03051758 65.58349609 C-14.23177719 65.59990143 -13.4330368 65.61630676 -12.61009216 65.63320923 C-6.64372643 65.56751805 -2.59042992 63.82479094 2 60 C6.35135639 54.4263452 6.5825241 47.62696426 6.49609375 40.8203125 C6.4982766 39.41844193 6.4982766 39.41844193 6.50050354 37.98825073 C6.49885504 36.03022108 6.48741263 34.07217704 6.46655273 32.11425781 C6.4373744 29.11207641 6.44600981 26.11163993 6.45898438 23.109375 C6.45275267 21.20051224 6.44436619 19.29165503 6.43359375 17.3828125 C6.43652939 16.48595734 6.43946503 15.58910217 6.44248962 14.66506958 C6.42980545 13.83345306 6.41712128 13.00183655 6.40405273 12.14501953 C6.39594826 11.04989548 6.39594826 11.04989548 6.38768005 9.93264771 C5.89746671 7.48885496 4.87601357 6.57858519 3 5 C2.98541748 6.26593994 2.97083496 7.53187988 2.95581055 8.83618164 C2.89763878 13.55342204 2.82040707 18.27019451 2.73754883 22.98706055 C2.70438816 25.02474345 2.67632888 27.06251624 2.65356445 29.1003418 C2.61985538 32.03733463 2.56753126 34.97351023 2.51171875 37.91015625 C2.50532883 38.81459976 2.4989389 39.71904327 2.49235535 40.65089417 C2.33355316 47.5533155 1.17711892 52.35215266 -3.3125 57.8125 C-8.3361642 61.901529 -13.52047112 62.30046672 -19.80615234 62.30639648 C-20.94398918 62.31888176 -20.94398918 62.31888176 -22.10481262 62.33161926 C-24.59857397 62.35560486 -27.09207324 62.36447676 -29.5859375 62.37109375 C-31.32939732 62.38006802 -33.07285639 62.38919001 -34.8163147 62.39845276 C-38.46610379 62.41491367 -42.11580146 62.42263771 -45.765625 62.42553711 C-50.42840658 62.43092127 -55.09032203 62.46861473 -59.75285912 62.51428127 C-63.35268245 62.54411014 -66.9522985 62.55126191 -70.55223465 62.55226326 C-72.27055457 62.55645315 -73.98887581 62.5688378 -75.70707321 62.58978081 C-92.24259222 62.77531288 -92.24259222 62.77531288 -99 57 C-98.67 56.34 -98.34 55.68 -98 55 C-97.401875 55.474375 -96.80375 55.94875 -96.1875 56.4375 C-92.13981986 59.3287001 -88.29101647 59.1536914 -83.51855469 59.16113281 C-82.37896553 59.16858017 -82.37896553 59.16858017 -81.21635437 59.17617798 C-78.7015187 59.19078889 -76.18674616 59.19760057 -73.671875 59.203125 C-71.92173257 59.20887829 -70.17159016 59.214636 -68.42144775 59.22039795 C-64.74954942 59.23090555 -61.07767297 59.23674948 -57.40576172 59.24023438 C-52.7105291 59.24571199 -48.01558751 59.2697253 -43.32044601 59.29820633 C-39.70352344 59.31687252 -36.08667034 59.32204047 -32.46970367 59.32357025 C-30.73941714 59.32658942 -29.00913162 59.33459303 -27.27889252 59.34775543 C-24.85204757 59.36489596 -22.42590511 59.36291619 -19.99902344 59.35644531 C-19.29019516 59.3656601 -18.58136688 59.37487488 -17.85105896 59.3843689 C-12.79308621 59.34232651 -9.42494559 58.26952499 -5 56 C-1.31225283 52.18932792 -0.88935782 48.27942432 -0.79467773 43.13964844 C-0.77473251 42.17895447 -0.75478729 41.2182605 -0.73423767 40.22845459 C-0.71752518 39.19915833 -0.70081268 38.16986206 -0.68359375 37.109375 C-0.6524221 35.51974945 -0.6524221 35.51974945 -0.62062073 33.89801025 C-0.55527814 30.51540562 -0.49631119 27.13272388 -0.4375 23.75 C-0.39430025 21.45572122 -0.35068549 19.16145021 -0.30664062 16.8671875 C-0.1996124 11.24487298 -0.09781761 5.6224819 0 0 Z " fill="#F3C442" transform="translate(141,97)"/>
<path d="M0 0 C0.886875 0.5775 1.77375 1.155 2.6875 1.75 C7.92198717 6.84301454 8.40696436 13.64547439 9.08203125 20.58203125 C9 23 9 23 7 26 C4.51659097 26.26727014 2.28527932 26.34866334 -0.1953125 26.29296875 C-0.90275604 26.28872391 -1.61019958 26.28447906 -2.33908081 26.28010559 C-4.60143905 26.26329547 -6.86291048 26.22564128 -9.125 26.1875 C-10.65753923 26.17245607 -12.1900924 26.15876716 -13.72265625 26.14648438 C-17.48211318 26.11338462 -21.24090618 26.06158825 -25 26 C-24.47731534 28.76276177 -23.89130413 31.3260876 -23 34 C-17.34598971 37.43185275 -11.90320597 37.15600416 -5.6640625 35.75 C-1.99423779 34.71685287 1.47863633 33.46169813 5 32 C5.99 35.3 6.98 38.6 8 42 C-1.24288084 47.77680052 -10.91371066 49.73610535 -21.7109375 47.41796875 C-28.58253691 45.10276833 -32.93827488 40.93011867 -37 35 C-40.23932494 27.84649076 -40.04214122 18.68914267 -37.875 11.1875 C-35.16704804 4.23499079 -30.73601788 -0.29293931 -23.9296875 -3.28515625 C-15.63751964 -6.35695123 -6.90018039 -5.6164259 0 0 Z M-31 3 C-33.28728734 4.83883881 -33.28728734 4.83883881 -33.125 7.625 C-33.063125 8.800625 -33.063125 8.800625 -33 10 C-32.01 9.67 -31.02 9.34 -30 9 C-30 9.66 -30 10.32 -30 11 C-30.99 11.33 -31.98 11.66 -33 12 C-33 12.99 -33 13.98 -33 15 C-34.32 15 -35.64 15 -37 15 C-37.4848667 24.46836921 -37.77762619 32.45251935 -31.3515625 39.9140625 C-28.57318166 42.57111666 -27.04989567 44 -23.125 44 C-20.83784358 43.19141401 -20.83784358 43.19141401 -20 41 C-19.4225 41.37125 -18.845 41.7425 -18.25 42.125 C-17.13625 42.558125 -17.13625 42.558125 -16 43 C-15.01 42.505 -15.01 42.505 -14 42 C-13.01 41.505 -13.01 41.505 -12 41 C-9.75 41.875 -9.75 41.875 -8 43 C-8 42.34 -8 41.68 -8 41 C-7.34 41 -6.68 41 -6 41 C-6.33 41.66 -6.66 42.32 -7 43 C-9.50390625 43.6328125 -9.50390625 43.6328125 -12.5625 44.125 C-14.08037109 44.37636719 -14.08037109 44.37636719 -15.62890625 44.6328125 C-16.80259766 44.81457031 -16.80259766 44.81457031 -18 45 C-18 45.33 -18 45.66 -18 46 C-13.05 46 -8.1 46 -3 46 C-3 45.34 -3 44.68 -3 44 C-2.2575 44.04125 -1.515 44.0825 -0.75 44.125 C2.08758952 43.99601866 3.58773938 43.42948778 6 42 C5.34 39.36 4.68 36.72 4 34 C2.96875 34.474375 1.9375 34.94875 0.875 35.4375 C-6.16966057 38.43042193 -13.5255622 39.27396053 -20.75 36.625 C-24 34 -24 34 -28 24 C-16.45 24 -4.9 24 7 24 C7.28209792 13.15636323 7.28209792 13.15636323 2.2421875 4.1015625 C0.54562688 2.63853654 -1.16429905 1.28247601 -3 0 C-3.53190541 1.43344 -4.05015258 2.87195367 -4.5625 4.3125 C-4.85253906 5.11300781 -5.14257812 5.91351563 -5.44140625 6.73828125 C-6.24915625 9.1433174 -6.24915625 9.1433174 -5 12 C-5.61875 11.195625 -6.2375 10.39125 -6.875 9.5625 C-9.51555498 6.37830135 -10.14553961 6.08215965 -14.25 5.6875 C-18.68062166 6.05671847 -20.61779734 7.16838847 -24 10 C-25.38868516 12.10039331 -25.38868516 12.10039331 -26 14 C-25.38722388 11.03824877 -24.74627478 9.61941217 -23 7 C-24.32 7 -25.64 7 -27 7 C-27 6.34 -27 5.68 -27 5 C-25.68 5 -24.36 5 -23 5 C-23 3.35 -23 1.7 -23 0 C-25.65647986 0 -28.64570991 1.92611329 -31 3 Z " fill="#F6CB44" transform="translate(565,91)"/>
<path d="M0 0 C3.3 0 6.6 0 10 0 C10.01981934 0.87213135 10.03963867 1.7442627 10.06005859 2.64282227 C10.13857436 5.90643193 10.22527969 9.16961754 10.31738281 12.43286133 C10.35545293 13.84000398 10.39034245 15.24723669 10.421875 16.65454102 C10.4680078 18.68798823 10.52591568 20.72082707 10.5859375 22.75390625 C10.6173584 23.97408447 10.6487793 25.1942627 10.68115234 26.45141602 C11.02009032 30.22359331 11.67417157 33.45080355 13 37 C19.08787705 39.02929235 25.09267705 38.42351711 31 36 C29.76141604 40.95433585 28.27241667 43.18645731 24 46 C18.15323045 47.94892318 12.06047738 47.99344445 6.5 45.3125 C1.72006534 40.89106044 0.7258314 37.38395181 0 31 C-0.07756606 28.51271499 -0.10798186 26.02362899 -0.09765625 23.53515625 C-0.0962413 22.85698349 -0.09482635 22.17881073 -0.09336853 21.48008728 C-0.08782745 19.34084422 -0.07528653 17.20171075 -0.0625 15.0625 C-0.05747736 13.60091298 -0.0529158 12.13932431 -0.04882812 10.67773438 C-0.03787745 7.11845474 -0.02065445 3.55923809 0 0 Z " fill="#59B774" transform="translate(249,90)"/>
<path d="M0 0 C2.45849609 1.40966797 2.45849609 1.40966797 5 4 C5.77114585 7.13749271 5.70071817 10.22723634 5.6640625 13.4453125 C5.66884613 14.37036591 5.67362976 15.29541931 5.67855835 16.24850464 C5.6819591 18.20702818 5.67274437 20.16560834 5.65185547 22.12402344 C5.62527365 25.09442065 5.65150136 28.06097599 5.68359375 31.03125 C5.72894713 51.10499643 5.72894713 51.10499643 0 57 C-5.62614491 61.57094221 -10.16880581 62.71537678 -17.3125 62.48828125 C-18.16682617 62.48120651 -19.02115234 62.47413177 -19.90136719 62.46684265 C-22.60184255 62.43908893 -25.30016274 62.37639149 -28 62.3125 C-29.84241775 62.28739232 -31.68486834 62.2645835 -33.52734375 62.24414062 C-38.01904619 62.18932539 -42.50915908 62.10319028 -47 62 C-47 61.34 -47 60.68 -47 60 C-62.18 59.67 -77.36 59.34 -93 59 C-93 58.67 -93 58.34 -93 58 C-92.02582626 57.99413376 -91.05165253 57.98826752 -90.04795837 57.98222351 C-80.85238818 57.92492803 -71.65705293 57.85213081 -62.46172237 57.76428509 C-57.73467156 57.71962091 -53.00770615 57.68035608 -48.28051758 57.65356445 C-43.71567357 57.62749203 -39.15115889 57.58706181 -34.58651924 57.53681374 C-32.84791737 57.52017163 -31.10925857 57.50864084 -29.3705883 57.50238609 C-26.92892071 57.49271593 -24.48809062 57.46462289 -22.04663086 57.43237305 C-21.33308945 57.43380814 -20.61954803 57.43524323 -19.88438416 57.4367218 C-13.92695698 57.32595423 -9.40315437 55.88355342 -4.6875 52.1875 C-0.44271554 46.68500163 -0.66824358 40.42614742 -0.5859375 33.7890625 C-0.56657135 32.82092621 -0.5472052 31.85278992 -0.5272522 30.85531616 C-0.4677167 27.7786323 -0.4211753 24.70191049 -0.375 21.625 C-0.33679627 19.53253623 -0.29774315 17.44008778 -0.2578125 15.34765625 C-0.16203655 10.23189604 -0.07790958 5.11606224 0 0 Z " fill="#F4AD19" transform="translate(143,101)"/>
<path d="M0 0 C-0.61875 0.268125 -1.2375 0.53625 -1.875 0.8125 C-4.2995233 1.95556848 -4.2995233 1.95556848 -6 5 C-8 5 -10 5 -12 5 C-11.67 5.66 -11.34 6.32 -11 7 C-10.34 6.67 -9.68 6.34 -9 6 C-6.99199544 6.28112064 -4.98985949 6.61067967 -3 7 C-3 7.33 -3 7.66 -3 8 C-4.01320313 8.14695312 -4.01320313 8.14695312 -5.046875 8.296875 C-10.53137006 9.20875083 -10.53137006 9.20875083 -15.5 11.5625 C-19.88076249 18.68123905 -19.40105026 27.97698111 -19.625 36.0625 C-19.68300781 37.79016602 -19.68300781 37.79016602 -19.7421875 39.55273438 C-19.83565152 42.36833796 -19.92141252 45.1839486 -20 48 C-22.97 48 -25.94 48 -29 48 C-29 32.82 -29 17.64 -29 2 C-25.7 2 -22.4 2 -19 2 C-18.34 3.32 -17.68 4.64 -17 6 C-16.67 6.33 -16.34 6.66 -16 7 C-15.29875 6.21625 -14.5975 5.4325 -13.875 4.625 C-9.60495933 0.72626722 -5.72031123 -0.3364889 0 0 Z " fill="#FABB28" transform="translate(613,88)"/>
<path d="M0 0 C3.79447695 1.66455829 5.25040797 3.63079802 7.484375 7.08984375 C9.14036537 12.05781485 9.13499514 16.3776855 7.296875 21.21484375 C5.88294655 23.45762681 4.51490899 25.29086694 2.796875 27.27734375 C0.1668223 29.86920184 0.1668223 29.86920184 0.484375 33.08984375 C-2.155625 32.75984375 -4.795625 32.42984375 -7.515625 32.08984375 C-6.515625 30.08984375 -6.515625 30.08984375 -3.515625 29.08984375 C-3.515625 28.09984375 -3.515625 27.10984375 -3.515625 26.08984375 C-2.855625 26.08984375 -2.195625 26.08984375 -1.515625 26.08984375 C-1.515625 25.09984375 -1.515625 24.10984375 -1.515625 23.08984375 C-2.09828125 23.37859375 -2.6809375 23.66734375 -3.28125 23.96484375 C-10.18919395 27.09296931 -15.99184071 27.55523247 -23.515625 27.08984375 C-23.185625 26.42984375 -22.855625 25.76984375 -22.515625 25.08984375 C-20.22265625 24.78125 -20.22265625 24.78125 -17.328125 24.65234375 C-12.50479104 24.30737188 -8.10419895 23.6784177 -4.515625 20.08984375 C-4.10243134 16.04183102 -4.10243134 16.04183102 -4.515625 12.08984375 C-7.44217507 9.08807861 -9.9837989 8.65301678 -14.078125 8.40234375 C-15.02816406 8.33660156 -15.97820312 8.27085938 -16.95703125 8.203125 C-18.8084668 8.12115304 -20.66237569 8.08984375 -22.515625 8.08984375 C-22.56460938 9.23324219 -22.61359375 10.37664062 -22.6640625 11.5546875 C-22.73907689 13.04559848 -22.81462528 14.53648267 -22.890625 16.02734375 C-22.9215625 16.78208984 -22.9525 17.53683594 -22.984375 18.31445312 C-23.0882565 20.2449177 -23.29458114 22.16926456 -23.515625 24.08984375 C-24.175625 24.41984375 -24.835625 24.74984375 -25.515625 25.08984375 C-25.54246487 22.11061782 -25.56238537 19.1316308 -25.578125 16.15234375 C-25.58650391 15.30220703 -25.59488281 14.45207031 -25.60351562 13.57617188 C-25.60673828 12.76728516 -25.60996094 11.95839844 -25.61328125 11.125 C-25.61851807 10.37613525 -25.62375488 9.62727051 -25.62915039 8.85571289 C-25.515625 7.08984375 -25.515625 7.08984375 -24.515625 6.08984375 C-21.84503649 5.94869214 -19.19130262 6.04737268 -16.515625 6.08984375 C-16.185625 5.42984375 -15.855625 4.76984375 -15.515625 4.08984375 C-14.855625 4.08984375 -14.195625 4.08984375 -13.515625 4.08984375 C-12.16175564 2.43981547 -10.82884358 0.77240505 -9.515625 -0.91015625 C-6.21866685 -2.55863532 -3.3873333 -1.0622129 0 0 Z " fill="#62BD7C" transform="translate(229.515625,71.91015625)"/>
<path d="M0 0 C2.93679723 1.0126887 3.934198 1.89603106 5.6184082 4.55712891 C7.29579041 8.7370978 7.38398648 12.01412197 7.29296875 16.4609375 C7.28872391 17.25150543 7.28447906 18.04207336 7.28010559 18.8565979 C7.26341301 21.3630894 7.22577983 23.86875461 7.1875 26.375 C7.17244092 28.08201958 7.15875466 29.78905185 7.14648438 31.49609375 C7.11354056 35.66437725 7.06182493 39.83204889 7 44 C3.7 44 0.4 44 -3 44 C-3.02505615 43.05680908 -3.0501123 42.11361816 -3.07592773 41.1418457 C-3.17129809 37.62871337 -3.27051725 34.11573292 -3.37231445 30.6027832 C-3.41551548 29.08492245 -3.45720048 27.56701774 -3.49731445 26.04907227 C-3.55537812 23.86200741 -3.61896656 21.67516082 -3.68359375 19.48828125 C-3.72025146 18.17384033 -3.75690918 16.85939941 -3.79467773 15.50512695 C-3.90494811 12.09560916 -3.90494811 12.09560916 -4.60180664 9.19995117 C-5 7 -5 7 -3.6875 4.3125 C-2 2 -2 2 0 0 Z " fill="#F8BC25" transform="translate(620,92)"/>
<path d="M0 0 C35.65661253 0 35.65661253 0 42.4375 4.68359375 C43.2109375 5.55177734 43.2109375 5.55177734 44 6.4375 C44.53625 7.01371094 45.0725 7.58992188 45.625 8.18359375 C49.32199954 13.06741416 50.04560802 17.96149762 50 24 C48.9199086 30.38763732 44.96425501 35.9374158 40 40 C37.2734375 40.72265625 37.2734375 40.72265625 35 41 C35 40.34 35 39.68 35 39 C35.99 39 36.98 39 38 39 C38 38.34 38 37.68 38 37 C38.99 37 39.98 37 41 37 C41 36.34 41 35.68 41 35 C39.68 35 38.36 35 37 35 C35.7625 34.835 34.525 34.67 33.25 34.5 C26.20194693 33.65897182 19.08514784 33.9217591 12 34 C14.80848837 31.19151163 17.60799875 31.62128603 21.375 31.5 C27.5303893 31.46570901 27.5303893 31.46570901 33 29 C35.47030941 25.35994907 35.18082439 22.40568225 34.625 18.1953125 C33.67331899 14.85253296 31.66200247 13.11595068 29 11 C31.47748667 11.35392667 33.10606746 12.064819 35.25 13.375 C38.03608733 17.554131 37.61747108 22.11767052 37 27 C35.9765625 29.34375 35.9765625 29.34375 35 31 C36.32 30.01 37.64 29.02 39 28 C41.2477975 30.05233685 42.0022242 31.00667261 43 34 C46.03175085 29.81023292 46.43233665 26.6897049 46.4375 21.5625 C46.45683594 20.28503906 46.47617187 19.00757812 46.49609375 17.69140625 C45.83024884 12.73689096 43.7412749 9.7412749 40.25 6.25 C29.30140072 0.16744484 10.90556926 2.34157135 1 2 C1 23.78 1 45.56 1 68 C4.3 68 7.6 68 11 68 C11 59.75 11 51.5 11 43 C11.66 43 12.32 43 13 43 C13 51.91 13 60.82 13 70 C8.71 70 4.42 70 0 70 C0 46.9 0 23.8 0 0 Z " fill="#F1D152" transform="translate(472,68)"/>
<path d="M0 0 C36.71691176 0 36.71691176 0 44.625 7.46875 C48.00825154 11.23646194 48.39484377 15.02253068 48.25390625 20.01171875 C47.59537718 25.16850793 44.75691526 28.63173114 41 32 C40.01 31.67 39.02 31.34 38 31 C38.78375 30.443125 39.5675 29.88625 40.375 29.3125 C44.37544976 25.78829426 44.89463559 23.32759154 45.3125 18.0625 C45.17592977 13.23701849 43.70014127 9.6415157 40.1875 6.25 C28.52341874 -0.41518929 15.37947523 2.44598251 2 2 C2 23.78 2 45.56 2 68 C24.37525951 69.39613212 24.37525951 69.39613212 44.5625 60.4375 C47.6656275 55.1756751 47.46288215 49.94759892 47 44 C45.15577773 38.90126784 41.63106136 37.35921994 37 35 C40 34 40 34 42.9375 35.4375 C47.2439972 39.04089561 49.50476885 42.71144257 50.34765625 48.30859375 C50.57029031 54.04868049 49.48084574 58.18837483 45.59375 62.59375 C33.55850875 74.17483121 14.86224753 70 0 70 C0 46.9 0 23.8 0 0 Z " fill="#77CD91" transform="translate(192,68)"/>
<path d="M0 0 C7.59 0 15.18 0 23 0 C23.33 6.93 23.66 13.86 24 21 C11.07042254 21 11.07042254 21 6 17 C0.99204361 11.48128189 0.87083457 7.83751116 0 0 Z " fill="#FBBB28" transform="translate(63,115)"/>
<path d="M0 0 C6.40424533 0.44976379 11.12150011 1.74254697 15.99609375 6.0546875 C19.50478797 10.92158594 19.66223594 16.22944437 19.99609375 22.0546875 C12.28019558 22.2114439 4.68092914 21.72921851 -3.00390625 21.0546875 C-3.03278771 17.74220563 -3.05066424 14.42975583 -3.06640625 11.1171875 C-3.07478516 10.17166016 -3.08316406 9.22613281 -3.09179688 8.25195312 C-3.09501953 7.35283203 -3.09824219 6.45371094 -3.1015625 5.52734375 C-3.10679932 4.69468994 -3.11203613 3.86203613 -3.11743164 3.00415039 C-2.96107867 0.31925053 -2.69239348 0.07347663 0 0 Z " fill="#F8B324" transform="translate(95.00390625,86.9453125)"/>
<path d="M0 0 C-0.08772455 1.89666526 -0.19591301 3.79238993 -0.3125 5.6875 C-0.37050781 6.74324219 -0.42851563 7.79898438 -0.48828125 8.88671875 C-1.29084212 13.76947461 -3.0397359 16.26447856 -6.9375 19.25 C-12.65742788 22.51853022 -16.0061451 22 -23 22 C-22.67 15.07 -22.34 8.14 -22 1 C-20.205625 1.020625 -18.41125 1.04125 -16.5625 1.0625 C-11.00530505 1.06908435 -5.50064668 0 0 0 Z " fill="#F9B423" transform="translate(115,114)"/>
<path d="M0 0 C0 6.6 0 13.2 0 20 C-10.89 20.495 -10.89 20.495 -22 21 C-22 14.21865867 -21.52878841 10.57915476 -18 5 C-11.71693933 -0.12902912 -8.49015453 0 0 0 Z " fill="#FBBF29" transform="translate(86,88)"/>
<path d="M0 0 C3.54113396 -0.70537678 6.49192104 -0.95212012 10 0 C13.01699277 3.32452455 15.03033842 6.98241213 17 11 C17.33 9.35 17.66 7.7 18 6 C18.66 6 19.32 6 20 6 C20.33 5.01 20.66 4.02 21 3 C21.33 3 21.66 3 22 3 C22.33 2.01 22.66 1.02 23 0 C39 24.5260771 39 24.5260771 39 28 C26.96133107 29.50274647 26.96133107 29.50274647 22.828125 26.3359375 C20.9436296 23.652775 19.48109883 20.92743008 18 18 C17.20267796 16.5869644 16.3974632 15.17836386 15.5859375 13.7734375 C13.34112138 9.87497913 11.15927737 5.94643438 9 2 C6.36 2 3.72 2 1 2 C0.67 1.34 0.34 0.68 0 0 Z " fill="#F9BD28" transform="translate(485,110)"/>
<path d="M0 0 C2.62397692 0.7188548 3.79089012 1.4632362 5.77577209 3.29577637 C6.46671967 3.93265381 7.15766724 4.56953125 7.86955261 5.22570801 C13.74662853 10.87591607 19.57200757 16.57534308 25.36341858 22.31335449 C26.0719504 23.01531448 26.78048222 23.71727448 27.5104847 24.44050598 C31.24981675 28.14743692 34.9851984 31.85830496 38.71815491 35.57165527 C41.8012628 38.63686852 44.89268727 41.69331364 47.99159241 44.74255371 C51.74883766 48.43968298 55.49121624 52.15125673 59.22337532 55.873703 C60.64363991 57.28541182 62.06903128 58.69198248 63.49963188 60.09321594 C65.49581756 62.05056005 67.47230989 64.02593492 69.44520569 66.00671387 C70.33265724 66.86416451 70.33265724 66.86416451 71.23803711 67.73893738 C74.93646496 71.50415704 76.31463362 74.16735478 76.39857483 79.65710449 C74.93618454 82.87436313 73.11685621 85.39187001 70.39857483 87.65710449 C67.64778599 88.57403411 66.0390857 88.76596533 63.21107483 88.71960449 C61.95294983 88.69897949 60.69482483 88.67835449 59.39857483 88.65710449 C59.72857483 87.99710449 60.05857483 87.33710449 60.39857483 86.65710449 C62.90370106 86.09143083 65.40947268 85.76348292 67.95326233 85.41491699 C70.99620907 84.47189516 71.8212705 83.37694336 73.39857483 80.65710449 C74.23458153 77.83079331 74.23458153 77.83079331 73.39857483 74.65710449 C67.64369669 66.43019139 59.34502516 59.45846261 52.25794983 52.38366699 C50.88494011 51.00998269 49.51207879 49.63615005 48.13935852 48.26217651 C45.27653838 45.39788917 42.41193504 42.53540072 39.54603577 39.67419434 C35.87178439 36.00566672 32.20207723 32.33263123 28.53367233 28.65825844 C25.70624642 25.82722348 22.87644874 22.99856894 20.04592133 20.17063522 C18.69118594 18.81656675 17.33719255 17.4617555 15.98395538 16.10618973 C14.09820167 14.21790095 12.20928018 12.33283953 10.31947327 10.4486084 C9.76151062 9.88862152 9.20354797 9.32863464 8.62867737 8.75167847 C4.64945184 4.44636888 4.64945184 4.44636888 -0.61705017 2.43444824 C-6.4032786 2.84919538 -9.03587399 4.37261731 -12.84751892 8.68835449 C-15.22009425 11.35155709 -17.896808 13.57641353 -20.60923767 15.88366699 C-23.04027546 18.0477673 -25.30585283 20.34974846 -27.60142517 22.65710449 C-42.26809184 37.32377116 -56.9347585 51.99043783 -71.60142517 66.65710449 C-72.26142517 66.32710449 -72.92142517 65.99710449 -73.60142517 65.65710449 C-66.18032016 58.21275186 -58.75645877 50.77115997 -51.32913971 43.33300686 C-47.87982427 39.87848965 -44.43143826 36.42305553 -40.98521423 32.9654541 C-37.65469851 29.62401285 -34.32169211 26.28507424 -30.98699951 22.94780159 C-29.71998476 21.67894992 -28.45384524 20.40922361 -27.18862915 19.13857841 C-16.16604653 8.0706148 -16.16604653 8.0706148 -11.0721283 3.37609863 C-10.50917053 2.85721573 -9.94621277 2.33833282 -9.36619568 1.8037262 C-6.32357643 -0.17315026 -3.55561569 -0.29781856 0 0 Z " fill="#F1F1F0" transform="translate(91.60142517089844,11.3428955078125)"/>
<path d="M0 0 C3.3 0 6.6 0 10 0 C12.1875 6.125 12.1875 6.125 12.85791016 8.01708984 C14.03286615 11.32667344 15.22989387 14.62442328 16.48046875 17.90625 C16.94066406 19.1334375 17.40085937 20.360625 17.875 21.625 C18.30554688 22.75164062 18.73609375 23.87828125 19.1796875 25.0390625 C19.99614 27.98606725 20.21141022 29.23998289 19 32 C18.34 32.66 17.68 33.32 17 34 C16.67 34.99 16.34 35.98 16 37 C13 36 13 36 12.00439453 34.25683594 C11.71677246 33.50692383 11.42915039 32.75701172 11.1328125 31.984375 C10.80667969 31.15091553 10.48054688 30.31745605 10.14453125 29.45874023 C9.63986328 28.11791382 9.63986328 28.11791382 9.125 26.75 C8.60099609 25.39467163 8.60099609 25.39467163 8.06640625 24.01196289 C7.36421807 22.19284854 6.66657584 20.37197249 5.97363281 18.54931641 C5.12252188 16.3208058 4.25235394 14.10186167 3.3671875 11.88671875 C0 3.39178571 0 3.39178571 0 0 Z " fill="#59B773" transform="translate(302,90)"/>
<path d="M0 0 C-0.66 3.96 -1.32 7.92 -2 12 C-3.216875 11.938125 -4.43375 11.87625 -5.6875 11.8125 C-9.64801968 11.84748692 -11.97863967 12.23761341 -15 15 C-18.61530467 22.30149767 -18.54456853 29.46316757 -18.6875 37.5 C-18.72166016 38.799375 -18.75582031 40.09875 -18.79101562 41.4375 C-18.8730393 44.62470584 -18.93820708 47.81233775 -19 51 C-23.29 51 -27.58 51 -32 51 C-32 34.5 -32 18 -32 1 C-28.04 1 -24.08 1 -20 1 C-20 3.97 -20 6.94 -20 10 C-20.33 10 -20.66 10 -21 10 C-21 7.69 -21 5.38 -21 3 C-23.97 3 -26.94 3 -30 3 C-30 18.18 -30 33.36 -30 49 C-27.03 49 -24.06 49 -21 49 C-21.02356567 47.87356079 -21.02356567 47.87356079 -21.04760742 46.72436523 C-21.11027758 43.29548789 -21.14909261 39.86673145 -21.1875 36.4375 C-21.21263672 35.25607422 -21.23777344 34.07464844 -21.26367188 32.85742188 C-21.34048617 23.71652057 -20.33542027 17.94852545 -14 11 C-10.57067929 9.28533964 -6.78283935 9.94595944 -3 10 C-3 7.03 -3 4.06 -3 1 C-4.423125 1.268125 -5.84625 1.53625 -7.3125 1.8125 C-8.11300781 1.96332031 -8.91351563 2.11414063 -9.73828125 2.26953125 C-12.27062353 3.08740345 -13.28872967 4.00351795 -15 6 C-16 7 -17 8 -18 9 C-17.70902736 5.50832834 -17.24460417 4.23799325 -14.6875 1.75 C-9.4935894 -1.63208132 -5.96735027 -0.89510254 0 0 Z " fill="#EEEEED" transform="translate(465,87)"/>
<path d="M0 0 C0.99 0.99 1.98 1.98 3 3 C2.34 3 1.68 3 1 3 C1.00444122 3.56296783 1.00888245 4.12593567 1.01345825 4.70596313 C1.05779093 10.57852636 1.08790766 16.45104184 1.10986328 22.32373047 C1.11990526 24.51385429 1.13354147 26.70396475 1.15087891 28.89404297 C1.17520627 32.04658306 1.18650131 35.19894548 1.1953125 38.3515625 C1.20563507 39.32678864 1.21595764 40.30201477 1.22659302 41.30679321 C1.22764034 47.68869 0.93910272 52.62998556 -3.25 57.75 C-8.30322757 61.88445892 -13.46761569 62.30041686 -19.80615234 62.30639648 C-20.94398918 62.31888176 -20.94398918 62.31888176 -22.10481262 62.33161926 C-24.59857397 62.35560486 -27.09207324 62.36447676 -29.5859375 62.37109375 C-31.32939732 62.38006802 -33.07285639 62.38919001 -34.8163147 62.39845276 C-38.46610379 62.41491367 -42.11580146 62.42263771 -45.765625 62.42553711 C-50.42840658 62.43092127 -55.09032203 62.46861473 -59.75285912 62.51428127 C-63.35268245 62.54411014 -66.9522985 62.55126191 -70.55223465 62.55226326 C-72.27055457 62.55645315 -73.98887581 62.5688378 -75.70707321 62.58978081 C-92.24259222 62.77531288 -92.24259222 62.77531288 -99 57 C-98.67 56.34 -98.34 55.68 -98 55 C-97.401875 55.474375 -96.80375 55.94875 -96.1875 56.4375 C-92.13981986 59.3287001 -88.29101647 59.1536914 -83.51855469 59.16113281 C-82.37896553 59.16858017 -82.37896553 59.16858017 -81.21635437 59.17617798 C-78.7015187 59.19078889 -76.18674616 59.19760057 -73.671875 59.203125 C-71.92173257 59.20887829 -70.17159016 59.214636 -68.42144775 59.22039795 C-64.74954942 59.23090555 -61.07767297 59.23674948 -57.40576172 59.24023438 C-52.7105291 59.24571199 -48.01558751 59.2697253 -43.32044601 59.29820633 C-39.70352344 59.31687252 -36.08667034 59.32204047 -32.46970367 59.32357025 C-30.73941714 59.32658942 -29.00913162 59.33459303 -27.27889252 59.34775543 C-24.85204757 59.36489596 -22.42590511 59.36291619 -19.99902344 59.35644531 C-19.29019516 59.3656601 -18.58136688 59.37487488 -17.85105896 59.3843689 C-12.79308621 59.34232651 -9.42494559 58.26952499 -5 56 C-1.31225283 52.18932792 -0.88935782 48.27942432 -0.79467773 43.13964844 C-0.77473251 42.17895447 -0.75478729 41.2182605 -0.73423767 40.22845459 C-0.71752518 39.19915833 -0.70081268 38.16986206 -0.68359375 37.109375 C-0.6524221 35.51974945 -0.6524221 35.51974945 -0.62062073 33.89801025 C-0.55527814 30.51540562 -0.49631119 27.13272388 -0.4375 23.75 C-0.39430025 21.45572122 -0.35068549 19.16145021 -0.30664062 16.8671875 C-0.1996124 11.24487298 -0.09781761 5.6224819 0 0 Z " fill="#E7BE56" transform="translate(141,97)"/>
<path d="M0 0 C4.62 0 9.24 0 14 0 C17.41285172 9.13700072 20.8212139 18.27839591 24 27.5 C24.4125 28.6859375 24.825 29.871875 25.25 31.09375 C26 34 26 34 25 37 C22.27203302 30.90925611 20.05889515 24.67869734 17.875 18.375 C17.51535156 17.35148437 17.15570313 16.32796875 16.78515625 15.2734375 C16.44097656 14.2834375 16.09679687 13.2934375 15.7421875 12.2734375 C15.4313623 11.38060059 15.12053711 10.48776367 14.80029297 9.56787109 C14.01822018 7.05846243 13.46582779 4.5850244 13 2 C9.7 2 6.4 2 3 2 C4.59796166 6.14066679 6.19715295 10.28085618 7.79736328 14.4206543 C8.3386964 15.82157332 8.87972453 17.22261025 9.42041016 18.6237793 C9.94566724 19.98485049 10.47144616 21.3457204 10.9977417 22.70639038 C11.52677317 24.07524147 12.05414915 25.44473348 12.57989502 26.81484985 C13.92033834 30.29113333 15.30251453 33.73984671 16.77246094 37.16357422 C17.05568207 37.83420395 17.3389032 38.50483368 17.63070679 39.19578552 C18.41272535 41.03872487 19.210496 42.87495731 20.00927734 44.71069336 C21.10031724 48.33306411 21.00580812 50.38454531 20 54 C16.66471228 58.30004036 12.24881582 60.71980102 7 62 C7 64.31 7 66.62 7 69 C16.34363291 66.92341559 16.34363291 66.92341559 25 63 C25 63.66 25 64.32 25 65 C19.65931533 69.8829117 13.03760289 70.48652683 6 71 C5 70 5 70 4.90234375 67.71484375 C4.91394531 66.79832031 4.92554688 65.88179688 4.9375 64.9375 C4.94652344 64.01839844 4.95554687 63.09929687 4.96484375 62.15234375 C4.98224609 61.08693359 4.98224609 61.08693359 5 60 C5.60328125 59.84144531 6.2065625 59.68289062 6.828125 59.51953125 C10.6833396 58.39405731 13.50977893 57.40851756 16.625 54.8125 C18.50840594 50.96007876 17.95991205 48.04088182 17 44 C15.45724309 39.56586321 13.64482128 35.25870686 11.8125 30.9375 C10.81229698 28.53133438 9.81229566 26.12508491 8.8125 23.71875 C8.08740234 21.98818359 8.08740234 21.98818359 7.34765625 20.22265625 C5.64001575 16.13916809 3.96471068 12.04367557 2.3125 7.9375 C1.85488281 6.81214844 1.39726562 5.68679687 0.92578125 4.52734375 C0 2 0 2 0 0 Z " fill="#7CCD94" transform="translate(299,88)"/>
<path d="M0 0 C3.96 0 7.92 0 12 0 C11.61328125 1.02738281 11.2265625 2.05476563 10.828125 3.11328125 C10.45288696 4.11282837 10.45288696 4.11282837 10.07006836 5.13256836 C9.52128847 6.59135242 8.96999865 8.04919462 8.41625977 9.50610352 C7.16487288 12.81347107 5.96555525 16.1075643 4.88671875 19.4765625 C4.57347656 20.45367187 4.26023437 21.43078125 3.9375 22.4375 C3.67839844 23.30246094 3.41929687 24.16742188 3.15234375 25.05859375 C2 27 2 27 -0.62109375 27.78515625 C-1.40613281 27.85605469 -2.19117188 27.92695312 -3 28 C-5.125 23.375 -5.125 23.375 -4 20 C-4.33 19.34 -4.66 18.68 -5 18 C-4.25429348 15.47629519 -3.45311209 13.03435547 -2.5625 10.5625 C-0.64520717 5.41656146 -0.64520717 5.41656146 0 0 Z " fill="#5AB674" transform="translate(337,90)"/>
<path d="M0 0 C4.29 0 8.58 0 13 0 C13.01458252 0.97348389 13.02916504 1.94696777 13.04418945 2.94995117 C13.10233296 6.57515476 13.17956377 10.1997476 13.26245117 13.82446289 C13.29562532 15.39076801 13.32368058 16.95719051 13.34643555 18.52368164 C13.38012116 20.78061763 13.43244049 23.03648526 13.48828125 25.29296875 C13.49467117 25.98899704 13.5010611 26.68502533 13.50764465 27.40214539 C13.637221 31.72464229 14.26212947 34.60682412 17 38 C20.92733397 39.16365451 23.04294567 39.42535748 26.8125 37.75 C30.71954307 34.62436554 31.36249025 31.7813231 32 27 C32.66 27 33.32 27 34 27 C33.63194444 34.23842593 33.63194444 34.23842593 30.5625 37.9375 C26.62739713 41.10477792 24.13107596 41.34468075 19.19140625 41.28125 C17 41 17 41 14.5625 39.3125 C11.33828546 34.54066248 10.75592613 30.67868017 10.8046875 24.94921875 C10.8075174 24.29041214 10.81034729 23.63160553 10.81326294 22.95283508 C10.82439076 20.86419938 10.84948052 18.77600444 10.875 16.6875 C10.88503941 15.26498018 10.89416358 13.8424536 10.90234375 12.41992188 C10.92430553 8.94647319 10.95878354 5.47327967 11 2 C7.7 2 4.4 2 1 2 C1.09444561 6.25043623 1.20072531 10.50037312 1.31738281 14.75024414 C1.35536771 16.1922218 1.39027024 17.63428442 1.421875 19.07641602 C1.14386396 32.89597486 1.14386396 32.89597486 6.5 45 C11.35157723 48.88126178 15.95929668 48.49485988 22 48 C25.43326642 46.65121676 27.94025301 45.03983133 31 43 C29.27137715 47.55727842 26.18330285 48.90834857 22 51 C16.03384224 51.63185377 11.29836683 51.01279682 6 48 C0.3860563 42.2343281 -0.2937442 36.87914825 -0.1953125 29.19921875 C-0.1924826 28.36284378 -0.18965271 27.52646881 -0.18673706 26.66474915 C-0.1755832 24.00551774 -0.15048763 21.34662882 -0.125 18.6875 C-0.11496399 16.87956217 -0.10583923 15.07161904 -0.09765625 13.26367188 C-0.07565959 8.84231688 -0.04116294 4.42121642 0 0 Z " fill="#80D09A" transform="translate(248,88)"/>
<path d="M0 0 C6.58971382 3.05950999 10.04583532 8.04352518 12.81640625 14.625 C15.18596227 22.87591558 14.30902555 32.55187477 10.578125 40.27734375 C6.92792067 45.80452654 3.08298013 49.4514195 -3.421875 51.27734375 C-6.14488201 51.48348689 -8.68358384 51.42146434 -11.421875 51.27734375 C-11.421875 50.94734375 -11.421875 50.61734375 -11.421875 50.27734375 C-10.865 50.19097656 -10.308125 50.10460937 -9.734375 50.015625 C-3.28004476 48.82724325 2.76379112 46.90506893 6.9296875 41.53515625 C11.66712623 33.59398197 12.05558934 23.34761151 9.89453125 14.46875 C7.37751049 8.27541676 3.81904078 4.89780164 -2.171875 1.90234375 C-8.06003884 0.77000455 -13.30297196 1.27786118 -18.734375 3.83984375 C-24.1391263 8.74182748 -27.10823425 14.14859743 -27.66015625 21.4140625 C-27.85332593 30.6557067 -26.99199768 36.95561629 -21.046875 44.15234375 C-18.30830153 46.36928418 -15.63825744 47.85615151 -12.421875 49.27734375 C-14.14453125 49.9453125 -14.14453125 49.9453125 -16.421875 50.27734375 C-22.15324022 47.62184537 -25.85777063 43.30329543 -28.484375 37.65234375 C-31.74381101 28.59835482 -31.85314375 19.33019738 -27.828125 10.50390625 C-21.55089788 0.56496332 -11.30840685 -3.37428269 0 0 Z " fill="#EEEEED" transform="translate(398.421875,77.72265625)"/>
<path d="M0 0 C5.0310656 5.33597866 5.48422073 9.36493897 5.35546875 16.42578125 C5.35122391 17.30654831 5.34697906 18.18731537 5.34260559 19.09477234 C5.32586644 21.8968311 5.2882233 24.69816009 5.25 27.5 C5.23494699 29.40428646 5.22125966 31.30858424 5.20898438 33.21289062 C5.17597854 37.87137322 5.12422929 42.52931305 5.0625 47.1875 C1.1025 47.1875 -2.8575 47.1875 -6.9375 47.1875 C-6.9375 46.8575 -6.9375 46.5275 -6.9375 46.1875 C-3.3075 46.1875 0.3225 46.1875 4.0625 46.1875 C3.99341583 41.16992814 3.90534981 36.1531732 3.80004883 31.13623047 C3.76689364 29.43124488 3.73883263 27.72615202 3.71606445 26.02099609 C3.68234432 23.56301366 3.63002206 21.10600594 3.57421875 18.6484375 C3.56782883 17.89194916 3.5614389 17.13546082 3.55485535 16.35604858 C3.42400015 11.59433076 2.55179806 8.37786669 0.0625 4.1875 C-1.2575 4.1875 -2.5775 4.1875 -3.9375 4.1875 C-5.72719026 6.61422567 -5.72719026 6.61422567 -6.9375 9.1875 C-8.9175 8.5275 -10.8975 7.8675 -12.9375 7.1875 C-12.9375 6.5275 -12.9375 5.8675 -12.9375 5.1875 C-17.58802872 4.91817479 -17.58802872 4.91817479 -21.9375 6.1875 C-21.9375 5.1975 -21.9375 4.2075 -21.9375 3.1875 C-18.9375 2.1875 -18.9375 2.1875 -15.9375 2.1875 C-15.6075 1.1975 -15.2775 0.2075 -14.9375 -0.8125 C-21.7166194 1.43393894 -21.7166194 1.43393894 -26.9375 6.1875 C-26.6247469 3.26847106 -25.95031376 2.20070205 -23.875 0.0625 C-16.13624291 -4.87713219 -7.80874668 -4.81816284 0 0 Z " fill="#F8C337" transform="translate(622.9375,89.8125)"/>
<path d="M0 0 C0 0.99 0 1.98 0 3 C-0.66 3 -1.32 3 -2 3 C-3.32015397 6.9604619 -3.2023751 10.77864784 -3.23828125 14.91015625 C-3.246353 15.79223251 -3.25442474 16.67430878 -3.26274109 17.58311462 C-3.27657457 19.45342042 -3.28730002 21.32375138 -3.29516602 23.1940918 C-3.30664673 25.09390738 -3.32703607 26.99369171 -3.35668945 28.89331055 C-4.06492807 43.58040755 -4.06492807 43.58040755 1 57 C6.85142527 62.60173399 13.00139498 64.2954712 21.00317383 64.31884766 C21.79394318 64.32889328 22.58471252 64.3389389 23.39944458 64.34928894 C26.00196637 64.38007317 28.60438551 64.39714274 31.20703125 64.4140625 C33.01593404 64.43277799 34.82482814 64.45235169 36.63371277 64.4727478 C41.38637156 64.5240348 46.13905865 64.56367891 50.8918457 64.60089111 C55.74502543 64.64095226 60.5980878 64.69203498 65.45117188 64.7421875 C74.96736544 64.83890616 84.48362532 64.92332396 94 65 C94 65.33 94 65.66 94 66 C83.3163847 66.09284791 72.63286605 66.16384004 61.94892883 66.20724869 C56.98745429 66.22808703 52.02625663 66.25633595 47.06494141 66.30175781 C42.27330824 66.34534963 37.48194073 66.36916532 32.69012451 66.37950897 C30.86574118 66.38687645 29.04137171 66.40126339 27.21710205 66.42292023 C24.65353441 66.45213201 22.09105213 66.45594867 19.52734375 66.45410156 C18.40632011 66.47567322 18.40632011 66.47567322 17.26264954 66.49768066 C10.92004685 66.44851634 5.79408328 64.41111048 0.9765625 60.25390625 C0.53054687 59.69574219 0.08453125 59.13757813 -0.375 58.5625 C-0.83648437 58.00691406 -1.29796875 57.45132813 -1.7734375 56.87890625 C-5.32824229 51.43348872 -5.42130737 46.16659614 -5.625 39.84375 C-5.67539429 38.37391663 -5.67539429 38.37391663 -5.72680664 36.87438965 C-5.79249916 34.80688623 -5.8526804 32.73920129 -5.90771484 30.67138672 C-5.99971819 27.50968451 -6.13427373 24.35151382 -6.26953125 21.19140625 C-6.32816247 19.17976276 -6.38423815 17.16804282 -6.4375 15.15625 C-6.48406738 14.21342163 -6.53063477 13.27059326 -6.57861328 12.29919434 C-6.68057972 5.86622553 -6.68057972 5.86622553 -4.63330078 3.26049805 C-2.97265625 1.86523438 -2.97265625 1.86523438 0 0 Z " fill="#F6DE6F" transform="translate(35,99)"/>
<path d="M0 0 C0.80244141 0.00966797 1.60488281 0.01933594 2.43164062 0.02929688 C3.26501953 0.05443359 4.09839844 0.07957031 4.95703125 0.10546875 C6.22450195 0.12577148 6.22450195 0.12577148 7.51757812 0.14648438 C9.60183509 0.18181076 11.68576402 0.23561736 13.76953125 0.29296875 C13.43953125 1.40671875 13.10953125 2.52046875 12.76953125 3.66796875 C11.68088825 6.98756592 11.68088825 6.98756592 11.76953125 9.29296875 C9.64459984 9.3199045 7.51957213 9.33933503 5.39453125 9.35546875 C4.21117187 9.36707031 3.0278125 9.37867187 1.80859375 9.390625 C-1.23046875 9.29296875 -1.23046875 9.29296875 -3.23046875 8.29296875 C-3.23046875 15.22296875 -3.23046875 22.15296875 -3.23046875 29.29296875 C-3.89046875 29.29296875 -4.55046875 29.29296875 -5.23046875 29.29296875 C-5.426789 25.66838945 -5.61102853 22.04329608 -5.79296875 18.41796875 C-5.84904297 17.38542969 -5.90511719 16.35289063 -5.96289062 15.2890625 C-6.01123047 14.30292969 -6.05957031 13.31679687 -6.109375 12.30078125 C-6.18007202 10.93397217 -6.18007202 10.93397217 -6.25219727 9.53955078 C-6.23046875 7.29296875 -6.23046875 7.29296875 -5.23046875 5.29296875 C-5.89046875 4.63296875 -6.55046875 3.97296875 -7.23046875 3.29296875 C-4.91210376 0.51285471 -3.60077825 -0.0766123 0 0 Z " fill="#F7C340" transform="translate(488.23046875,70.70703125)"/>
<path d="M0 0 C4.29 0 8.58 0 13 0 C13 16.5 13 33 13 50 C8.71 50 4.42 50 0 50 C0 48.35 0 46.7 0 45 C0.33 45.99 0.66 46.98 1 48 C4.3 48 7.6 48 11 48 C11 32.82 11 17.64 11 2 C7.7 2 4.4 2 1 2 C1 9.92 1 17.84 1 26 C0.67 26 0.34 26 0 26 C0 17.42 0 8.84 0 0 Z " fill="#7BD196" transform="translate(281,88)"/>
<path d="M0 0 C3.54113396 -0.70537678 6.49192104 -0.95212012 10 0 C13.01699277 3.32452455 15.03033842 6.98241213 17 11 C17.33 9.35 17.66 7.7 18 6 C18.66 6 19.32 6 20 6 C20.33 5.01 20.66 4.02 21 3 C21.33 3 21.66 3 22 3 C22.33 2.01 22.66 1.02 23 0 C25.97 4.62 28.94 9.24 32 14 C31.01 14 30.02 14 29 14 C27.61328125 12.25 27.61328125 12.25 26.3125 10 C25.87550781 9.2575 25.43851562 8.515 24.98828125 7.75 C24.66214844 7.1725 24.33601563 6.595 24 6 C24.20625 6.763125 24.4125 7.52625 24.625 8.3125 C25 11 25 11 23 14 C25.475 14.495 25.475 14.495 28 15 C27.34 16.32 26.68 17.64 26 19 C25.67 18.01 25.34 17.02 25 16 C23.68 16.33 22.36 16.66 21 17 C21 17.66 21 18.32 21 19 C17.56500392 17.85500131 17.38336181 17.43024564 15.73828125 14.40234375 C15.34189453 13.68369141 14.94550781 12.96503906 14.53710938 12.22460938 C14.13298828 11.46986328 13.72886719 10.71511719 13.3125 9.9375 C12.89677734 9.17888672 12.48105469 8.42027344 12.05273438 7.63867188 C11.02678918 5.76366859 10.01229756 3.88240657 9 2 C6.36 2 3.72 2 1 2 C0.67 1.34 0.34 0.68 0 0 Z " fill="#F8C940" transform="translate(485,110)"/>
<path d="M0 0 C7.59 0 15.18 0 23 0 C23.33 6.93 23.66 13.86 24 21 C11.07042254 21 11.07042254 21 6 17 C0.99204361 11.48128189 0.87083457 7.83751116 0 0 Z M3 2 C1.43848587 8.3212937 1.43848587 8.3212937 3.00390625 11.109375 C8.76760092 17.17642202 13.72109521 19.28630131 22 20 C21.83628906 19.31550781 21.67257813 18.63101563 21.50390625 17.92578125 C20.595685 12.65246562 20.9460773 7.33834708 21 2 C15.06 2 9.12 2 3 2 Z " fill="#ECCB46" transform="translate(63,115)"/>
<path d="M0 0 C2.54232342 -0.08152344 5.08199202 -0.14073716 7.625 -0.1875 C8.33785156 -0.21263672 9.05070313 -0.23777344 9.78515625 -0.26367188 C15.40560031 -0.34101744 19.19083167 0.96577466 23.8125 4.3125 C25.63743873 6.90583399 25.87836471 8.83748242 26 12 C24.8156528 16.11038146 24.0278109 18.33176859 20.3984375 20.69140625 C16.29637934 22.27093439 13.0279378 22.37638217 8.6875 22.25 C7.95982422 22.24484375 7.23214844 22.2396875 6.48242188 22.234375 C1.15493437 22.15493437 1.15493437 22.15493437 0 21 C-0.08685603 19.43827255 -0.10702219 17.87270656 -0.09765625 16.30859375 C-0.09443359 15.36435547 -0.09121094 14.42011719 -0.08789062 13.44726562 C-0.07951172 12.45404297 -0.07113281 11.46082031 -0.0625 10.4375 C-0.05798828 9.44041016 -0.05347656 8.44332031 -0.04882812 7.41601562 C-0.03700007 4.94395151 -0.02051849 2.47200482 0 0 Z M2 2 C2 8.27 2 14.54 2 21 C13.02088077 21.63000423 13.02088077 21.63000423 22.4375 16.75 C24.32447669 13.42892102 24.6271067 11.76264023 24 8 C21.84909549 4.66238955 20.79587201 3.26529067 17 2 C14.42502932 1.92964561 11.88550071 1.9065066 9.3125 1.9375 C6.899375 1.958125 4.48625 1.97875 2 2 Z " fill="#79CD92" transform="translate(204,106)"/>
<path d="M0 0 C6.30673642 0.44291584 11.30330789 1.60948267 15.99609375 6.0546875 C17.43417368 8.39338315 18.16516472 10.40610123 18.99609375 13.0546875 C18.00609375 13.5496875 18.00609375 13.5496875 16.99609375 14.0546875 C16.60421875 12.9615625 16.21234375 11.8684375 15.80859375 10.7421875 C14.18565655 7.04963313 12.84023947 5.60870386 8.99609375 4.0546875 C5.67157896 3.24905355 2.37130895 2.6397248 -1.00390625 2.0546875 C-0.34390625 7.3346875 0.31609375 12.6146875 0.99609375 18.0546875 C6.60609375 18.7146875 12.21609375 19.3746875 17.99609375 20.0546875 C17.99609375 18.4046875 17.99609375 16.7546875 17.99609375 15.0546875 C19.99609375 17.0546875 19.99609375 17.0546875 20.12109375 19.6796875 C20.07984375 20.4634375 20.03859375 21.2471875 19.99609375 22.0546875 C12.28019558 22.2114439 4.68092914 21.72921851 -3.00390625 21.0546875 C-3.03278771 17.74220563 -3.05066424 14.42975583 -3.06640625 11.1171875 C-3.07478516 10.17166016 -3.08316406 9.22613281 -3.09179688 8.25195312 C-3.09501953 7.35283203 -3.09824219 6.45371094 -3.1015625 5.52734375 C-3.10679932 4.69468994 -3.11203613 3.86203613 -3.11743164 3.00415039 C-2.96107867 0.31925053 -2.69239348 0.07347663 0 0 Z " fill="#EFC953" transform="translate(95.00390625,86.9453125)"/>
<path d="M0 0 C1.74295072 1.70145189 3.22695196 3.46976493 4.703125 5.40625 C5.92891994 7.13591647 5.92891994 7.13591647 8 8 C8 8.66 8 9.32 8 10 C8.58345688 10.2578125 9.16691376 10.515625 9.76805115 10.78125 C12.18942777 12.10343655 13.77472917 13.54031581 15.71118164 15.5 C16.42194351 16.21414062 17.13270538 16.92828125 17.86500549 17.6640625 C19.00110512 18.82035156 19.00110512 18.82035156 20.16015625 20 C20.94643906 20.79148437 21.73272186 21.58296875 22.54283142 22.3984375 C25.05417784 24.9275951 27.55874156 27.46333213 30.0625 30 C32.57068091 32.53579611 35.08029979 35.07012541 37.59288025 37.6015625 C39.15600396 39.17694376 40.71644676 40.7549905 42.27394104 42.3359375 C42.98155075 43.05007812 43.68916046 43.76421875 44.41821289 44.5 C45.03902237 45.1290625 45.65983185 45.758125 46.29945374 46.40625 C48.11526115 48.19545917 48.11526115 48.19545917 51 50 C50.505 50.99 50.505 50.99 50 52 C41.02429306 44.22283754 32.72597761 35.80889512 24.375 27.375 C21.65665547 24.62980446 18.93483134 21.88812568 16.2109375 19.1484375 C15.302798 18.22785049 15.302798 18.22785049 14.37631226 17.28866577 C10.63508467 13.52641249 6.76588461 9.9750779 2.7406311 6.51797485 C0.73262782 4.76682926 -1.15511164 2.92175871 -3 1 C-5.9719385 2.12451727 -8.33440687 3.22293791 -11 5 C-11.33 4.01 -11.66 3.02 -12 2 C-7.59625198 -0.62127859 -4.92156326 -1.84558622 0 0 Z " fill="#F4F4F4" transform="translate(93,40)"/>
<path d="M0 0 C4.29 0 8.58 0 13 0 C13 2.31 13 4.62 13 7 C12.67 7 12.34 7 12 7 C12 5.35 12 3.7 12 2 C8.7 2 5.4 2 2 2 C2 17.18 2 32.36 2 48 C1.34 48 0.68 48 0 48 C0 32.16 0 16.32 0 0 Z " fill="#E9C541" transform="translate(582,88)"/>
<path d="M0 0 C13.53 0 27.06 0 41 0 C40.67 0.99 40.34 1.98 40 3 C26.47 3 12.94 3 -1 3 C-0.67 2.01 -0.34 1.02 0 0 Z " fill="#FBBB26" transform="translate(56,160)"/>
<path d="M0 0 C-0.08772455 1.89666526 -0.19591301 3.79238993 -0.3125 5.6875 C-0.37050781 6.74324219 -0.42851563 7.79898438 -0.48828125 8.88671875 C-1.29084212 13.76947461 -3.0397359 16.26447856 -6.9375 19.25 C-12.65742788 22.51853022 -16.0061451 22 -23 22 C-22.67 15.07 -22.34 8.14 -22 1 C-20.205625 1.020625 -18.41125 1.04125 -16.5625 1.0625 C-11.00530505 1.06908435 -5.50064668 0 0 0 Z M-20 3 C-20.33 8.94 -20.66 14.88 -21 21 C-14.73309512 21 -11.26715261 20.14580431 -6 17 C-2.30740681 12.9612262 -2.39253138 8.25992051 -2 3 C-7.94 3 -13.88 3 -20 3 Z " fill="#EDC85B" transform="translate(115,114)"/>
<path d="M0 0 C0.33 0 0.66 0 1 0 C1.00586624 0.58580338 1.01173248 1.17160675 1.01777649 1.77516174 C1.08188396 7.89151769 1.16634801 14.0073559 1.26245117 20.12329102 C1.29563367 22.40349486 1.32368624 24.68377953 1.34643555 26.96411133 C1.38010382 30.24855882 1.43242726 33.53227014 1.48828125 36.81640625 C1.49786613 38.33712486 1.49786613 38.33712486 1.50764465 39.88856506 C1.62703336 45.68163551 2.30068729 49.84962336 5 55 C3.02 54.67 1.04 54.34 -1 54 C-1.02526648 46.47030348 -1.04283141 38.9406178 -1.05493164 31.41088867 C-1.0599737 28.84708243 -1.06680714 26.28327909 -1.07543945 23.71948242 C-1.08751064 20.04344979 -1.09322942 16.36745502 -1.09765625 12.69140625 C-1.10281754 11.53725723 -1.10797882 10.38310822 -1.11329651 9.19398499 C-1.11337204 8.13296066 -1.11344757 7.07193634 -1.11352539 5.97875977 C-1.115746 5.03944107 -1.11796661 4.10012238 -1.12025452 3.13233948 C-1 1 -1 1 0 0 Z " fill="#ECCE41" transform="translate(37,97)"/>
<path d="M0 0 C2.47748667 0.35392667 4.10606746 1.064819 6.25 2.375 C9.03608733 6.554131 8.61747108 11.11767052 8 16 C6.9765625 18.34375 6.9765625 18.34375 6 20 C7.32 19.01 8.64 18.02 10 17 C11.5 18.1875 11.5 18.1875 13 20 C13.1875 22.6875 13.1875 22.6875 13 25 C12.4225 24.67 11.845 24.34 11.25 24 C8.80116138 22.72924102 8.80116138 22.72924102 5 23 C-2.33333333 23 -9.66666667 23 -17 23 C-14.19151163 20.19151163 -11.39200125 20.62128603 -7.625 20.5 C-1.4696107 20.46570901 -1.4696107 20.46570901 4 18 C6.47030941 14.35994907 6.18082439 11.40568225 5.625 7.1953125 C4.67331899 3.85253296 2.66200247 2.11595068 0 0 Z " fill="#F6CC45" transform="translate(501,79)"/>
<path d="M0 0 C0 6.6 0 13.2 0 20 C-10.89 20.495 -10.89 20.495 -22 21 C-22 14.21865867 -21.52878841 10.57915476 -18 5 C-11.71693933 -0.12902912 -8.49015453 0 0 0 Z M-16 5 C-18.75894266 8.01922026 -19.42092205 10.19801515 -19.6875 14.25 C-19.790625 15.8175 -19.89375 17.385 -20 19 C-13.73 19 -7.46 19 -1 19 C-1 13.06 -1 7.12 -1 1 C-9.61764548 0.91064365 -9.61764548 0.91064365 -16 5 Z " fill="#EDCF57" transform="translate(86,88)"/>
<path d="M0 0 C0.33 0 0.66 0 1 0 C1.01458252 0.91289795 1.02916504 1.8257959 1.04418945 2.76635742 C1.10540795 6.16798611 1.17958873 9.56882681 1.26245117 12.9699707 C1.29561259 14.43926422 1.32367178 15.90868244 1.34643555 17.37817383 C1.38014519 19.49614368 1.43246433 21.61297995 1.48828125 23.73046875 C1.51446533 25.00301514 1.54064941 26.27556152 1.56762695 27.58666992 C2.02702493 31.21334591 2.73263319 33.1530155 5 36 C8.92733397 37.16365451 11.04294567 37.42535748 14.8125 35.75 C18.71954307 32.62436554 19.36249025 29.7813231 20 25 C20.66 25 21.32 25 22 25 C21.63194444 32.23842593 21.63194444 32.23842593 18.5625 35.9375 C14.62598075 39.10591793 12.13340837 39.33266405 7.1953125 39.29296875 C5 39 5 39 2.5 37.125 C-0.23852154 33.24542781 -0.13111783 30.19880457 -0.09765625 25.5859375 C-0.0962413 24.85629791 -0.09482635 24.12665833 -0.09336853 23.37490845 C-0.08776531 21.04156415 -0.07521235 18.70831536 -0.0625 16.375 C-0.05748541 14.79427222 -0.05292243 13.21354293 -0.04882812 11.6328125 C-0.03779484 7.75517146 -0.02052811 3.87760193 0 0 Z " fill="#7AC290" transform="translate(260,90)"/>
<path d="M0 0 C1.09570312 0.10183594 2.19140625 0.20367187 3.3203125 0.30859375 C4.16335938 0.39238281 5.00640625 0.47617188 5.875 0.5625 C3.83650996 7.75636557 1.39343632 14.71959165 -1.3125 21.6875 C-1.68052734 22.64398438 -2.04855469 23.60046875 -2.42773438 24.5859375 C-3.32355445 26.91274289 -4.22267773 29.23821021 -5.125 31.5625 C-5.785 31.5625 -6.445 31.5625 -7.125 31.5625 C-4.58777869 21.94522302 -0.79346291 12.78893548 2.875 3.5625 C-0.755 3.2325 -4.385 2.9025 -8.125 2.5625 C-8.125 1.9025 -8.125 1.2425 -8.125 0.5625 C-5.28943413 -0.85528293 -3.1341294 -0.30007622 0 0 Z " fill="#7ECB96" transform="translate(345.125,87.4375)"/>
<path d="M0 0 C3.78019511 2.52013007 4.7370058 3.92779286 5.8125 8.3125 C5.874375 9.199375 5.93625 10.08625 6 11 C5.608125 10.443125 5.21625 9.88625 4.8125 9.3125 C0.72444764 3.76371541 0.72444764 3.76371541 -5.5 1.5 C-9.28041321 2.04005903 -11.11230195 2.51337112 -14 5 C-14.99 7.31 -15.98 9.62 -17 12 C-9.74 12 -2.48 12 5 12 C5 12.33 5 12.66 5 13 C-2.59 13 -10.18 13 -18 13 C-18 6.89727122 -17.97023411 5.50949964 -14.11328125 1.3671875 C-9.77895432 -1.43690571 -4.90018004 -0.97454561 0 0 Z " fill="#F4D656" transform="translate(556,96)"/>
<path d="M0 0 C0.66 0 1.32 0 2 0 C1.95359375 1.19496094 1.9071875 2.38992187 1.859375 3.62109375 C1.12684742 16.022477 1.12684742 16.022477 6 27 C8.83595506 29.60654045 11.79378355 31.86937326 15 34 C14.01 34.495 14.01 34.495 13 35 C6.99713554 31.42686639 2.43276274 27.32140454 -0.375 20.8125 C-1.51514715 13.85760236 -1.57663233 6.88673 0 0 Z " fill="#EDCE54" transform="translate(527,102)"/>
<path d="M0 0 C4.09156967 2.10107631 6.08687053 3.80052344 8 8 C8.39895351 11.08526255 8.34961408 14.13181437 8.29296875 17.23828125 C8.28872391 18.11904831 8.28447906 18.99981537 8.28010559 19.90727234 C8.26336644 22.7093311 8.2257233 25.51066009 8.1875 28.3125 C8.17244699 30.21678646 8.15875966 32.12108424 8.14648438 34.02539062 C8.11347854 38.68387322 8.06172929 43.34181305 8 48 C4.04 48 0.08 48 -4 48 C-4 47.67 -4 47.34 -4 47 C-0.37 47 3.26 47 7 47 C6.93091583 41.98242814 6.84284981 36.9656732 6.73754883 31.94873047 C6.70439364 30.24374488 6.67633263 28.53865202 6.65356445 26.83349609 C6.61984432 24.37551366 6.56752206 21.91850594 6.51171875 19.4609375 C6.50532883 18.70444916 6.4989389 17.94796082 6.49235535 17.16854858 C6.3607135 12.37820539 5.43812197 9.23530838 3 5 C2.67 4.01 2.34 3.02 2 2 C1.34 2 0.68 2 0 2 C0 1.34 0 0.68 0 0 Z " fill="#FFE551" transform="translate(620,89)"/>
<path d="M0 0 C0.66 0.33 1.32 0.66 2 1 C2.08834684 4.31232698 2.14083584 7.62434435 2.1875 10.9375 C2.21263672 11.86369141 2.23777344 12.78988281 2.26367188 13.74414062 C2.32683708 19.74483536 2.005741 25.65101103 -1 31 C-1.99 31.33 -2.98 31.66 -4 32 C-3.79141357 31.49025635 -3.58282715 30.9805127 -3.36791992 30.45532227 C-0.92153608 23.92704671 -0.46550444 17.86641538 -0.3125 10.9375 C-0.27833984 9.88111328 -0.24417969 8.82472656 -0.20898438 7.73632812 C-0.12730705 5.15765843 -0.05790057 2.57929438 0 0 Z " fill="#F1CB38" transform="translate(148,125)"/>
<path d="M0 0 C7 8.75 7 8.75 7 13 C2.24920084 13.46286541 -2.26929831 13.7286245 -7 13 C-9.64136848 10.69700951 -10.86947309 8.28880556 -12 5 C-9 6 -9 6 -7 10 C-3.37 10 0.26 10 4 10 C3.01 8.63875 3.01 8.63875 2 7.25 C0 4 0 4 0 0 Z " fill="#F1DB54" transform="translate(517,125)"/>
<path d="M0 0 C0 0.66 0 1.32 0 2 C-1.7566462 3.31748465 -3.59893894 4.4358553 -5.46875 5.5859375 C-5.9740625 6.05257812 -6.479375 6.51921875 -7 7 C-7 8.32 -7 9.64 -7 11 C-6.34 11 -5.68 11 -5 11 C-5 11.66 -5 12.32 -5 13 C-5.99 13.495 -5.99 13.495 -7 14 C-7.33 14.99 -7.66 15.98 -8 17 C-8.99 17 -9.98 17 -11 17 C-12.09232145 13.17687494 -12.27487654 11.53875803 -10.4375 7.9375 C-3.85106383 0 -3.85106383 0 0 0 Z " fill="#F4CA41" transform="translate(540,89)"/>
<path d="M0 0 C0.33 0 0.66 0 1 0 C1.33 8.91 1.66 17.82 2 27 C-2.29 27 -6.58 27 -11 27 C-11 26.34 -11 25.68 -11 25 C-7.37 25 -3.74 25 0 25 C0 16.75 0 8.5 0 0 Z " fill="#F7D54E" transform="translate(593,111)"/>
<path d="M0 0 C0.680625 0.7425 1.36125 1.485 2.0625 2.25 C7.32151726 7.4646997 12.91490422 9.50840089 20 11 C20.33 10.34 20.66 9.68 21 9 C21.33 9.99 21.66 10.98 22 12 C15.15736932 12.50478423 9.62518198 12.25128961 4 8 C1.84840744 5.61744552 0 3.33313957 0 0 Z " fill="#F3D759" transform="translate(65,124)"/>
<path d="M0 0 C3.63 0 7.26 0 11 0 C11 0.66 11 1.32 11 2 C13.31 2 15.62 2 18 2 C18 2.33 18 2.66 18 3 C12.84828377 3.09038099 8.08086796 2.84681133 3 2 C3 3.98 3 5.96 3 8 C2.01 8.495 2.01 8.495 1 9 C0.67 6.03 0.34 3.06 0 0 Z " fill="#F4D649" transform="translate(63,115)"/>
<path d="M0 0 C1 1 1 1 1.0625 3.5625 C1.041875 4.366875 1.02125 5.17125 1 6 C-4 5 -4 5 -9 4 C-9 3.34 -9 2.68 -9 2 C-5.55892734 -0.29404844 -4.03160191 -0.26293056 0 0 Z " fill="#FBBB2C" transform="translate(665,130)"/>
<path d="M0 0 C2.25514902 2.15313038 4.10665027 4.53066135 6 7 C6.66 7.66 7.32 8.32 8 9 C5 9 5 9 2.95703125 7.25 C2.24933594 6.5075 1.54164062 5.765 0.8125 5 C0.09707031 4.2575 -0.61835937 3.515 -1.35546875 2.75 C-1.89816406 2.1725 -2.44085938 1.595 -3 1 C-5.9719385 2.12451727 -8.33440687 3.22293791 -11 5 C-11.33 4.01 -11.66 3.02 -12 2 C-7.59625198 -0.62127859 -4.92156326 -1.84558622 0 0 Z " fill="#ECECEC" transform="translate(93,40)"/>
<path d="M0 0 C3.63 0 7.26 0 11 0 C11 2.31 11 4.62 11 7 C8.69 6.67 6.38 6.34 4 6 C4.639375 5.896875 5.27875 5.79375 5.9375 5.6875 C6.618125 5.460625 7.29875 5.23375 8 5 C8.33 4.01 8.66 3.02 9 2 C9.33 1.67 9.66 1.34 10 1 C6.7 1 3.4 1 0 1 C0 0.67 0 0.34 0 0 Z " fill="#F4BB20" transform="translate(656,90)"/>
<path d="M0 0 C1.2065625 0.0309375 1.2065625 0.0309375 2.4375 0.0625 C2.32387738 1.5425841 2.19627092 3.02160074 2.0625 4.5 C1.99289063 5.32371094 1.92328125 6.14742188 1.8515625 6.99609375 C1.71492188 7.67800781 1.57828125 8.35992187 1.4375 9.0625 C0.4475 9.5575 0.4475 9.5575 -0.5625 10.0625 C-0.2325 7.7525 0.0975 5.4425 0.4375 3.0625 C-0.8825 2.4025 -2.2025 1.7425 -3.5625 1.0625 C-2.5625 0.0625 -2.5625 0.0625 0 0 Z " fill="#F3B319" transform="translate(110.5625,116.9375)"/>
<path d="M0 0 C1.00289063 0.10183594 2.00578125 0.20367187 3.0390625 0.30859375 C3.80992187 0.39238281 4.58078125 0.47617188 5.375 0.5625 C5.045 1.2225 4.715 1.8825 4.375 2.5625 C0.415 2.5625 -3.545 2.5625 -7.625 2.5625 C-7.625 1.9025 -7.625 1.2425 -7.625 0.5625 C-4.89657939 -0.80171031 -3.01546682 -0.31557211 0 0 Z " fill="#70C68A" transform="translate(344.625,87.4375)"/>
<path d="M0 0 C3.91841827 1.30613942 6.32640809 2.83129848 9 6 C9 6.66 9 7.32 9 8 C5.56247993 6.4722133 2.81046312 4.49818944 0 2 C0 1.34 0 0.68 0 0 Z " fill="#CEBF7F" transform="translate(143,93)"/>
<path d="M0 0 C3.99197594 2.04993359 6.17697717 3.8475591 8 8 C7.5703125 10.16015625 7.5703125 10.16015625 7 12 C6.16121545 10.71186658 5.32913217 9.41936744 4.5 8.125 C4.0359375 7.40570313 3.571875 6.68640625 3.09375 5.9453125 C2 4 2 4 2 2 C1.34 2 0.68 2 0 2 C0 1.34 0 0.68 0 0 Z " fill="#F3D356" transform="translate(620,89)"/>
<path d="M0 0 C2.64 0 5.28 0 8 0 C8.33 1.32 8.66 2.64 9 4 C4.545 3.01 4.545 3.01 0 2 C0 1.34 0 0.68 0 0 Z " fill="#FBBB25" transform="translate(489,74)"/>
<path d="M0 0 C1.32 0 2.64 0 4 0 C4 0.99 4 1.98 4 3 C6.31 3 8.62 3 11 3 C11 3.33 11 3.66 11 4 C9.741875 4.04125 8.48375 4.0825 7.1875 4.125 C6.47980469 4.14820312 5.77210938 4.17140625 5.04296875 4.1953125 C3 4 3 4 0 2 C0 1.34 0 0.68 0 0 Z " fill="#FCC338" transform="translate(543,92)"/>
<path d="M0 0 C1.32 0 2.64 0 4 0 C3.67 1.65 3.34 3.3 3 5 C2.01 5 1.02 5 0 5 C0 3.35 0 1.7 0 0 Z " fill="#FDA61F" transform="translate(142,149)"/>
<path d="M0 0 C0.33 0.99 0.66 1.98 1 3 C1.99 2.67 2.98 2.34 4 2 C4.66 3.32 5.32 4.64 6 6 C4.02 6 2.04 6 0 6 C0 4.02 0 2.04 0 0 Z " fill="#FABF2E" transform="translate(94,129)"/>
<path d="M0 0 C1.54571278 2.31856917 2.79618552 4.50638429 4 7 C1.03 6.505 1.03 6.505 -2 6 C-1.34 4.02 -0.68 2.04 0 0 Z " fill="#F2D04E" transform="translate(38,145)"/>
<path d="M0 0 C1 4 1 4 1 4 Z " fill="#A9A387" transform="translate(88,87)"/>
<path d="" fill="#000000" transform="translate(0,0)"/>
<path d="" fill="#000000" transform="translate(0,0)"/>
<path d="" fill="#000000" transform="translate(0,0)"/>
<path d="" fill="#000000" transform="translate(0,0)"/>
<path d="" fill="#000000" transform="translate(0,0)"/>
<path d="" fill="#000000" transform="translate(0,0)"/>
<path d="" fill="#000000" transform="translate(0,0)"/>
<path d="" fill="#000000" transform="translate(0,0)"/>
<path d="" fill="#000000" transform="translate(0,0)"/>
<path d="" fill="#000000" transform="translate(0,0)"/>
<path d="" fill="#000000" transform="translate(0,0)"/>
<path d="" fill="#000000" transform="translate(0,0)"/>
<path d="" fill="#000000" transform="translate(0,0)"/>
<path d="" fill="#000000" transform="translate(0,0)"/>
<path d="" fill="#FFFFFF" transform="translate(0,0)"/>
<path d="" fill="#000000" transform="translate(0,0)"/>
<path d="" fill="#000000" transform="translate(0,0)"/>
<path d="" fill="#000000" transform="translate(0,0)"/>
<path d="" fill="#000000" transform="translate(0,0)"/>
<path d="" fill="#000000" transform="translate(0,0)"/>
<path d="" fill="#000000" transform="translate(0,0)"/>
<path d="" fill="#000000" transform="translate(0,0)"/>
<path d="" fill="#000000" transform="translate(0,0)"/>
<path d="" fill="#000000" transform="translate(0,0)"/>
<path d="" fill="#000000" transform="translate(0,0)"/>
<path d="" fill="#000000" transform="translate(0,0)"/>
<path d="" fill="#000000" transform="translate(0,0)"/>
<path d="" fill="#000000" transform="translate(0,0)"/>
<path d="" fill="#000000" transform="translate(0,0)"/>
<path d="" fill="#000000" transform="translate(0,0)"/>
<path d="" fill="#000000" transform="translate(0,0)"/>
<path d="" fill="#000000" transform="translate(0,0)"/>
<path d="" fill="#000000" transform="translate(0,0)"/>
<path d="" fill="#000000" transform="translate(0,0)"/>
<path d="" fill="#000000" transform="translate(0,0)"/>
<path d="" fill="#000000" transform="translate(0,0)"/>
<path d="" fill="#000000" transform="translate(0,0)"/>
<path d="" fill="#000000" transform="translate(0,0)"/>
<path d="" fill="#000000" transform="translate(0,0)"/>
<path d="" fill="#000000" transform="translate(0,0)"/>
<path d="" fill="#000000" transform="translate(0,0)"/>
<path d="" fill="#000000" transform="translate(0,0)"/>
<path d="" fill="#000000" transform="translate(0,0)"/>
<path d="" fill="#000000" transform="translate(0,0)"/>
<path d="" fill="#000000" transform="translate(0,0)"/>
<path d="" fill="#000000" transform="translate(0,0)"/>
<path d="" fill="#000000" transform="translate(0,0)"/>
<path d="" fill="#000000" transform="translate(0,0)"/>
<path d="" fill="#000000" transform="translate(0,0)"/>
<path d="" fill="#000000" transform="translate(0,0)"/>
<path d="" fill="#000000" transform="translate(0,0)"/>
<path d="" fill="#000000" transform="translate(0,0)"/>
<path d="" fill="#000000" transform="translate(0,0)"/>
<path d="" fill="#000000" transform="translate(0,0)"/>
<path d="" fill="#000000" transform="translate(0,0)"/>
<path d="" fill="#000000" transform="translate(0,0)"/>
<path d="" fill="#000000" transform="translate(0,0)"/>
<path d="" fill="#000000" transform="translate(0,0)"/>
<path d="" fill="#000000" transform="translate(0,0)"/>
<path d="" fill="#000000" transform="translate(0,0)"/>
<path d="" fill="#000000" transform="translate(0,0)"/>
<path d="" fill="#000000" transform="translate(0,0)"/>
<path d="" fill="#000000" transform="translate(0,0)"/>
<path d="" fill="#000000" transform="translate(0,0)"/>
<path d="" fill="#000000" transform="translate(0,0)"/>
<path d="" fill="#000000" transform="translate(0,0)"/>
<path d="" fill="#000000" transform="translate(0,0)"/>
<path d="" fill="#000000" transform="translate(0,0)"/>
</svg>
